<?xml version="1.0" encoding="UTF-8" standalone="no"?>
<!DOCTYPE svg PUBLIC "-//W3C//DTD SVG 1.1//EN"
 "http://www.w3.org/Graphics/SVG/1.1/DTD/svg11.dtd">
<!-- Generated by graphviz version 13.1.0 (20250701.0955)
 -->
<!-- Title: Module11_MindMap Pages: 1 -->
<svg width="644pt" height="650pt"
 viewBox="0.00 0.00 644.00 650.00" xmlns="http://www.w3.org/2000/svg" xmlns:xlink="http://www.w3.org/1999/xlink">
<g id="graph0" class="graph" transform="scale(1 1) rotate(0) translate(4 646.07)">
<title>Module11_MindMap</title>
<polygon fill="white" stroke="none" points="-4,4 -4,-646.07 640.2,-646.07 640.2,4 -4,4"/>
<text xml:space="preserve" text-anchor="middle" x="318.1" y="-624.77" font-family="Arial" font-size="14.00">Module 11: Data Visualization with Matplotlib</text>
<!-- main -->
<g id="node1" class="node">
<title>main</title>
<ellipse fill="#3498db" stroke="#333333" cx="316.56" cy="-300.19" rx="43.72" ry="25.24"/>
<text xml:space="preserve" text-anchor="middle" x="316.56" y="-303.04" font-family="Arial" font-size="12.00" fill="white">Matplotlib</text>
<text xml:space="preserve" text-anchor="middle" x="316.56" y="-288.79" font-family="Arial" font-size="12.00" fill="white">Basics</text>
</g>
<!-- why_viz -->
<g id="node2" class="node">
<title>why_viz</title>
<path fill="#e74c3c" stroke="#333333" d="M351.01,-490.69C351.01,-490.69 287.08,-490.69 287.08,-490.69 283.48,-490.69 279.88,-487.09 279.88,-483.49 279.88,-483.49 279.88,-476.29 279.88,-476.29 279.88,-472.69 283.48,-469.09 287.08,-469.09 287.08,-469.09 351.01,-469.09 351.01,-469.09 354.61,-469.09 358.21,-472.69 358.21,-476.29 358.21,-476.29 358.21,-483.49 358.21,-483.49 358.21,-487.09 354.61,-490.69 351.01,-490.69"/>
<text xml:space="preserve" text-anchor="middle" x="319.04" y="-476.39" font-family="Arial" font-size="10.00" fill="white">Why Visualize?</text>
</g>
<!-- main&#45;&gt;why_viz -->
<g id="edge1" class="edge">
<title>main&#45;&gt;why_viz</title>
<path fill="none" stroke="#666666" stroke-width="0.8" d="M316.79,-325.87C317.6,-418.23 317.75,-428.72 318.76,-468.7"/>
</g>
<!-- chart_types -->
<g id="node3" class="node">
<title>chart_types</title>
<path fill="#e67e22" stroke="#333333" d="M514.42,-363.06C514.42,-363.06 466.24,-363.06 466.24,-363.06 462.64,-363.06 459.04,-359.46 459.04,-355.86 459.04,-355.86 459.04,-348.66 459.04,-348.66 459.04,-345.06 462.64,-341.46 466.24,-341.46 466.24,-341.46 514.42,-341.46 514.42,-341.46 518.02,-341.46 521.62,-345.06 521.62,-348.66 521.62,-348.66 521.62,-355.86 521.62,-355.86 521.62,-359.46 518.02,-363.06 514.42,-363.06"/>
<text xml:space="preserve" text-anchor="middle" x="490.33" y="-348.76" font-family="Arial" font-size="10.00" fill="white">Chart Types</text>
</g>
<!-- main&#45;&gt;chart_types -->
<g id="edge2" class="edge">
<title>main&#45;&gt;chart_types</title>
<path fill="none" stroke="#666666" stroke-width="0.8" d="M356.53,-311.02C416.71,-327.35 436.29,-332.95 459.5,-341.06"/>
</g>
<!-- customization -->
<g id="node4" class="node">
<title>customization</title>
<path fill="#9b59b6" stroke="#333333" d="M447.78,-150.41C447.78,-150.41 389.1,-150.41 389.1,-150.41 385.5,-150.41 381.9,-146.81 381.9,-143.21 381.9,-143.21 381.9,-136.01 381.9,-136.01 381.9,-132.41 385.5,-128.81 389.1,-128.81 389.1,-128.81 447.78,-128.81 447.78,-128.81 451.38,-128.81 454.98,-132.41 454.98,-136.01 454.98,-136.01 454.98,-143.21 454.98,-143.21 454.98,-146.81 451.38,-150.41 447.78,-150.41"/>
<text xml:space="preserve" text-anchor="middle" x="418.44" y="-136.11" font-family="Arial" font-size="10.00" fill="white">Customization</text>
</g>
<!-- main&#45;&gt;customization -->
<g id="edge3" class="edge">
<title>main&#45;&gt;customization</title>
<path fill="none" stroke="#666666" stroke-width="0.8" d="M331.25,-276.14C380.97,-194.77 387.51,-184.42 410.66,-150.87"/>
</g>
<!-- pandas_plot -->
<g id="node5" class="node">
<title>pandas_plot</title>
<path fill="#2ecc71" stroke="#333333" d="M246.15,-150.37C246.15,-150.37 192.72,-150.37 192.72,-150.37 189.12,-150.37 185.52,-146.77 185.52,-143.17 185.52,-143.17 185.52,-135.97 185.52,-135.97 185.52,-132.37 189.12,-128.77 192.72,-128.77 192.72,-128.77 246.15,-128.77 246.15,-128.77 249.75,-128.77 253.35,-132.37 253.35,-135.97 253.35,-135.97 253.35,-143.17 253.35,-143.17 253.35,-146.77 249.75,-150.37 246.15,-150.37"/>
<text xml:space="preserve" text-anchor="middle" x="219.43" y="-136.07" font-family="Arial" font-size="10.00" fill="white">Pandas.plot()</text>
</g>
<!-- main&#45;&gt;pandas_plot -->
<g id="edge4" class="edge">
<title>main&#45;&gt;pandas_plot</title>
<path fill="none" stroke="#666666" stroke-width="0.8" d="M302.22,-275.97C254.19,-194.86 248.09,-184.77 226.37,-150.51"/>
</g>
<!-- best_practices -->
<g id="node6" class="node">
<title>best_practices</title>
<path fill="#f1c40f" stroke="#333333" d="M178.19,-363.06C178.19,-363.06 118.01,-363.06 118.01,-363.06 114.41,-363.06 110.81,-359.46 110.81,-355.86 110.81,-355.86 110.81,-348.66 110.81,-348.66 110.81,-345.06 114.41,-341.46 118.01,-341.46 118.01,-341.46 178.19,-341.46 178.19,-341.46 181.79,-341.46 185.39,-345.06 185.39,-348.66 185.39,-348.66 185.39,-355.86 185.39,-355.86 185.39,-359.46 181.79,-363.06 178.19,-363.06"/>
<text xml:space="preserve" text-anchor="middle" x="148.1" y="-348.76" font-family="Arial" font-size="10.00" fill="#333333">Best Practices</text>
</g>
<!-- main&#45;&gt;best_practices -->
<g id="edge5" class="edge">
<title>main&#45;&gt;best_practices</title>
<path fill="none" stroke="#666666" stroke-width="0.8" d="M276.71,-311.24C219.06,-327.26 200.2,-332.82 177.82,-340.98"/>
</g>
<!-- faster_comp -->
<g id="node7" class="node">
<title>faster_comp</title>
<path fill="#fadbd8" stroke="#333333" d="M465.01,-561.6C465.01,-561.6 370.33,-561.6 370.33,-561.6 366.73,-561.6 363.13,-558 363.13,-554.4 363.13,-554.4 363.13,-547.2 363.13,-547.2 363.13,-543.6 366.73,-540 370.33,-540 370.33,-540 465.01,-540 465.01,-540 468.61,-540 472.21,-543.6 472.21,-547.2 472.21,-547.2 472.21,-554.4 472.21,-554.4 472.21,-558 468.61,-561.6 465.01,-561.6"/>
<text xml:space="preserve" text-anchor="middle" x="417.67" y="-547.3" font-family="Arial" font-size="10.00">Faster Comprehension</text>
</g>
<!-- why_viz&#45;&gt;faster_comp -->
<g id="edge6" class="edge">
<title>why_viz&#45;&gt;faster_comp</title>
<path fill="none" stroke="#666666" stroke-width="0.8" d="M329.31,-490.89C357.25,-520.77 368.88,-532.37 383.43,-539.53"/>
</g>
<!-- spot_trends -->
<g id="node8" class="node">
<title>spot_trends</title>
<path fill="#fadbd8" stroke="#333333" d="M347.84,-561.6C347.84,-561.6 283.91,-561.6 283.91,-561.6 280.31,-561.6 276.71,-558 276.71,-554.4 276.71,-554.4 276.71,-547.2 276.71,-547.2 276.71,-543.6 280.31,-540 283.91,-540 283.91,-540 347.84,-540 347.84,-540 351.44,-540 355.04,-543.6 355.04,-547.2 355.04,-547.2 355.04,-554.4 355.04,-554.4 355.04,-558 351.44,-561.6 347.84,-561.6"/>
<text xml:space="preserve" text-anchor="middle" x="315.87" y="-547.3" font-family="Arial" font-size="10.00">Spotting Trends</text>
</g>
<!-- why_viz&#45;&gt;spot_trends -->
<g id="edge7" class="edge">
<title>why_viz&#45;&gt;spot_trends</title>
<path fill="none" stroke="#666666" stroke-width="0.8" d="M318.67,-491.14C317.69,-520.95 317.4,-528.66 316.66,-539.65"/>
</g>
<!-- find_outliers -->
<g id="node9" class="node">
<title>find_outliers</title>
<path fill="#fadbd8" stroke="#333333" d="M261.5,-561.6C261.5,-561.6 197.57,-561.6 197.57,-561.6 193.97,-561.6 190.37,-558 190.37,-554.4 190.37,-554.4 190.37,-547.2 190.37,-547.2 190.37,-543.6 193.97,-540 197.57,-540 197.57,-540 261.5,-540 261.5,-540 265.1,-540 268.7,-543.6 268.7,-547.2 268.7,-547.2 268.7,-554.4 268.7,-554.4 268.7,-558 265.1,-561.6 261.5,-561.6"/>
<text xml:space="preserve" text-anchor="middle" x="229.54" y="-547.3" font-family="Arial" font-size="10.00">Finding Outliers</text>
</g>
<!-- why_viz&#45;&gt;find_outliers -->
<g id="edge8" class="edge">
<title>why_viz&#45;&gt;find_outliers</title>
<path fill="none" stroke="#666666" stroke-width="0.8" d="M309.56,-490.95C283.65,-521.11 273.38,-532.18 259.37,-539.51"/>
</g>
<!-- communication -->
<g id="node10" class="node">
<title>communication</title>
<path fill="#fadbd8" stroke="#333333" d="M418.77,-618.32C418.77,-618.32 334.59,-618.32 334.59,-618.32 330.99,-618.32 327.39,-614.72 327.39,-611.12 327.39,-611.12 327.39,-603.92 327.39,-603.92 327.39,-600.32 330.99,-596.72 334.59,-596.72 334.59,-596.72 418.77,-596.72 418.77,-596.72 422.37,-596.72 425.97,-600.32 425.97,-603.92 425.97,-603.92 425.97,-611.12 425.97,-611.12 425.97,-614.72 422.37,-618.32 418.77,-618.32"/>
<text xml:space="preserve" text-anchor="middle" x="376.68" y="-604.02" font-family="Arial" font-size="10.00">Communication Tool</text>
</g>
<!-- why_viz&#45;&gt;communication -->
<g id="edge9" class="edge">
<title>why_viz&#45;&gt;communication</title>
<path fill="none" stroke="#666666" stroke-width="0.8" d="M322.86,-490.71C347.97,-561.76 351.78,-571.46 368.8,-596.23"/>
</g>
<!-- relationships -->
<g id="node11" class="node">
<title>relationships</title>
<path fill="#fadbd8" stroke="#333333" d="M307.09,-618.32C307.09,-618.32 219.16,-618.32 219.16,-618.32 215.56,-618.32 211.96,-614.72 211.96,-611.12 211.96,-611.12 211.96,-603.92 211.96,-603.92 211.96,-600.32 215.56,-596.72 219.16,-596.72 219.16,-596.72 307.09,-596.72 307.09,-596.72 310.69,-596.72 314.29,-600.32 314.29,-603.92 314.29,-603.92 314.29,-611.12 314.29,-611.12 314.29,-614.72 310.69,-618.32 307.09,-618.32"/>
<text xml:space="preserve" text-anchor="middle" x="263.13" y="-604.02" font-family="Arial" font-size="10.00">Seeing Relationships</text>
</g>
<!-- why_viz&#45;&gt;relationships -->
<g id="edge10" class="edge">
<title>why_viz&#45;&gt;relationships</title>
<path fill="none" stroke="#666666" stroke-width="0.8" d="M315.19,-491.19C291.05,-562.05 287.43,-571.51 270.61,-596.55"/>
</g>
<!-- line_charts -->
<g id="node12" class="node">
<title>line_charts</title>
<path fill="#fae5d3" stroke="#333333" d="M598.59,-405.6C598.59,-405.6 552.66,-405.6 552.66,-405.6 549.06,-405.6 545.46,-402 545.46,-398.4 545.46,-398.4 545.46,-391.2 545.46,-391.2 545.46,-387.6 549.06,-384 552.66,-384 552.66,-384 598.59,-384 598.59,-384 602.19,-384 605.79,-387.6 605.79,-391.2 605.79,-391.2 605.79,-398.4 605.79,-398.4 605.79,-402 602.19,-405.6 598.59,-405.6"/>
<text xml:space="preserve" text-anchor="middle" x="575.62" y="-391.3" font-family="Arial" font-size="10.00">Line Charts</text>
</g>
<!-- chart_types&#45;&gt;line_charts -->
<g id="edge11" class="edge">
<title>chart_types&#45;&gt;line_charts</title>
<path fill="none" stroke="#666666" stroke-width="0.8" d="M515.77,-363.45C538.91,-373.68 548.6,-378.25 557.94,-383.69"/>
</g>
<!-- bar_charts -->
<g id="node13" class="node">
<title>bar_charts</title>
<path fill="#fae5d3" stroke="#333333" d="M624.13,-348.88C624.13,-348.88 581.2,-348.88 581.2,-348.88 577.6,-348.88 574,-345.28 574,-341.68 574,-341.68 574,-334.48 574,-334.48 574,-330.88 577.6,-327.28 581.2,-327.28 581.2,-327.28 624.13,-327.28 624.13,-327.28 627.73,-327.28 631.33,-330.88 631.33,-334.48 631.33,-334.48 631.33,-341.68 631.33,-341.68 631.33,-345.28 627.73,-348.88 624.13,-348.88"/>
<text xml:space="preserve" text-anchor="middle" x="602.66" y="-334.58" font-family="Arial" font-size="10.00">Bar Charts</text>
</g>
<!-- chart_types&#45;&gt;bar_charts -->
<g id="edge12" class="edge">
<title>chart_types&#45;&gt;bar_charts</title>
<path fill="none" stroke="#666666" stroke-width="0.8" d="M521.82,-350.8C549.12,-349.45 562.3,-348.42 573.88,-346.11"/>
</g>
<!-- scatter_plots -->
<g id="node14" class="node">
<title>scatter_plots</title>
<path fill="#fae5d3" stroke="#333333" d="M629,-292.15C629,-292.15 576.32,-292.15 576.32,-292.15 572.72,-292.15 569.12,-288.55 569.12,-284.95 569.12,-284.95 569.12,-277.75 569.12,-277.75 569.12,-274.15 572.72,-270.55 576.32,-270.55 576.32,-270.55 629,-270.55 629,-270.55 632.6,-270.55 636.2,-274.15 636.2,-277.75 636.2,-277.75 636.2,-284.95 636.2,-284.95 636.2,-288.55 632.6,-292.15 629,-292.15"/>
<text xml:space="preserve" text-anchor="middle" x="602.66" y="-277.85" font-family="Arial" font-size="10.00">Scatter Plots</text>
</g>
<!-- chart_types&#45;&gt;scatter_plots -->
<g id="edge13" class="edge">
<title>chart_types&#45;&gt;scatter_plots</title>
<path fill="none" stroke="#666666" stroke-width="0.8" d="M516.94,-341.1C566.19,-320.25 574.94,-314.63 593.57,-292.41"/>
</g>
<!-- histograms -->
<g id="node15" class="node">
<title>histograms</title>
<path fill="#fae5d3" stroke="#333333" d="M597.26,-235.43C597.26,-235.43 551.33,-235.43 551.33,-235.43 547.73,-235.43 544.13,-231.83 544.13,-228.23 544.13,-228.23 544.13,-221.03 544.13,-221.03 544.13,-217.43 547.73,-213.83 551.33,-213.83 551.33,-213.83 597.26,-213.83 597.26,-213.83 600.86,-213.83 604.46,-217.43 604.46,-221.03 604.46,-221.03 604.46,-228.23 604.46,-228.23 604.46,-231.83 600.86,-235.43 597.26,-235.43"/>
<text xml:space="preserve" text-anchor="middle" x="574.3" y="-221.13" font-family="Arial" font-size="10.00">Histograms</text>
</g>
<!-- chart_types&#45;&gt;histograms -->
<g id="edge14" class="edge">
<title>chart_types&#45;&gt;histograms</title>
<path fill="none" stroke="#666666" stroke-width="0.8" d="M502.33,-341.19C558.64,-289.11 563.04,-282.64 572.19,-235.66"/>
</g>
<!-- pie_charts -->
<g id="node16" class="node">
<title>pie_charts</title>
<path fill="#fae5d3" stroke="#333333" d="M552.85,-192.89C552.85,-192.89 510.67,-192.89 510.67,-192.89 507.07,-192.89 503.47,-189.29 503.47,-185.69 503.47,-185.69 503.47,-178.49 503.47,-178.49 503.47,-174.89 507.07,-171.29 510.67,-171.29 510.67,-171.29 552.85,-171.29 552.85,-171.29 556.45,-171.29 560.05,-174.89 560.05,-178.49 560.05,-178.49 560.05,-185.69 560.05,-185.69 560.05,-189.29 556.45,-192.89 552.85,-192.89"/>
<text xml:space="preserve" text-anchor="middle" x="531.76" y="-178.59" font-family="Arial" font-size="10.00">Pie Charts</text>
</g>
<!-- chart_types&#45;&gt;pie_charts -->
<g id="edge15" class="edge">
<title>chart_types&#45;&gt;pie_charts</title>
<path fill="none" stroke="#666666" stroke-width="0.8" d="M496.82,-341.33C542.69,-263.9 544.64,-257.08 533.7,-193.29"/>
</g>
<!-- titles_labels -->
<g id="node17" class="node">
<title>titles_labels</title>
<path fill="#e8daef" stroke="#333333" d="M534.22,-107.98C534.22,-107.98 473.29,-107.98 473.29,-107.98 469.69,-107.98 466.09,-104.38 466.09,-100.78 466.09,-100.78 466.09,-93.58 466.09,-93.58 466.09,-89.98 469.69,-86.38 473.29,-86.38 473.29,-86.38 534.22,-86.38 534.22,-86.38 537.82,-86.38 541.42,-89.98 541.42,-93.58 541.42,-93.58 541.42,-100.78 541.42,-100.78 541.42,-104.38 537.82,-107.98 534.22,-107.98"/>
<text xml:space="preserve" text-anchor="middle" x="503.76" y="-93.68" font-family="Arial" font-size="10.00">Titles &amp; Labels</text>
</g>
<!-- customization&#45;&gt;titles_labels -->
<g id="edge16" class="edge">
<title>customization&#45;&gt;titles_labels</title>
<path fill="none" stroke="#666666" stroke-width="0.8" d="M435.12,-128.4C449.89,-118.5 459.38,-112.38 467.11,-108.28"/>
</g>
<!-- colors -->
<g id="node18" class="node">
<title>colors</title>
<path fill="#e8daef" stroke="#333333" d="M467.23,-66.21C467.23,-66.21 431.23,-66.21 431.23,-66.21 427.63,-66.21 424.03,-62.61 424.03,-59.01 424.03,-59.01 424.03,-51.81 424.03,-51.81 424.03,-48.21 427.63,-44.61 431.23,-44.61 431.23,-44.61 467.23,-44.61 467.23,-44.61 470.83,-44.61 474.43,-48.21 474.43,-51.81 474.43,-51.81 474.43,-59.01 474.43,-59.01 474.43,-62.61 470.83,-66.21 467.23,-66.21"/>
<text xml:space="preserve" text-anchor="middle" x="449.23" y="-51.91" font-family="Arial" font-size="10.00">Colors</text>
</g>
<!-- customization&#45;&gt;colors -->
<g id="edge17" class="edge">
<title>customization&#45;&gt;colors</title>
<path fill="none" stroke="#666666" stroke-width="0.8" d="M423.04,-128.54C439.13,-89.71 442.19,-81.89 446.36,-66.4"/>
</g>
<!-- legend -->
<g id="node19" class="node">
<title>legend</title>
<path fill="#e8daef" stroke="#333333" d="M408.79,-37C408.79,-37 372.79,-37 372.79,-37 369.19,-37 365.59,-33.4 365.59,-29.8 365.59,-29.8 365.59,-22.6 365.59,-22.6 365.59,-19 369.19,-15.4 372.79,-15.4 372.79,-15.4 408.79,-15.4 408.79,-15.4 412.39,-15.4 415.99,-19 415.99,-22.6 415.99,-22.6 415.99,-29.8 415.99,-29.8 415.99,-33.4 412.39,-37 408.79,-37"/>
<text xml:space="preserve" text-anchor="middle" x="390.79" y="-22.7" font-family="Arial" font-size="10.00">Legends</text>
</g>
<!-- customization&#45;&gt;legend -->
<g id="edge18" class="edge">
<title>customization&#45;&gt;legend</title>
<path fill="none" stroke="#666666" stroke-width="0.8" d="M417.68,-128.66C413.5,-69.47 412.19,-60.83 397.8,-37.36"/>
</g>
<!-- formatting -->
<g id="node20" class="node">
<title>formatting</title>
<path fill="#e8daef" stroke="#333333" d="M350.33,-21.6C350.33,-21.6 308.15,-21.6 308.15,-21.6 304.55,-21.6 300.95,-18 300.95,-14.4 300.95,-14.4 300.95,-7.2 300.95,-7.2 300.95,-3.6 304.55,0 308.15,0 308.15,0 350.33,0 350.33,0 353.93,0 357.53,-3.6 357.53,-7.2 357.53,-7.2 357.53,-14.4 357.53,-14.4 357.53,-18 353.93,-21.6 350.33,-21.6"/>
<text xml:space="preserve" text-anchor="middle" x="329.24" y="-7.3" font-family="Arial" font-size="10.00">Formatting</text>
</g>
<!-- customization&#45;&gt;formatting -->
<g id="edge19" class="edge">
<title>customization&#45;&gt;formatting</title>
<path fill="none" stroke="#666666" stroke-width="0.8" d="M414.03,-128.41C385.27,-55.46 380.02,-45.04 346.26,-22.07"/>
</g>
<!-- series_plot -->
<g id="node21" class="node">
<title>series_plot</title>
<path fill="#d5f5e3" stroke="#333333" d="M158.06,-108.14C158.06,-108.14 109.88,-108.14 109.88,-108.14 106.28,-108.14 102.68,-104.54 102.68,-100.94 102.68,-100.94 102.68,-93.74 102.68,-93.74 102.68,-90.14 106.28,-86.54 109.88,-86.54 109.88,-86.54 158.06,-86.54 158.06,-86.54 161.66,-86.54 165.26,-90.14 165.26,-93.74 165.26,-93.74 165.26,-100.94 165.26,-100.94 165.26,-104.54 161.66,-108.14 158.06,-108.14"/>
<text xml:space="preserve" text-anchor="middle" x="133.97" y="-93.84" font-family="Arial" font-size="10.00">Series.plot()</text>
</g>
<!-- pandas_plot&#45;&gt;series_plot -->
<g id="edge20" class="edge">
<title>pandas_plot&#45;&gt;series_plot</title>
<path fill="none" stroke="#666666" stroke-width="0.8" d="M202.76,-128.36C184.43,-116.11 174.23,-109.65 165.43,-105.67"/>
</g>
<!-- df_plot -->
<g id="node22" class="node">
<title>df_plot</title>
<path fill="#d5f5e3" stroke="#333333" d="M224.77,-65.88C224.77,-65.88 155.59,-65.88 155.59,-65.88 151.99,-65.88 148.39,-62.28 148.39,-58.68 148.39,-58.68 148.39,-51.48 148.39,-51.48 148.39,-47.88 151.99,-44.28 155.59,-44.28 155.59,-44.28 224.77,-44.28 224.77,-44.28 228.37,-44.28 231.97,-47.88 231.97,-51.48 231.97,-51.48 231.97,-58.68 231.97,-58.68 231.97,-62.28 228.37,-65.88 224.77,-65.88"/>
<text xml:space="preserve" text-anchor="middle" x="190.18" y="-51.58" font-family="Arial" font-size="10.00">DataFrame.plot()</text>
</g>
<!-- pandas_plot&#45;&gt;df_plot -->
<g id="edge21" class="edge">
<title>pandas_plot&#45;&gt;df_plot</title>
<path fill="none" stroke="#666666" stroke-width="0.8" d="M215.02,-128.46C199.55,-89.51 196.63,-81.67 192.8,-66.11"/>
</g>
<!-- kind_param -->
<g id="node23" class="node">
<title>kind_param</title>
<path fill="#d5f5e3" stroke="#333333" d="M280.19,-36.25C280.19,-36.25 218.51,-36.25 218.51,-36.25 214.91,-36.25 211.31,-32.65 211.31,-29.05 211.31,-29.05 211.31,-21.85 211.31,-21.85 211.31,-18.25 214.91,-14.65 218.51,-14.65 218.51,-14.65 280.19,-14.65 280.19,-14.65 283.79,-14.65 287.39,-18.25 287.39,-21.85 287.39,-21.85 287.39,-29.05 287.39,-29.05 287.39,-32.65 283.79,-36.25 280.19,-36.25"/>
<text xml:space="preserve" text-anchor="middle" x="249.35" y="-21.95" font-family="Arial" font-size="10.00">kind Parameter</text>
</g>
<!-- pandas_plot&#45;&gt;kind_param -->
<g id="edge22" class="edge">
<title>pandas_plot&#45;&gt;kind_param</title>
<path fill="none" stroke="#666666" stroke-width="0.8" d="M220.38,-128.52C225.53,-68.82 227,-60.12 242.03,-36.62"/>
</g>
<!-- chart_choice -->
<g id="node24" class="node">
<title>chart_choice</title>
<path fill="#fef9e7" stroke="#333333" d="M97.42,-405.6C97.42,-405.6 28.24,-405.6 28.24,-405.6 24.64,-405.6 21.04,-402 21.04,-398.4 21.04,-398.4 21.04,-391.2 21.04,-391.2 21.04,-387.6 24.64,-384 28.24,-384 28.24,-384 97.42,-384 97.42,-384 101.02,-384 104.62,-387.6 104.62,-391.2 104.62,-391.2 104.62,-398.4 104.62,-398.4 104.62,-402 101.02,-405.6 97.42,-405.6"/>
<text xml:space="preserve" text-anchor="middle" x="62.83" y="-391.3" font-family="Arial" font-size="10.00">Choosing Charts</text>
</g>
<!-- best_practices&#45;&gt;chart_choice -->
<g id="edge23" class="edge">
<title>best_practices&#45;&gt;chart_choice</title>
<path fill="none" stroke="#666666" stroke-width="0.8" d="M122.67,-363.47C99.82,-373.6 90.1,-378.18 80.86,-383.52"/>
</g>
<!-- simplicity -->
<g id="node25" class="node">
<title>simplicity</title>
<path fill="#fef9e7" stroke="#333333" d="M54.63,-348.88C54.63,-348.88 16.2,-348.88 16.2,-348.88 12.6,-348.88 9,-345.28 9,-341.68 9,-341.68 9,-334.48 9,-334.48 9,-330.88 12.6,-327.28 16.2,-327.28 16.2,-327.28 54.63,-327.28 54.63,-327.28 58.23,-327.28 61.83,-330.88 61.83,-334.48 61.83,-334.48 61.83,-341.68 61.83,-341.68 61.83,-345.28 58.23,-348.88 54.63,-348.88"/>
<text xml:space="preserve" text-anchor="middle" x="35.41" y="-334.58" font-family="Arial" font-size="10.00">Simplicity</text>
</g>
<!-- best_practices&#45;&gt;simplicity -->
<g id="edge24" class="edge">
<title>best_practices&#45;&gt;simplicity</title>
<path fill="none" stroke="#666666" stroke-width="0.8" d="M110.42,-350.51C85.6,-349.24 73.5,-348.14 62.24,-345.72"/>
</g>
<!-- honesty -->
<g id="node26" class="node">
<title>honesty</title>
<path fill="#fef9e7" stroke="#333333" d="M63.63,-292.15C63.63,-292.15 7.2,-292.15 7.2,-292.15 3.6,-292.15 0,-288.55 0,-284.95 0,-284.95 0,-277.75 0,-277.75 0,-274.15 3.6,-270.55 7.2,-270.55 7.2,-270.55 63.63,-270.55 63.63,-270.55 67.23,-270.55 70.83,-274.15 70.83,-277.75 70.83,-277.75 70.83,-284.95 70.83,-284.95 70.83,-288.55 67.23,-292.15 63.63,-292.15"/>
<text xml:space="preserve" text-anchor="middle" x="35.41" y="-277.85" font-family="Arial" font-size="10.00">Data Honesty</text>
</g>
<!-- best_practices&#45;&gt;honesty -->
<g id="edge25" class="edge">
<title>best_practices&#45;&gt;honesty</title>
<path fill="none" stroke="#666666" stroke-width="0.8" d="M121.41,-341.1C72.02,-320.26 63.25,-314.63 44.54,-292.41"/>
</g>
<!-- accessibility -->
<g id="node27" class="node">
<title>accessibility</title>
<path fill="#fef9e7" stroke="#333333" d="M89.37,-235.43C89.37,-235.43 38.19,-235.43 38.19,-235.43 34.59,-235.43 30.99,-231.83 30.99,-228.23 30.99,-228.23 30.99,-221.03 30.99,-221.03 30.99,-217.43 34.59,-213.83 38.19,-213.83 38.19,-213.83 89.37,-213.83 89.37,-213.83 92.97,-213.83 96.57,-217.43 96.57,-221.03 96.57,-221.03 96.57,-228.23 96.57,-228.23 96.57,-231.83 92.97,-235.43 89.37,-235.43"/>
<text xml:space="preserve" text-anchor="middle" x="63.78" y="-221.13" font-family="Arial" font-size="10.00">Accessibility</text>
</g>
<!-- best_practices&#45;&gt;accessibility -->
<g id="edge26" class="edge">
<title>best_practices&#45;&gt;accessibility</title>
<path fill="none" stroke="#666666" stroke-width="0.8" d="M136.06,-341.18C79.59,-289.08 75.17,-282.61 65.92,-235.65"/>
</g>
</g>
</svg>
