<?xml version="1.0" encoding="UTF-8" standalone="no"?>
<!DOCTYPE svg PUBLIC "-//W3C//DTD SVG 1.1//EN"
 "http://www.w3.org/Graphics/SVG/1.1/DTD/svg11.dtd">
<!-- Generated by graphviz version 13.1.0 (20250701.0955)
 -->
<!-- Title: Module3_MindMap Pages: 1 -->
<svg width="988pt" height="319pt"
 viewBox="0.00 0.00 988.00 319.00" xmlns="http://www.w3.org/2000/svg" xmlns:xlink="http://www.w3.org/1999/xlink">
<g id="graph0" class="graph" transform="scale(1 1) rotate(0) translate(4 315.25)">
<title>Module3_MindMap</title>
<polygon fill="white" stroke="none" points="-4,4 -4,-315.25 983.75,-315.25 983.75,4 -4,4"/>
<!-- central -->
<g id="node1" class="node">
<title>central</title>
<path fill="darkblue" stroke="black" stroke-width="2" d="M680,-311.25C680,-311.25 573.25,-311.25 573.25,-311.25 567.25,-311.25 561.25,-305.25 561.25,-299.25 561.25,-299.25 561.25,-268 561.25,-268 561.25,-262 567.25,-256 573.25,-256 573.25,-256 680,-256 680,-256 686,-256 692,-262 692,-268 692,-268 692,-299.25 692,-299.25 692,-305.25 686,-311.25 680,-311.25"/>
<text xml:space="preserve" text-anchor="middle" x="626.62" y="-293.95" font-family="Arial" font-size="14.00" fill="white">Module 3:</text>
<text xml:space="preserve" text-anchor="middle" x="626.62" y="-278.2" font-family="Arial" font-size="14.00" fill="white">Strings, Formatting</text>
<text xml:space="preserve" text-anchor="middle" x="626.62" y="-262.45" font-family="Arial" font-size="14.00" fill="white">&amp; Input/Output</text>
</g>
<!-- strings -->
<g id="node2" class="node">
<title>strings</title>
<path fill="lightblue" stroke="black" d="M184.25,-220C184.25,-220 145,-220 145,-220 139,-220 133,-214 133,-208 133,-208 133,-196 133,-196 133,-190 139,-184 145,-184 145,-184 184.25,-184 184.25,-184 190.25,-184 196.25,-190 196.25,-196 196.25,-196 196.25,-208 196.25,-208 196.25,-214 190.25,-220 184.25,-220"/>
<text xml:space="preserve" text-anchor="middle" x="164.62" y="-204.5" font-family="Arial" font-size="10.00">String</text>
<text xml:space="preserve" text-anchor="middle" x="164.62" y="-192.5" font-family="Arial" font-size="10.00">Operations</text>
</g>
<!-- central&#45;&gt;strings -->
<g id="edge1" class="edge">
<title>central&#45;&gt;strings</title>
<path fill="none" stroke="darkgray" stroke-width="1.5" d="M560.43,-271.22C464.65,-254.71 290,-224.61 208.58,-210.58"/>
<polygon fill="darkgray" stroke="darkgray" stroke-width="1.5" points="209.26,-207.14 198.81,-208.89 208.07,-214.04 209.26,-207.14"/>
</g>
<!-- methods -->
<g id="node3" class="node">
<title>methods</title>
<path fill="lightblue" stroke="black" d="M433.62,-220C433.62,-220 403.62,-220 403.62,-220 397.62,-220 391.62,-214 391.62,-208 391.62,-208 391.62,-196 391.62,-196 391.62,-190 397.62,-184 403.62,-184 403.62,-184 433.62,-184 433.62,-184 439.62,-184 445.62,-190 445.62,-196 445.62,-196 445.62,-208 445.62,-208 445.62,-214 439.62,-220 433.62,-220"/>
<text xml:space="preserve" text-anchor="middle" x="418.62" y="-204.5" font-family="Arial" font-size="10.00">String</text>
<text xml:space="preserve" text-anchor="middle" x="418.62" y="-192.5" font-family="Arial" font-size="10.00">Methods</text>
</g>
<!-- central&#45;&gt;methods -->
<g id="edge2" class="edge">
<title>central&#45;&gt;methods</title>
<path fill="none" stroke="darkgray" stroke-width="1.5" d="M560.53,-257.32C526.55,-244.31 486.32,-228.91 457.38,-217.84"/>
<polygon fill="darkgray" stroke="darkgray" stroke-width="1.5" points="458.82,-214.64 448.23,-214.33 456.32,-221.18 458.82,-214.64"/>
</g>
<!-- formatting -->
<g id="node4" class="node">
<title>formatting</title>
<path fill="lightblue" stroke="black" d="M645.88,-220C645.88,-220 607.38,-220 607.38,-220 601.38,-220 595.38,-214 595.38,-208 595.38,-208 595.38,-196 595.38,-196 595.38,-190 601.38,-184 607.38,-184 607.38,-184 645.88,-184 645.88,-184 651.88,-184 657.88,-190 657.88,-196 657.88,-196 657.88,-208 657.88,-208 657.88,-214 651.88,-220 645.88,-220"/>
<text xml:space="preserve" text-anchor="middle" x="626.62" y="-204.5" font-family="Arial" font-size="10.00">Output</text>
<text xml:space="preserve" text-anchor="middle" x="626.62" y="-192.5" font-family="Arial" font-size="10.00">Formatting</text>
</g>
<!-- central&#45;&gt;formatting -->
<g id="edge3" class="edge">
<title>central&#45;&gt;formatting</title>
<path fill="none" stroke="darkgray" stroke-width="1.5" d="M626.62,-255.22C626.62,-247.93 626.62,-240.03 626.62,-232.63"/>
<polygon fill="darkgray" stroke="darkgray" stroke-width="1.5" points="630.13,-232.74 626.63,-222.74 623.13,-232.74 630.13,-232.74"/>
</g>
<!-- userinput -->
<g id="node5" class="node">
<title>userinput</title>
<path fill="lightblue" stroke="black" d="M763.62,-220C763.62,-220 733.62,-220 733.62,-220 727.62,-220 721.62,-214 721.62,-208 721.62,-208 721.62,-196 721.62,-196 721.62,-190 727.62,-184 733.62,-184 733.62,-184 763.62,-184 763.62,-184 769.62,-184 775.62,-190 775.62,-196 775.62,-196 775.62,-208 775.62,-208 775.62,-214 769.62,-220 763.62,-220"/>
<text xml:space="preserve" text-anchor="middle" x="748.62" y="-204.5" font-family="Arial" font-size="10.00">User</text>
<text xml:space="preserve" text-anchor="middle" x="748.62" y="-192.5" font-family="Arial" font-size="10.00">Input</text>
</g>
<!-- central&#45;&gt;userinput -->
<g id="edge4" class="edge">
<title>central&#45;&gt;userinput</title>
<path fill="none" stroke="darkgray" stroke-width="1.5" d="M668.61,-255.22C682.67,-246.05 698.23,-235.89 711.86,-226.99"/>
<polygon fill="darkgray" stroke="darkgray" stroke-width="1.5" points="713.49,-230.11 719.95,-221.71 709.66,-224.25 713.49,-230.11"/>
</g>
<!-- business -->
<g id="node6" class="node">
<title>business</title>
<path fill="lightblue" stroke="black" d="M901.25,-220C901.25,-220 856,-220 856,-220 850,-220 844,-214 844,-208 844,-208 844,-196 844,-196 844,-190 850,-184 856,-184 856,-184 901.25,-184 901.25,-184 907.25,-184 913.25,-190 913.25,-196 913.25,-196 913.25,-208 913.25,-208 913.25,-214 907.25,-220 901.25,-220"/>
<text xml:space="preserve" text-anchor="middle" x="878.62" y="-204.5" font-family="Arial" font-size="10.00">Business</text>
<text xml:space="preserve" text-anchor="middle" x="878.62" y="-192.5" font-family="Arial" font-size="10.00">Applications</text>
</g>
<!-- central&#45;&gt;business -->
<g id="edge5" class="edge">
<title>central&#45;&gt;business</title>
<path fill="none" stroke="darkgray" stroke-width="1.5" d="M692.84,-261.7C736.71,-247.84 793.18,-230 832.29,-217.64"/>
<polygon fill="darkgray" stroke="darkgray" stroke-width="1.5" points="833.19,-221.03 841.67,-214.68 831.08,-214.35 833.19,-221.03"/>
</g>
<!-- basics -->
<g id="node7" class="node">
<title>basics</title>
<polygon fill="lightyellow" stroke="black" points="93.25,-142 0,-142 0,-98 99.25,-98 99.25,-136 93.25,-142"/>
<polyline fill="none" stroke="black" points="93.25,-142 93.25,-136"/>
<polyline fill="none" stroke="black" points="99.25,-136 93.25,-136"/>
<text xml:space="preserve" text-anchor="middle" x="49.62" y="-128.5" font-family="Arial" font-size="10.00">• Indexing [0]</text>
<text xml:space="preserve" text-anchor="middle" x="49.62" y="-116.5" font-family="Arial" font-size="10.00">• Slicing [start:end]</text>
<text xml:space="preserve" text-anchor="middle" x="49.62" y="-104.5" font-family="Arial" font-size="10.00">• len() function</text>
</g>
<!-- strings&#45;&gt;basics -->
<g id="edge6" class="edge">
<title>strings&#45;&gt;basics</title>
<path fill="none" stroke="darkgray" stroke-width="1.5" d="M139.67,-183.64C125.23,-173.59 106.7,-160.71 90.21,-149.24"/>
<polygon fill="darkgray" stroke="darkgray" stroke-width="1.5" points="92.34,-146.45 82.13,-143.61 88.34,-152.19 92.34,-146.45"/>
</g>
<!-- operations -->
<g id="node8" class="node">
<title>operations</title>
<polygon fill="lightyellow" stroke="black" points="206,-142 117.25,-142 117.25,-98 212,-98 212,-136 206,-142"/>
<polyline fill="none" stroke="black" points="206,-142 206,-136"/>
<polyline fill="none" stroke="black" points="212,-136 206,-136"/>
<text xml:space="preserve" text-anchor="middle" x="164.62" y="-128.5" font-family="Arial" font-size="10.00">• Concatenation +</text>
<text xml:space="preserve" text-anchor="middle" x="164.62" y="-116.5" font-family="Arial" font-size="10.00">• Repetition *</text>
<text xml:space="preserve" text-anchor="middle" x="164.62" y="-104.5" font-family="Arial" font-size="10.00">• in operator</text>
</g>
<!-- strings&#45;&gt;operations -->
<g id="edge7" class="edge">
<title>strings&#45;&gt;operations</title>
<path fill="none" stroke="darkgray" stroke-width="1.5" d="M164.62,-183.64C164.62,-175.11 164.62,-164.53 164.62,-154.51"/>
<polygon fill="darkgray" stroke="darkgray" stroke-width="1.5" points="168.13,-154.58 164.63,-144.58 161.13,-154.58 168.13,-154.58"/>
</g>
<!-- case -->
<g id="node9" class="node">
<title>case</title>
<path fill="lightcoral" stroke="black" d="M297.5,-138C297.5,-138 241.75,-138 241.75,-138 235.75,-138 229.75,-132 229.75,-126 229.75,-126 229.75,-114 229.75,-114 229.75,-108 235.75,-102 241.75,-102 241.75,-102 297.5,-102 297.5,-102 303.5,-102 309.5,-108 309.5,-114 309.5,-114 309.5,-126 309.5,-126 309.5,-132 303.5,-138 297.5,-138"/>
<text xml:space="preserve" text-anchor="middle" x="269.62" y="-116.5" font-family="Arial" font-size="10.00">Case Methods</text>
</g>
<!-- methods&#45;&gt;case -->
<g id="edge8" class="edge">
<title>methods&#45;&gt;case</title>
<path fill="none" stroke="darkgray" stroke-width="1.5" d="M391.4,-186.72C371.25,-176.12 343.17,-161.27 318.62,-148 316.3,-146.74 313.91,-145.45 311.51,-144.14"/>
<polygon fill="darkgray" stroke="darkgray" stroke-width="1.5" points="313.4,-141.18 302.94,-139.45 310.04,-147.32 313.4,-141.18"/>
</g>
<!-- cleaning -->
<g id="node10" class="node">
<title>cleaning</title>
<path fill="lightcoral" stroke="black" d="M393.75,-138C393.75,-138 339.5,-138 339.5,-138 333.5,-138 327.5,-132 327.5,-126 327.5,-126 327.5,-114 327.5,-114 327.5,-108 333.5,-102 339.5,-102 339.5,-102 393.75,-102 393.75,-102 399.75,-102 405.75,-108 405.75,-114 405.75,-114 405.75,-126 405.75,-126 405.75,-132 399.75,-138 393.75,-138"/>
<text xml:space="preserve" text-anchor="middle" x="366.62" y="-116.5" font-family="Arial" font-size="10.00">Data Cleaning</text>
</g>
<!-- methods&#45;&gt;cleaning -->
<g id="edge9" class="edge">
<title>methods&#45;&gt;cleaning</title>
<path fill="none" stroke="darkgray" stroke-width="1.5" d="M407.34,-183.64C400.66,-173.37 392.05,-160.12 384.47,-148.46"/>
<polygon fill="darkgray" stroke="darkgray" stroke-width="1.5" points="387.51,-146.71 379.12,-140.23 381.64,-150.52 387.51,-146.71"/>
</g>
<!-- search -->
<g id="node11" class="node">
<title>search</title>
<path fill="lightcoral" stroke="black" d="M507.38,-138C507.38,-138 435.88,-138 435.88,-138 429.88,-138 423.88,-132 423.88,-126 423.88,-126 423.88,-114 423.88,-114 423.88,-108 429.88,-102 435.88,-102 435.88,-102 507.38,-102 507.38,-102 513.38,-102 519.38,-108 519.38,-114 519.38,-114 519.38,-126 519.38,-126 519.38,-132 513.38,-138 507.38,-138"/>
<text xml:space="preserve" text-anchor="middle" x="471.62" y="-116.5" font-family="Arial" font-size="10.00">Search &amp; Replace</text>
</g>
<!-- methods&#45;&gt;search -->
<g id="edge10" class="edge">
<title>methods&#45;&gt;search</title>
<path fill="none" stroke="darkgray" stroke-width="1.5" d="M430.13,-183.64C436.93,-173.37 445.71,-160.12 453.43,-148.46"/>
<polygon fill="darkgray" stroke="darkgray" stroke-width="1.5" points="456.29,-150.49 458.89,-140.22 450.45,-146.62 456.29,-150.49"/>
</g>
<!-- fstrings -->
<g id="node15" class="node">
<title>fstrings</title>
<path fill="lightgreen" stroke="black" d="M613.62,-138C613.62,-138 549.62,-138 549.62,-138 543.62,-138 537.62,-132 537.62,-126 537.62,-126 537.62,-114 537.62,-114 537.62,-108 543.62,-102 549.62,-102 549.62,-102 613.62,-102 613.62,-102 619.62,-102 625.62,-108 625.62,-114 625.62,-114 625.62,-126 625.62,-126 625.62,-132 619.62,-138 613.62,-138"/>
<text xml:space="preserve" text-anchor="middle" x="581.62" y="-122.5" font-family="Arial" font-size="10.00">f&#45;strings</text>
<text xml:space="preserve" text-anchor="middle" x="581.62" y="-110.5" font-family="Arial" font-size="10.00">(Recommended)</text>
</g>
<!-- formatting&#45;&gt;fstrings -->
<g id="edge14" class="edge">
<title>formatting&#45;&gt;fstrings</title>
<path fill="none" stroke="darkgray" stroke-width="1.5" d="M616.86,-183.64C611.14,-173.47 603.78,-160.39 597.27,-148.82"/>
<polygon fill="darkgray" stroke="darkgray" stroke-width="1.5" points="600.44,-147.3 592.48,-140.3 594.34,-150.74 600.44,-147.3"/>
</g>
<!-- format_spec -->
<g id="node16" class="node">
<title>format_spec</title>
<path fill="lightgreen" stroke="black" d="M691.38,-138C691.38,-138 655.88,-138 655.88,-138 649.88,-138 643.88,-132 643.88,-126 643.88,-126 643.88,-114 643.88,-114 643.88,-108 649.88,-102 655.88,-102 655.88,-102 691.38,-102 691.38,-102 697.38,-102 703.38,-108 703.38,-114 703.38,-114 703.38,-126 703.38,-126 703.38,-132 697.38,-138 691.38,-138"/>
<text xml:space="preserve" text-anchor="middle" x="673.62" y="-122.5" font-family="Arial" font-size="10.00">Format</text>
<text xml:space="preserve" text-anchor="middle" x="673.62" y="-110.5" font-family="Arial" font-size="10.00">Specifiers</text>
</g>
<!-- formatting&#45;&gt;format_spec -->
<g id="edge15" class="edge">
<title>formatting&#45;&gt;format_spec</title>
<path fill="none" stroke="darkgray" stroke-width="1.5" d="M636.82,-183.64C642.8,-173.47 650.48,-160.39 657.28,-148.82"/>
<polygon fill="darkgray" stroke="darkgray" stroke-width="1.5" points="660.25,-150.68 662.3,-140.28 654.21,-147.13 660.25,-150.68"/>
</g>
<!-- input_func -->
<g id="node18" class="node">
<title>input_func</title>
<path fill="lightgreen" stroke="black" d="M763.62,-138C763.62,-138 733.62,-138 733.62,-138 727.62,-138 721.62,-132 721.62,-126 721.62,-126 721.62,-114 721.62,-114 721.62,-108 727.62,-102 733.62,-102 733.62,-102 763.62,-102 763.62,-102 769.62,-102 775.62,-108 775.62,-114 775.62,-114 775.62,-126 775.62,-126 775.62,-132 769.62,-138 763.62,-138"/>
<text xml:space="preserve" text-anchor="middle" x="748.62" y="-122.5" font-family="Arial" font-size="10.00">input()</text>
<text xml:space="preserve" text-anchor="middle" x="748.62" y="-110.5" font-family="Arial" font-size="10.00">Function</text>
</g>
<!-- userinput&#45;&gt;input_func -->
<g id="edge17" class="edge">
<title>userinput&#45;&gt;input_func</title>
<path fill="none" stroke="darkgray" stroke-width="1.5" d="M748.62,-183.64C748.62,-173.89 748.62,-161.47 748.62,-150.26"/>
<polygon fill="darkgray" stroke="darkgray" stroke-width="1.5" points="752.13,-150.6 748.63,-140.6 745.13,-150.6 752.13,-150.6"/>
</g>
<!-- conversion -->
<g id="node19" class="node">
<title>conversion</title>
<path fill="lightgreen" stroke="black" d="M847.38,-138C847.38,-138 805.88,-138 805.88,-138 799.88,-138 793.88,-132 793.88,-126 793.88,-126 793.88,-114 793.88,-114 793.88,-108 799.88,-102 805.88,-102 805.88,-102 847.38,-102 847.38,-102 853.38,-102 859.38,-108 859.38,-114 859.38,-114 859.38,-126 859.38,-126 859.38,-132 853.38,-138 847.38,-138"/>
<text xml:space="preserve" text-anchor="middle" x="826.62" y="-122.5" font-family="Arial" font-size="10.00">Type</text>
<text xml:space="preserve" text-anchor="middle" x="826.62" y="-110.5" font-family="Arial" font-size="10.00">Conversion</text>
</g>
<!-- userinput&#45;&gt;conversion -->
<g id="edge18" class="edge">
<title>userinput&#45;&gt;conversion</title>
<path fill="none" stroke="darkgray" stroke-width="1.5" d="M765.55,-183.64C775.98,-172.95 789.54,-159.04 801.24,-147.04"/>
<polygon fill="darkgray" stroke="darkgray" stroke-width="1.5" points="803.67,-149.55 808.15,-139.95 798.66,-144.67 803.67,-149.55"/>
</g>
<!-- reports -->
<g id="node22" class="node">
<title>reports</title>
<polygon fill="lightyellow" stroke="black" points="973.75,-148 877.5,-148 877.5,-92 979.75,-92 979.75,-142 973.75,-148"/>
<polyline fill="none" stroke="black" points="973.75,-148 973.75,-142"/>
<polyline fill="none" stroke="black" points="979.75,-142 973.75,-142"/>
<text xml:space="preserve" text-anchor="middle" x="928.62" y="-134.5" font-family="Arial" font-size="10.00">• Report Generation</text>
<text xml:space="preserve" text-anchor="middle" x="928.62" y="-122.5" font-family="Arial" font-size="10.00">• Invoice Creation</text>
<text xml:space="preserve" text-anchor="middle" x="928.62" y="-110.5" font-family="Arial" font-size="10.00">• Data Cleaning</text>
<text xml:space="preserve" text-anchor="middle" x="928.62" y="-98.5" font-family="Arial" font-size="10.00">• User Interfaces</text>
</g>
<!-- business&#45;&gt;reports -->
<g id="edge21" class="edge">
<title>business&#45;&gt;reports</title>
<path fill="none" stroke="darkgray" stroke-width="1.5" d="M889.47,-183.64C894.1,-176.24 899.69,-167.3 905.17,-158.52"/>
<polygon fill="darkgray" stroke="darkgray" stroke-width="1.5" points="907.97,-160.65 910.3,-150.32 902.03,-156.94 907.97,-160.65"/>
</g>
<!-- case_details -->
<g id="node12" class="node">
<title>case_details</title>
<polygon fill="lightyellow" stroke="black" points="300.12,-56 233.12,-56 233.12,0 306.12,0 306.12,-50 300.12,-56"/>
<polyline fill="none" stroke="black" points="300.12,-56 300.12,-50"/>
<polyline fill="none" stroke="black" points="306.12,-50 300.12,-50"/>
<text xml:space="preserve" text-anchor="middle" x="269.62" y="-42.5" font-family="Arial" font-size="10.00">• .upper()</text>
<text xml:space="preserve" text-anchor="middle" x="269.62" y="-30.5" font-family="Arial" font-size="10.00">• .lower()</text>
<text xml:space="preserve" text-anchor="middle" x="269.62" y="-18.5" font-family="Arial" font-size="10.00">• .title()</text>
<text xml:space="preserve" text-anchor="middle" x="269.62" y="-6.5" font-family="Arial" font-size="10.00">• .capitalize()</text>
</g>
<!-- case&#45;&gt;case_details -->
<g id="edge11" class="edge">
<title>case&#45;&gt;case_details</title>
<path fill="none" stroke="darkgray" stroke-width="1.5" d="M269.62,-101.65C269.62,-92.19 269.62,-80.08 269.62,-68.47"/>
<polygon fill="darkgray" stroke="darkgray" stroke-width="1.5" points="273.13,-68.49 269.63,-58.49 266.13,-68.49 273.13,-68.49"/>
</g>
<!-- clean_details -->
<g id="node13" class="node">
<title>clean_details</title>
<polygon fill="lightyellow" stroke="black" points="392.25,-56 335,-56 335,0 398.25,0 398.25,-50 392.25,-56"/>
<polyline fill="none" stroke="black" points="392.25,-56 392.25,-50"/>
<polyline fill="none" stroke="black" points="398.25,-50 392.25,-50"/>
<text xml:space="preserve" text-anchor="middle" x="366.62" y="-42.5" font-family="Arial" font-size="10.00">• .strip()</text>
<text xml:space="preserve" text-anchor="middle" x="366.62" y="-30.5" font-family="Arial" font-size="10.00">• .split()</text>
<text xml:space="preserve" text-anchor="middle" x="366.62" y="-18.5" font-family="Arial" font-size="10.00">• .join()</text>
<text xml:space="preserve" text-anchor="middle" x="366.62" y="-6.5" font-family="Arial" font-size="10.00">• .replace()</text>
</g>
<!-- cleaning&#45;&gt;clean_details -->
<g id="edge12" class="edge">
<title>cleaning&#45;&gt;clean_details</title>
<path fill="none" stroke="darkgray" stroke-width="1.5" d="M366.62,-101.65C366.62,-92.19 366.62,-80.08 366.62,-68.47"/>
<polygon fill="darkgray" stroke="darkgray" stroke-width="1.5" points="370.13,-68.49 366.63,-58.49 363.13,-68.49 370.13,-68.49"/>
</g>
<!-- search_details -->
<g id="node14" class="node">
<title>search_details</title>
<polygon fill="lightyellow" stroke="black" points="502.88,-56 434.38,-56 434.38,0 508.88,0 508.88,-50 502.88,-56"/>
<polyline fill="none" stroke="black" points="502.88,-56 502.88,-50"/>
<polyline fill="none" stroke="black" points="508.88,-50 502.88,-50"/>
<text xml:space="preserve" text-anchor="middle" x="471.62" y="-42.5" font-family="Arial" font-size="10.00">• .find()</text>
<text xml:space="preserve" text-anchor="middle" x="471.62" y="-30.5" font-family="Arial" font-size="10.00">• .count()</text>
<text xml:space="preserve" text-anchor="middle" x="471.62" y="-18.5" font-family="Arial" font-size="10.00">• .startswith()</text>
<text xml:space="preserve" text-anchor="middle" x="471.62" y="-6.5" font-family="Arial" font-size="10.00">• .endswith()</text>
</g>
<!-- search&#45;&gt;search_details -->
<g id="edge13" class="edge">
<title>search&#45;&gt;search_details</title>
<path fill="none" stroke="darkgray" stroke-width="1.5" d="M471.62,-101.65C471.62,-92.19 471.62,-80.08 471.62,-68.47"/>
<polygon fill="darkgray" stroke="darkgray" stroke-width="1.5" points="475.13,-68.49 471.63,-58.49 468.13,-68.49 475.13,-68.49"/>
</g>
<!-- fstring_ex -->
<g id="node17" class="node">
<title>fstring_ex</title>
<polygon fill="lightyellow" stroke="black" points="610.62,-50 546.62,-50 546.62,-6 616.62,-6 616.62,-44 610.62,-50"/>
<polyline fill="none" stroke="black" points="610.62,-50 610.62,-44"/>
<polyline fill="none" stroke="black" points="616.62,-44 610.62,-44"/>
<text xml:space="preserve" text-anchor="middle" x="581.62" y="-36.5" font-family="Arial" font-size="10.00">f&quot;{variable}&quot;</text>
<text xml:space="preserve" text-anchor="middle" x="581.62" y="-24.5" font-family="Arial" font-size="10.00">f&quot;{value:.2f}&quot;</text>
<text xml:space="preserve" text-anchor="middle" x="581.62" y="-12.5" font-family="Arial" font-size="10.00">f&quot;{text:&gt;10}&quot;</text>
</g>
<!-- fstrings&#45;&gt;fstring_ex -->
<g id="edge16" class="edge">
<title>fstrings&#45;&gt;fstring_ex</title>
<path fill="none" stroke="darkgray" stroke-width="1.5" d="M581.62,-101.65C581.62,-90.58 581.62,-75.86 581.62,-62.57"/>
<polygon fill="darkgray" stroke="darkgray" stroke-width="1.5" points="585.13,-62.7 581.63,-52.7 578.13,-62.7 585.13,-62.7"/>
</g>
<!-- input_details -->
<g id="node20" class="node">
<title>input_details</title>
<polygon fill="lightyellow" stroke="black" points="775.75,-50 667.5,-50 667.5,-6 781.75,-6 781.75,-44 775.75,-50"/>
<polyline fill="none" stroke="black" points="775.75,-50 775.75,-44"/>
<polyline fill="none" stroke="black" points="781.75,-44 775.75,-44"/>
<text xml:space="preserve" text-anchor="middle" x="724.62" y="-36.5" font-family="Arial" font-size="10.00">• Always returns string</text>
<text xml:space="preserve" text-anchor="middle" x="724.62" y="-24.5" font-family="Arial" font-size="10.00">• Prompt message</text>
<text xml:space="preserve" text-anchor="middle" x="724.62" y="-12.5" font-family="Arial" font-size="10.00">• Waits for Enter</text>
</g>
<!-- input_func&#45;&gt;input_details -->
<g id="edge19" class="edge">
<title>input_func&#45;&gt;input_details</title>
<path fill="none" stroke="darkgray" stroke-width="1.5" d="M744,-101.65C741.01,-90.46 737.04,-75.56 733.47,-62.16"/>
<polygon fill="darkgray" stroke="darkgray" stroke-width="1.5" points="736.88,-61.38 730.92,-52.62 730.12,-63.19 736.88,-61.38"/>
</g>
<!-- convert_details -->
<g id="node21" class="node">
<title>convert_details</title>
<polygon fill="lightyellow" stroke="black" points="893.25,-50 800,-50 800,-6 899.25,-6 899.25,-44 893.25,-50"/>
<polyline fill="none" stroke="black" points="893.25,-50 893.25,-44"/>
<polyline fill="none" stroke="black" points="899.25,-44 893.25,-44"/>
<text xml:space="preserve" text-anchor="middle" x="849.62" y="-36.5" font-family="Arial" font-size="10.00">• int(input())</text>
<text xml:space="preserve" text-anchor="middle" x="849.62" y="-24.5" font-family="Arial" font-size="10.00">• float(input())</text>
<text xml:space="preserve" text-anchor="middle" x="849.62" y="-12.5" font-family="Arial" font-size="10.00">• Validation needed</text>
</g>
<!-- conversion&#45;&gt;convert_details -->
<g id="edge20" class="edge">
<title>conversion&#45;&gt;convert_details</title>
<path fill="none" stroke="darkgray" stroke-width="1.5" d="M831.06,-101.65C833.92,-90.46 837.73,-75.56 841.15,-62.16"/>
<polygon fill="darkgray" stroke="darkgray" stroke-width="1.5" points="844.5,-63.18 843.59,-52.63 837.72,-61.45 844.5,-63.18"/>
</g>
</g>
</svg>
