<?xml version="1.0" encoding="UTF-8" standalone="no"?>
<!DOCTYPE svg PUBLIC "-//W3C//DTD SVG 1.1//EN"
 "http://www.w3.org/Graphics/SVG/1.1/DTD/svg11.dtd">
<!-- Generated by graphviz version 13.1.0 (20250701.0955)
 -->
<!-- Title: Module7_MindMap Pages: 1 -->
<svg width="812pt" height="227pt"
 viewBox="0.00 0.00 812.00 227.00" xmlns="http://www.w3.org/2000/svg" xmlns:xlink="http://www.w3.org/1999/xlink">
<g id="graph0" class="graph" transform="scale(1 1) rotate(0) translate(4 223.25)">
<title>Module7_MindMap</title>
<polygon fill="white" stroke="none" points="-4,4 -4,-223.25 808.12,-223.25 808.12,4 -4,4"/>
<!-- central -->
<g id="node1" class="node">
<title>central</title>
<path fill="darkblue" stroke="black" stroke-width="2" d="M484.88,-219.25C484.88,-219.25 432.88,-219.25 432.88,-219.25 426.88,-219.25 420.88,-213.25 420.88,-207.25 420.88,-207.25 420.88,-176 420.88,-176 420.88,-170 426.88,-164 432.88,-164 432.88,-164 484.88,-164 484.88,-164 490.88,-164 496.88,-170 496.88,-176 496.88,-176 496.88,-207.25 496.88,-207.25 496.88,-213.25 490.88,-219.25 484.88,-219.25"/>
<text xml:space="preserve" text-anchor="middle" x="458.88" y="-201.95" font-family="Arial" font-size="14.00" fill="white">Module 7:</text>
<text xml:space="preserve" text-anchor="middle" x="458.88" y="-186.2" font-family="Arial" font-size="14.00" fill="white">Loops &amp;</text>
<text xml:space="preserve" text-anchor="middle" x="458.88" y="-170.45" font-family="Arial" font-size="14.00" fill="white">Iteration</text>
</g>
<!-- for_loops -->
<g id="node2" class="node">
<title>for_loops</title>
<path fill="lightblue" stroke="black" d="M169.88,-128C169.88,-128 139.88,-128 139.88,-128 133.88,-128 127.88,-122 127.88,-116 127.88,-116 127.88,-104 127.88,-104 127.88,-98 133.88,-92 139.88,-92 139.88,-92 169.88,-92 169.88,-92 175.88,-92 181.88,-98 181.88,-104 181.88,-104 181.88,-116 181.88,-116 181.88,-122 175.88,-128 169.88,-128"/>
<text xml:space="preserve" text-anchor="middle" x="154.88" y="-112.5" font-family="Arial" font-size="10.00">for</text>
<text xml:space="preserve" text-anchor="middle" x="154.88" y="-100.5" font-family="Arial" font-size="10.00">Loops</text>
</g>
<!-- central&#45;&gt;for_loops -->
<g id="edge1" class="edge">
<title>central&#45;&gt;for_loops</title>
<path fill="none" stroke="darkgray" stroke-width="1.5" d="M420.06,-180.46C361.78,-165.19 252.28,-136.51 193.89,-121.22"/>
<polygon fill="darkgray" stroke="darkgray" stroke-width="1.5" points="194.99,-117.89 184.43,-118.74 193.22,-124.66 194.99,-117.89"/>
</g>
<!-- while_loops -->
<g id="node3" class="node">
<title>while_loops</title>
<path fill="lightblue" stroke="black" d="M367.88,-128C367.88,-128 337.88,-128 337.88,-128 331.88,-128 325.88,-122 325.88,-116 325.88,-116 325.88,-104 325.88,-104 325.88,-98 331.88,-92 337.88,-92 337.88,-92 367.88,-92 367.88,-92 373.88,-92 379.88,-98 379.88,-104 379.88,-104 379.88,-116 379.88,-116 379.88,-122 373.88,-128 367.88,-128"/>
<text xml:space="preserve" text-anchor="middle" x="352.88" y="-112.5" font-family="Arial" font-size="10.00">while</text>
<text xml:space="preserve" text-anchor="middle" x="352.88" y="-100.5" font-family="Arial" font-size="10.00">Loops</text>
</g>
<!-- central&#45;&gt;while_loops -->
<g id="edge2" class="edge">
<title>central&#45;&gt;while_loops</title>
<path fill="none" stroke="darkgray" stroke-width="1.5" d="M422.4,-163.22C410.54,-154.32 397.45,-144.49 385.87,-135.78"/>
<polygon fill="darkgray" stroke="darkgray" stroke-width="1.5" points="388.05,-133.05 377.95,-129.84 383.85,-138.64 388.05,-133.05"/>
</g>
<!-- loop_control -->
<g id="node4" class="node">
<title>loop_control</title>
<path fill="lightblue" stroke="black" d="M473.88,-128C473.88,-128 443.88,-128 443.88,-128 437.88,-128 431.88,-122 431.88,-116 431.88,-116 431.88,-104 431.88,-104 431.88,-98 437.88,-92 443.88,-92 443.88,-92 473.88,-92 473.88,-92 479.88,-92 485.88,-98 485.88,-104 485.88,-104 485.88,-116 485.88,-116 485.88,-122 479.88,-128 473.88,-128"/>
<text xml:space="preserve" text-anchor="middle" x="458.88" y="-112.5" font-family="Arial" font-size="10.00">Loop</text>
<text xml:space="preserve" text-anchor="middle" x="458.88" y="-100.5" font-family="Arial" font-size="10.00">Control</text>
</g>
<!-- central&#45;&gt;loop_control -->
<g id="edge3" class="edge">
<title>central&#45;&gt;loop_control</title>
<path fill="none" stroke="darkgray" stroke-width="1.5" d="M458.88,-163.22C458.88,-155.93 458.88,-148.03 458.88,-140.63"/>
<polygon fill="darkgray" stroke="darkgray" stroke-width="1.5" points="462.38,-140.74 458.88,-130.74 455.38,-140.74 462.38,-140.74"/>
</g>
<!-- nested_loops -->
<g id="node5" class="node">
<title>nested_loops</title>
<path fill="lightblue" stroke="black" d="M578.88,-128C578.88,-128 548.88,-128 548.88,-128 542.88,-128 536.88,-122 536.88,-116 536.88,-116 536.88,-104 536.88,-104 536.88,-98 542.88,-92 548.88,-92 548.88,-92 578.88,-92 578.88,-92 584.88,-92 590.88,-98 590.88,-104 590.88,-104 590.88,-116 590.88,-116 590.88,-122 584.88,-128 578.88,-128"/>
<text xml:space="preserve" text-anchor="middle" x="563.88" y="-112.5" font-family="Arial" font-size="10.00">Nested</text>
<text xml:space="preserve" text-anchor="middle" x="563.88" y="-100.5" font-family="Arial" font-size="10.00">Loops</text>
</g>
<!-- central&#45;&gt;nested_loops -->
<g id="edge4" class="edge">
<title>central&#45;&gt;nested_loops</title>
<path fill="none" stroke="darkgray" stroke-width="1.5" d="M495.01,-163.22C506.76,-154.32 519.72,-144.49 531.19,-135.78"/>
<polygon fill="darkgray" stroke="darkgray" stroke-width="1.5" points="533.17,-138.68 539.02,-129.85 528.94,-133.1 533.17,-138.68"/>
</g>
<!-- applications -->
<g id="node6" class="node">
<title>applications</title>
<path fill="lightblue" stroke="black" d="M715.5,-128C715.5,-128 670.25,-128 670.25,-128 664.25,-128 658.25,-122 658.25,-116 658.25,-116 658.25,-104 658.25,-104 658.25,-98 664.25,-92 670.25,-92 670.25,-92 715.5,-92 715.5,-92 721.5,-92 727.5,-98 727.5,-104 727.5,-104 727.5,-116 727.5,-116 727.5,-122 721.5,-128 715.5,-128"/>
<text xml:space="preserve" text-anchor="middle" x="692.88" y="-112.5" font-family="Arial" font-size="10.00">Business</text>
<text xml:space="preserve" text-anchor="middle" x="692.88" y="-100.5" font-family="Arial" font-size="10.00">Applications</text>
</g>
<!-- central&#45;&gt;applications -->
<g id="edge5" class="edge">
<title>central&#45;&gt;applications</title>
<path fill="none" stroke="darkgray" stroke-width="1.5" d="M497.78,-177.39C538.73,-163.45 603.17,-141.52 646.68,-126.72"/>
<polygon fill="darkgray" stroke="darkgray" stroke-width="1.5" points="647.59,-130.1 655.93,-123.57 645.34,-123.48 647.59,-130.1"/>
</g>
<!-- for_concepts -->
<g id="node7" class="node">
<title>for_concepts</title>
<polygon fill="lightyellow" stroke="black" points="103.75,-56 0,-56 0,0 109.75,0 109.75,-50 103.75,-56"/>
<polyline fill="none" stroke="black" points="103.75,-56 103.75,-50"/>
<polyline fill="none" stroke="black" points="109.75,-50 103.75,-50"/>
<text xml:space="preserve" text-anchor="middle" x="54.88" y="-42.5" font-family="Arial" font-size="10.00">• Iterating Sequences</text>
<text xml:space="preserve" text-anchor="middle" x="54.88" y="-30.5" font-family="Arial" font-size="10.00">• range() Function</text>
<text xml:space="preserve" text-anchor="middle" x="54.88" y="-18.5" font-family="Arial" font-size="10.00">• Loop Counters</text>
<text xml:space="preserve" text-anchor="middle" x="54.88" y="-6.5" font-family="Arial" font-size="10.00">• Accumulators</text>
</g>
<!-- for_loops&#45;&gt;for_concepts -->
<g id="edge6" class="edge">
<title>for_loops&#45;&gt;for_concepts</title>
<path fill="none" stroke="darkgray" stroke-width="1.5" d="M133.18,-91.64C123.02,-83.52 110.55,-73.54 98.57,-63.95"/>
<polygon fill="darkgray" stroke="darkgray" stroke-width="1.5" points="100.88,-61.32 90.89,-57.81 96.51,-66.79 100.88,-61.32"/>
</g>
<!-- definite -->
<g id="node8" class="node">
<title>definite</title>
<path fill="lightgreen" stroke="black" d="M169.88,-46C169.88,-46 139.88,-46 139.88,-46 133.88,-46 127.88,-40 127.88,-34 127.88,-34 127.88,-22 127.88,-22 127.88,-16 133.88,-10 139.88,-10 139.88,-10 169.88,-10 169.88,-10 175.88,-10 181.88,-16 181.88,-22 181.88,-22 181.88,-34 181.88,-34 181.88,-40 175.88,-46 169.88,-46"/>
<text xml:space="preserve" text-anchor="middle" x="154.88" y="-30.5" font-family="Arial" font-size="10.00">Definite</text>
<text xml:space="preserve" text-anchor="middle" x="154.88" y="-18.5" font-family="Arial" font-size="10.00">Iteration</text>
</g>
<!-- for_loops&#45;&gt;definite -->
<g id="edge7" class="edge">
<title>for_loops&#45;&gt;definite</title>
<path fill="none" stroke="darkgray" stroke-width="1.5" d="M154.88,-91.64C154.88,-81.89 154.88,-69.47 154.88,-58.26"/>
<polygon fill="darkgray" stroke="darkgray" stroke-width="1.5" points="158.38,-58.6 154.88,-48.6 151.38,-58.6 158.38,-58.6"/>
</g>
<!-- while_concepts -->
<g id="node9" class="node">
<title>while_concepts</title>
<polygon fill="lightyellow" stroke="black" points="294.25,-50 199.5,-50 199.5,-6 300.25,-6 300.25,-44 294.25,-50"/>
<polyline fill="none" stroke="black" points="294.25,-50 294.25,-44"/>
<polyline fill="none" stroke="black" points="300.25,-44 294.25,-44"/>
<text xml:space="preserve" text-anchor="middle" x="249.88" y="-36.5" font-family="Arial" font-size="10.00">• Condition&#45;Based</text>
<text xml:space="preserve" text-anchor="middle" x="249.88" y="-24.5" font-family="Arial" font-size="10.00">• Exit Conditions</text>
<text xml:space="preserve" text-anchor="middle" x="249.88" y="-12.5" font-family="Arial" font-size="10.00">• Indefinite Iteration</text>
</g>
<!-- while_loops&#45;&gt;while_concepts -->
<g id="edge8" class="edge">
<title>while_loops&#45;&gt;while_concepts</title>
<path fill="none" stroke="darkgray" stroke-width="1.5" d="M330.53,-91.64C317.71,-81.69 301.31,-68.95 286.65,-57.56"/>
<polygon fill="darkgray" stroke="darkgray" stroke-width="1.5" points="289.15,-55.08 279.11,-51.71 284.86,-60.6 289.15,-55.08"/>
</g>
<!-- infinite_risk -->
<g id="node10" class="node">
<title>infinite_risk</title>
<path fill="lightcoral" stroke="black" d="M375.5,-46C375.5,-46 330.25,-46 330.25,-46 324.25,-46 318.25,-40 318.25,-34 318.25,-34 318.25,-22 318.25,-22 318.25,-16 324.25,-10 330.25,-10 330.25,-10 375.5,-10 375.5,-10 381.5,-10 387.5,-16 387.5,-22 387.5,-22 387.5,-34 387.5,-34 387.5,-40 381.5,-46 375.5,-46"/>
<text xml:space="preserve" text-anchor="middle" x="352.88" y="-30.5" font-family="Arial" font-size="10.00">Infinite Loop</text>
<text xml:space="preserve" text-anchor="middle" x="352.88" y="-18.5" font-family="Arial" font-size="10.00">Risk</text>
</g>
<!-- while_loops&#45;&gt;infinite_risk -->
<g id="edge9" class="edge">
<title>while_loops&#45;&gt;infinite_risk</title>
<path fill="none" stroke="darkgray" stroke-width="1.5" d="M352.88,-91.64C352.88,-81.89 352.88,-69.47 352.88,-58.26"/>
<polygon fill="darkgray" stroke="darkgray" stroke-width="1.5" points="356.38,-58.6 352.88,-48.6 349.38,-58.6 356.38,-58.6"/>
</g>
<!-- control_statements -->
<g id="node11" class="node">
<title>control_statements</title>
<polygon fill="lightyellow" stroke="black" points="506.62,-50 405.12,-50 405.12,-6 512.62,-6 512.62,-44 506.62,-50"/>
<polyline fill="none" stroke="black" points="506.62,-50 506.62,-44"/>
<polyline fill="none" stroke="black" points="512.62,-44 506.62,-44"/>
<text xml:space="preserve" text-anchor="middle" x="458.88" y="-36.5" font-family="Arial" font-size="10.00">• break Statement</text>
<text xml:space="preserve" text-anchor="middle" x="458.88" y="-24.5" font-family="Arial" font-size="10.00">• continue Statement</text>
<text xml:space="preserve" text-anchor="middle" x="458.88" y="-12.5" font-family="Arial" font-size="10.00">• Early Loop Exit</text>
</g>
<!-- loop_control&#45;&gt;control_statements -->
<g id="edge10" class="edge">
<title>loop_control&#45;&gt;control_statements</title>
<path fill="none" stroke="darkgray" stroke-width="1.5" d="M458.88,-91.64C458.88,-83.11 458.88,-72.53 458.88,-62.51"/>
<polygon fill="darkgray" stroke="darkgray" stroke-width="1.5" points="462.38,-62.58 458.88,-52.58 455.38,-62.58 462.38,-62.58"/>
</g>
<!-- nested_concepts -->
<g id="node12" class="node">
<title>nested_concepts</title>
<polygon fill="lightyellow" stroke="black" points="657.38,-50 530.38,-50 530.38,-6 663.38,-6 663.38,-44 657.38,-50"/>
<polyline fill="none" stroke="black" points="657.38,-50 657.38,-44"/>
<polyline fill="none" stroke="black" points="663.38,-44 657.38,-44"/>
<text xml:space="preserve" text-anchor="middle" x="596.88" y="-36.5" font-family="Arial" font-size="10.00">• Loops Within Loops</text>
<text xml:space="preserve" text-anchor="middle" x="596.88" y="-24.5" font-family="Arial" font-size="10.00">• Matrix Operations</text>
<text xml:space="preserve" text-anchor="middle" x="596.88" y="-12.5" font-family="Arial" font-size="10.00">• Generating Combinations</text>
</g>
<!-- nested_loops&#45;&gt;nested_concepts -->
<g id="edge11" class="edge">
<title>nested_loops&#45;&gt;nested_concepts</title>
<path fill="none" stroke="darkgray" stroke-width="1.5" d="M571.04,-91.64C574.67,-82.83 579.21,-71.82 583.46,-61.51"/>
<polygon fill="darkgray" stroke="darkgray" stroke-width="1.5" points="586.64,-62.99 587.22,-52.41 580.17,-60.32 586.64,-62.99"/>
</g>
<!-- app_examples -->
<g id="node13" class="node">
<title>app_examples</title>
<polygon fill="lightyellow" stroke="black" points="798.12,-56 681.62,-56 681.62,0 804.12,0 804.12,-50 798.12,-56"/>
<polyline fill="none" stroke="black" points="798.12,-56 798.12,-50"/>
<polyline fill="none" stroke="black" points="804.12,-50 798.12,-50"/>
<text xml:space="preserve" text-anchor="middle" x="742.88" y="-42.5" font-family="Arial" font-size="10.00">• Sales Analysis</text>
<text xml:space="preserve" text-anchor="middle" x="742.88" y="-30.5" font-family="Arial" font-size="10.00">• Financial Modeling</text>
<text xml:space="preserve" text-anchor="middle" x="742.88" y="-18.5" font-family="Arial" font-size="10.00">• Inventory Management</text>
<text xml:space="preserve" text-anchor="middle" x="742.88" y="-6.5" font-family="Arial" font-size="10.00">• Data Processing</text>
</g>
<!-- applications&#45;&gt;app_examples -->
<g id="edge12" class="edge">
<title>applications&#45;&gt;app_examples</title>
<path fill="none" stroke="darkgray" stroke-width="1.5" d="M703.72,-91.64C708.35,-84.24 713.94,-75.3 719.42,-66.52"/>
<polygon fill="darkgray" stroke="darkgray" stroke-width="1.5" points="722.22,-68.65 724.55,-58.32 716.28,-64.94 722.22,-68.65"/>
</g>
</g>
</svg>
