<?xml version="1.0" encoding="UTF-8" standalone="no"?>
<!DOCTYPE svg PUBLIC "-//W3C//DTD SVG 1.1//EN"
 "http://www.w3.org/Graphics/SVG/1.1/DTD/svg11.dtd">
<!-- Generated by graphviz version 13.1.0 (20250701.0955)
 -->
<!-- Title: Module10_MindMap Pages: 1 -->
<svg width="1208pt" height="215pt"
 viewBox="0.00 0.00 1208.00 215.00" xmlns="http://www.w3.org/2000/svg" xmlns:xlink="http://www.w3.org/1999/xlink">
<g id="graph0" class="graph" transform="scale(1 1) rotate(0) translate(4 211.25)">
<title>Module10_MindMap</title>
<polygon fill="white" stroke="none" points="-4,4 -4,-211.25 1204.12,-211.25 1204.12,4 -4,4"/>
<!-- central -->
<g id="node1" class="node">
<title>central</title>
<path fill="darkblue" stroke="black" stroke-width="2" d="M621.62,-207.25C621.62,-207.25 520.12,-207.25 520.12,-207.25 514.12,-207.25 508.12,-201.25 508.12,-195.25 508.12,-195.25 508.12,-164 508.12,-164 508.12,-158 514.12,-152 520.12,-152 520.12,-152 621.62,-152 621.62,-152 627.62,-152 633.62,-158 633.62,-164 633.62,-164 633.62,-195.25 633.62,-195.25 633.62,-201.25 627.62,-207.25 621.62,-207.25"/>
<text xml:space="preserve" text-anchor="middle" x="570.88" y="-189.95" font-family="Arial" font-size="14.00" fill="white">Module 10:</text>
<text xml:space="preserve" text-anchor="middle" x="570.88" y="-174.2" font-family="Arial" font-size="14.00" fill="white">Data Manipulation</text>
<text xml:space="preserve" text-anchor="middle" x="570.88" y="-158.45" font-family="Arial" font-size="14.00" fill="white">&amp; Cleaning</text>
</g>
<!-- missing -->
<g id="node2" class="node">
<title>missing</title>
<path fill="lightblue" stroke="black" d="M187.75,-116C187.75,-116 138,-116 138,-116 132,-116 126,-110 126,-104 126,-104 126,-92 126,-92 126,-86 132,-80 138,-80 138,-80 187.75,-80 187.75,-80 193.75,-80 199.75,-86 199.75,-92 199.75,-92 199.75,-104 199.75,-104 199.75,-110 193.75,-116 187.75,-116"/>
<text xml:space="preserve" text-anchor="middle" x="162.88" y="-100.5" font-family="Arial" font-size="10.00">Handling</text>
<text xml:space="preserve" text-anchor="middle" x="162.88" y="-88.5" font-family="Arial" font-size="10.00">Missing Data</text>
</g>
<!-- central&#45;&gt;missing -->
<g id="edge1" class="edge">
<title>central&#45;&gt;missing</title>
<path fill="none" stroke="darkgray" stroke-width="1.5" d="M507.12,-166.18C425.39,-150.23 285.43,-122.92 211.67,-108.52"/>
<polygon fill="darkgray" stroke="darkgray" stroke-width="1.5" points="212.7,-105.16 202.21,-106.68 211.36,-112.03 212.7,-105.16"/>
</g>
<!-- types -->
<g id="node3" class="node">
<title>types</title>
<path fill="lightblue" stroke="black" d="M420.62,-116C420.62,-116 379.12,-116 379.12,-116 373.12,-116 367.12,-110 367.12,-104 367.12,-104 367.12,-92 367.12,-92 367.12,-86 373.12,-80 379.12,-80 379.12,-80 420.62,-80 420.62,-80 426.62,-80 432.62,-86 432.62,-92 432.62,-92 432.62,-104 432.62,-104 432.62,-110 426.62,-116 420.62,-116"/>
<text xml:space="preserve" text-anchor="middle" x="399.88" y="-100.5" font-family="Arial" font-size="10.00">Data Type</text>
<text xml:space="preserve" text-anchor="middle" x="399.88" y="-88.5" font-family="Arial" font-size="10.00">Conversion</text>
</g>
<!-- central&#45;&gt;types -->
<g id="edge2" class="edge">
<title>central&#45;&gt;types</title>
<path fill="none" stroke="darkgray" stroke-width="1.5" d="M512.03,-151.22C489.69,-140.82 464.66,-129.17 443.92,-119.51"/>
<polygon fill="darkgray" stroke="darkgray" stroke-width="1.5" points="445.49,-116.38 434.94,-115.33 442.53,-122.72 445.49,-116.38"/>
</g>
<!-- structure -->
<g id="node4" class="node">
<title>structure</title>
<path fill="lightblue" stroke="black" d="M591.25,-116C591.25,-116 550.5,-116 550.5,-116 544.5,-116 538.5,-110 538.5,-104 538.5,-104 538.5,-92 538.5,-92 538.5,-86 544.5,-80 550.5,-80 550.5,-80 591.25,-80 591.25,-80 597.25,-80 603.25,-86 603.25,-92 603.25,-92 603.25,-104 603.25,-104 603.25,-110 597.25,-116 591.25,-116"/>
<text xml:space="preserve" text-anchor="middle" x="570.88" y="-100.5" font-family="Arial" font-size="10.00">DataFrame</text>
<text xml:space="preserve" text-anchor="middle" x="570.88" y="-88.5" font-family="Arial" font-size="10.00">Structure</text>
</g>
<!-- central&#45;&gt;structure -->
<g id="edge3" class="edge">
<title>central&#45;&gt;structure</title>
<path fill="none" stroke="darkgray" stroke-width="1.5" d="M570.88,-151.22C570.88,-143.93 570.88,-136.03 570.88,-128.63"/>
<polygon fill="darkgray" stroke="darkgray" stroke-width="1.5" points="574.38,-128.74 570.88,-118.74 567.38,-128.74 574.38,-128.74"/>
</g>
<!-- transform -->
<g id="node5" class="node">
<title>transform</title>
<path fill="lightblue" stroke="black" d="M799.5,-116C799.5,-116 742.25,-116 742.25,-116 736.25,-116 730.25,-110 730.25,-104 730.25,-104 730.25,-92 730.25,-92 730.25,-86 736.25,-80 742.25,-80 742.25,-80 799.5,-80 799.5,-80 805.5,-80 811.5,-86 811.5,-92 811.5,-92 811.5,-104 811.5,-104 811.5,-110 805.5,-116 799.5,-116"/>
<text xml:space="preserve" text-anchor="middle" x="770.88" y="-100.5" font-family="Arial" font-size="10.00">Data</text>
<text xml:space="preserve" text-anchor="middle" x="770.88" y="-88.5" font-family="Arial" font-size="10.00">Transformation</text>
</g>
<!-- central&#45;&gt;transform -->
<g id="edge4" class="edge">
<title>central&#45;&gt;transform</title>
<path fill="none" stroke="darkgray" stroke-width="1.5" d="M634.43,-153.32C661.63,-142.49 693,-130 718.8,-119.73"/>
<polygon fill="darkgray" stroke="darkgray" stroke-width="1.5" points="719.75,-123.12 727.74,-116.17 717.16,-116.62 719.75,-123.12"/>
</g>
<!-- duplicates -->
<g id="node6" class="node">
<title>duplicates</title>
<path fill="lightblue" stroke="black" d="M1029.12,-116C1029.12,-116 990.62,-116 990.62,-116 984.62,-116 978.62,-110 978.62,-104 978.62,-104 978.62,-92 978.62,-92 978.62,-86 984.62,-80 990.62,-80 990.62,-80 1029.12,-80 1029.12,-80 1035.12,-80 1041.12,-86 1041.12,-92 1041.12,-92 1041.12,-104 1041.12,-104 1041.12,-110 1035.12,-116 1029.12,-116"/>
<text xml:space="preserve" text-anchor="middle" x="1009.88" y="-100.5" font-family="Arial" font-size="10.00">Duplicates</text>
<text xml:space="preserve" text-anchor="middle" x="1009.88" y="-88.5" font-family="Arial" font-size="10.00">&amp; Sorting</text>
</g>
<!-- central&#45;&gt;duplicates -->
<g id="edge5" class="edge">
<title>central&#45;&gt;duplicates</title>
<path fill="none" stroke="darkgray" stroke-width="1.5" d="M634.24,-167.13C724.73,-150.72 888.64,-120.99 966.52,-106.86"/>
<polygon fill="darkgray" stroke="darkgray" stroke-width="1.5" points="966.81,-110.37 976.03,-105.14 965.56,-103.48 966.81,-110.37"/>
</g>
<!-- missing_detect -->
<g id="node7" class="node">
<title>missing_detect</title>
<polygon fill="lightyellow" stroke="black" points="79.75,-44 0,-44 0,0 85.75,0 85.75,-38 79.75,-44"/>
<polyline fill="none" stroke="black" points="79.75,-44 79.75,-38"/>
<polyline fill="none" stroke="black" points="85.75,-38 79.75,-38"/>
<text xml:space="preserve" text-anchor="middle" x="42.88" y="-30.5" font-family="Arial" font-size="10.00">• .isnull()</text>
<text xml:space="preserve" text-anchor="middle" x="42.88" y="-18.5" font-family="Arial" font-size="10.00">• .notnull()</text>
<text xml:space="preserve" text-anchor="middle" x="42.88" y="-6.5" font-family="Arial" font-size="10.00">• Count missing</text>
</g>
<!-- missing&#45;&gt;missing_detect -->
<g id="edge6" class="edge">
<title>missing&#45;&gt;missing_detect</title>
<path fill="none" stroke="darkgray" stroke-width="1.5" d="M134.74,-79.65C120.76,-71.03 103.53,-60.4 87.78,-50.69"/>
<polygon fill="darkgray" stroke="darkgray" stroke-width="1.5" points="89.98,-47.94 79.63,-45.67 86.31,-53.89 89.98,-47.94"/>
</g>
<!-- missing_handle -->
<g id="node8" class="node">
<title>missing_handle</title>
<polygon fill="lightyellow" stroke="black" points="215.5,-44 104.25,-44 104.25,0 221.5,0 221.5,-38 215.5,-44"/>
<polyline fill="none" stroke="black" points="215.5,-44 215.5,-38"/>
<polyline fill="none" stroke="black" points="221.5,-38 215.5,-38"/>
<text xml:space="preserve" text-anchor="middle" x="162.88" y="-30.5" font-family="Arial" font-size="10.00">• .dropna()</text>
<text xml:space="preserve" text-anchor="middle" x="162.88" y="-18.5" font-family="Arial" font-size="10.00">• .fillna()</text>
<text xml:space="preserve" text-anchor="middle" x="162.88" y="-6.5" font-family="Arial" font-size="10.00">• Forward/Backward fill</text>
</g>
<!-- missing&#45;&gt;missing_handle -->
<g id="edge7" class="edge">
<title>missing&#45;&gt;missing_handle</title>
<path fill="none" stroke="darkgray" stroke-width="1.5" d="M162.88,-79.84C162.88,-72.89 162.88,-64.61 162.88,-56.56"/>
<polygon fill="darkgray" stroke="darkgray" stroke-width="1.5" points="166.38,-56.57 162.88,-46.57 159.38,-56.57 166.38,-56.57"/>
</g>
<!-- type_methods -->
<g id="node9" class="node">
<title>type_methods</title>
<polygon fill="lightyellow" stroke="black" points="326.5,-44 239.25,-44 239.25,0 332.5,0 332.5,-38 326.5,-44"/>
<polyline fill="none" stroke="black" points="326.5,-44 326.5,-38"/>
<polyline fill="none" stroke="black" points="332.5,-38 326.5,-38"/>
<text xml:space="preserve" text-anchor="middle" x="285.88" y="-30.5" font-family="Arial" font-size="10.00">• .astype()</text>
<text xml:space="preserve" text-anchor="middle" x="285.88" y="-18.5" font-family="Arial" font-size="10.00">• pd.to_numeric()</text>
<text xml:space="preserve" text-anchor="middle" x="285.88" y="-6.5" font-family="Arial" font-size="10.00">• pd.to_datetime()</text>
</g>
<!-- types&#45;&gt;type_methods -->
<g id="edge8" class="edge">
<title>types&#45;&gt;type_methods</title>
<path fill="none" stroke="darkgray" stroke-width="1.5" d="M373.15,-79.65C359.99,-71.11 343.81,-60.61 328.97,-50.97"/>
<polygon fill="darkgray" stroke="darkgray" stroke-width="1.5" points="331.16,-48.22 320.86,-45.71 327.34,-54.09 331.16,-48.22"/>
</g>
<!-- type_options -->
<g id="node10" class="node">
<title>type_options</title>
<polygon fill="lightyellow" stroke="black" points="443.12,-44 350.62,-44 350.62,0 449.12,0 449.12,-38 443.12,-44"/>
<polyline fill="none" stroke="black" points="443.12,-44 443.12,-38"/>
<polyline fill="none" stroke="black" points="449.12,-38 443.12,-38"/>
<text xml:space="preserve" text-anchor="middle" x="399.88" y="-30.5" font-family="Arial" font-size="10.00">• errors=&#39;coerce&#39;</text>
<text xml:space="preserve" text-anchor="middle" x="399.88" y="-18.5" font-family="Arial" font-size="10.00">• Type inference</text>
<text xml:space="preserve" text-anchor="middle" x="399.88" y="-6.5" font-family="Arial" font-size="10.00">• Safe conversions</text>
</g>
<!-- types&#45;&gt;type_options -->
<g id="edge9" class="edge">
<title>types&#45;&gt;type_options</title>
<path fill="none" stroke="darkgray" stroke-width="1.5" d="M399.88,-79.84C399.88,-72.89 399.88,-64.61 399.88,-56.56"/>
<polygon fill="darkgray" stroke="darkgray" stroke-width="1.5" points="403.38,-56.57 399.88,-46.57 396.38,-56.57 403.38,-56.57"/>
</g>
<!-- columns_ops -->
<g id="node11" class="node">
<title>columns_ops</title>
<polygon fill="lightyellow" stroke="black" points="560.5,-44 467.25,-44 467.25,0 566.5,0 566.5,-38 560.5,-44"/>
<polyline fill="none" stroke="black" points="560.5,-44 560.5,-38"/>
<polyline fill="none" stroke="black" points="566.5,-38 560.5,-38"/>
<text xml:space="preserve" text-anchor="middle" x="516.88" y="-30.5" font-family="Arial" font-size="10.00">• Add columns</text>
<text xml:space="preserve" text-anchor="middle" x="516.88" y="-18.5" font-family="Arial" font-size="10.00">• Drop columns</text>
<text xml:space="preserve" text-anchor="middle" x="516.88" y="-6.5" font-family="Arial" font-size="10.00">• Rename columns</text>
</g>
<!-- structure&#45;&gt;columns_ops -->
<g id="edge10" class="edge">
<title>structure&#45;&gt;columns_ops</title>
<path fill="none" stroke="darkgray" stroke-width="1.5" d="M558.35,-79.84C552.74,-72.14 545.94,-62.83 539.48,-53.98"/>
<polygon fill="darkgray" stroke="darkgray" stroke-width="1.5" points="542.48,-52.15 533.76,-46.14 536.83,-56.28 542.48,-52.15"/>
</g>
<!-- index_ops -->
<g id="node12" class="node">
<title>index_ops</title>
<polygon fill="lightyellow" stroke="black" points="661.25,-44 584.5,-44 584.5,0 667.25,0 667.25,-38 661.25,-44"/>
<polyline fill="none" stroke="black" points="661.25,-44 661.25,-38"/>
<polyline fill="none" stroke="black" points="667.25,-38 661.25,-38"/>
<text xml:space="preserve" text-anchor="middle" x="625.88" y="-30.5" font-family="Arial" font-size="10.00">• Reset index</text>
<text xml:space="preserve" text-anchor="middle" x="625.88" y="-18.5" font-family="Arial" font-size="10.00">• Set index</text>
<text xml:space="preserve" text-anchor="middle" x="625.88" y="-6.5" font-family="Arial" font-size="10.00">• Multi&#45;indexing</text>
</g>
<!-- structure&#45;&gt;index_ops -->
<g id="edge11" class="edge">
<title>structure&#45;&gt;index_ops</title>
<path fill="none" stroke="darkgray" stroke-width="1.5" d="M583.63,-79.84C589.35,-72.14 596.27,-62.83 602.85,-53.98"/>
<polygon fill="darkgray" stroke="darkgray" stroke-width="1.5" points="605.53,-56.24 608.69,-46.13 599.91,-52.06 605.53,-56.24"/>
</g>
<!-- apply_methods -->
<g id="node13" class="node">
<title>apply_methods</title>
<polygon fill="lightyellow" stroke="black" points="752.75,-44 685,-44 685,0 758.75,0 758.75,-38 752.75,-44"/>
<polyline fill="none" stroke="black" points="752.75,-44 752.75,-38"/>
<polyline fill="none" stroke="black" points="758.75,-38 752.75,-38"/>
<text xml:space="preserve" text-anchor="middle" x="721.88" y="-30.5" font-family="Arial" font-size="10.00">• .apply()</text>
<text xml:space="preserve" text-anchor="middle" x="721.88" y="-18.5" font-family="Arial" font-size="10.00">• .map()</text>
<text xml:space="preserve" text-anchor="middle" x="721.88" y="-6.5" font-family="Arial" font-size="10.00">• .applymap()</text>
</g>
<!-- transform&#45;&gt;apply_methods -->
<g id="edge12" class="edge">
<title>transform&#45;&gt;apply_methods</title>
<path fill="none" stroke="darkgray" stroke-width="1.5" d="M759.51,-79.84C754.47,-72.23 748.38,-63.03 742.58,-54.27"/>
<polygon fill="darkgray" stroke="darkgray" stroke-width="1.5" points="745.67,-52.6 737.24,-46.2 739.84,-56.47 745.67,-52.6"/>
</g>
<!-- string_ops -->
<g id="node14" class="node">
<title>string_ops</title>
<polygon fill="lightyellow" stroke="black" points="859.25,-44 776.5,-44 776.5,0 865.25,0 865.25,-38 859.25,-44"/>
<polyline fill="none" stroke="black" points="859.25,-44 859.25,-38"/>
<polyline fill="none" stroke="black" points="865.25,-38 859.25,-38"/>
<text xml:space="preserve" text-anchor="middle" x="820.88" y="-30.5" font-family="Arial" font-size="10.00">• .str accessor</text>
<text xml:space="preserve" text-anchor="middle" x="820.88" y="-18.5" font-family="Arial" font-size="10.00">• String methods</text>
<text xml:space="preserve" text-anchor="middle" x="820.88" y="-6.5" font-family="Arial" font-size="10.00">• Text cleaning</text>
</g>
<!-- transform&#45;&gt;string_ops -->
<g id="edge13" class="edge">
<title>transform&#45;&gt;string_ops</title>
<path fill="none" stroke="darkgray" stroke-width="1.5" d="M782.47,-79.84C787.61,-72.23 793.83,-63.03 799.75,-54.27"/>
<polygon fill="darkgray" stroke="darkgray" stroke-width="1.5" points="802.51,-56.43 805.21,-46.19 796.71,-52.51 802.51,-56.43"/>
</g>
<!-- lambda_use -->
<g id="node15" class="node">
<title>lambda_use</title>
<path fill="lightgreen" stroke="black" d="M930.25,-40C930.25,-40 895.5,-40 895.5,-40 889.5,-40 883.5,-34 883.5,-28 883.5,-28 883.5,-16 883.5,-16 883.5,-10 889.5,-4 895.5,-4 895.5,-4 930.25,-4 930.25,-4 936.25,-4 942.25,-10 942.25,-16 942.25,-16 942.25,-28 942.25,-28 942.25,-34 936.25,-40 930.25,-40"/>
<text xml:space="preserve" text-anchor="middle" x="912.88" y="-24.5" font-family="Arial" font-size="10.00">Lambda</text>
<text xml:space="preserve" text-anchor="middle" x="912.88" y="-12.5" font-family="Arial" font-size="10.00">Functions</text>
</g>
<!-- transform&#45;&gt;lambda_use -->
<g id="edge14" class="edge">
<title>transform&#45;&gt;lambda_use</title>
<path fill="none" stroke="darkgray" stroke-width="1.5" d="M804.82,-79.73C822.67,-70.61 845.11,-59.07 872.4,-44.74"/>
<polygon fill="darkgray" stroke="darkgray" stroke-width="1.5" points="873.87,-47.92 881.09,-40.17 870.61,-41.73 873.87,-47.92"/>
</g>
<!-- dup_methods -->
<g id="node16" class="node">
<title>dup_methods</title>
<polygon fill="lightyellow" stroke="black" points="1053.88,-44 959.88,-44 959.88,0 1059.88,0 1059.88,-38 1053.88,-44"/>
<polyline fill="none" stroke="black" points="1053.88,-44 1053.88,-38"/>
<polyline fill="none" stroke="black" points="1059.88,-38 1053.88,-38"/>
<text xml:space="preserve" text-anchor="middle" x="1009.88" y="-30.5" font-family="Arial" font-size="10.00">• .duplicated()</text>
<text xml:space="preserve" text-anchor="middle" x="1009.88" y="-18.5" font-family="Arial" font-size="10.00">• .drop_duplicates()</text>
<text xml:space="preserve" text-anchor="middle" x="1009.88" y="-6.5" font-family="Arial" font-size="10.00">• Keep options</text>
</g>
<!-- duplicates&#45;&gt;dup_methods -->
<g id="edge15" class="edge">
<title>duplicates&#45;&gt;dup_methods</title>
<path fill="none" stroke="darkgray" stroke-width="1.5" d="M1009.88,-79.84C1009.88,-72.89 1009.88,-64.61 1009.88,-56.56"/>
<polygon fill="darkgray" stroke="darkgray" stroke-width="1.5" points="1013.38,-56.57 1009.88,-46.57 1006.38,-56.57 1013.38,-56.57"/>
</g>
<!-- sort_methods -->
<g id="node17" class="node">
<title>sort_methods</title>
<polygon fill="lightyellow" stroke="black" points="1194.12,-44 1077.62,-44 1077.62,0 1200.12,0 1200.12,-38 1194.12,-44"/>
<polyline fill="none" stroke="black" points="1194.12,-44 1194.12,-38"/>
<polyline fill="none" stroke="black" points="1200.12,-38 1194.12,-38"/>
<text xml:space="preserve" text-anchor="middle" x="1138.88" y="-30.5" font-family="Arial" font-size="10.00">• .sort_values()</text>
<text xml:space="preserve" text-anchor="middle" x="1138.88" y="-18.5" font-family="Arial" font-size="10.00">• .sort_index()</text>
<text xml:space="preserve" text-anchor="middle" x="1138.88" y="-6.5" font-family="Arial" font-size="10.00">• Ascending/Descending</text>
</g>
<!-- duplicates&#45;&gt;sort_methods -->
<g id="edge16" class="edge">
<title>duplicates&#45;&gt;sort_methods</title>
<path fill="none" stroke="darkgray" stroke-width="1.5" d="M1040.12,-79.65C1055.29,-70.95 1074.02,-60.2 1091.08,-50.42"/>
<polygon fill="darkgray" stroke="darkgray" stroke-width="1.5" points="1092.54,-53.62 1099.47,-45.6 1089.05,-47.54 1092.54,-53.62"/>
</g>
</g>
</svg>
