<?xml version="1.0" encoding="UTF-8" standalone="no"?>
<!DOCTYPE svg PUBLIC "-//W3C//DTD SVG 1.1//EN"
 "http://www.w3.org/Graphics/SVG/1.1/DTD/svg11.dtd">
<!-- Generated by graphviz version 13.1.0 (20250701.0955)
 -->
<!-- Title: Module12_MindMap Pages: 1 -->
<svg width="928pt" height="644pt"
 viewBox="0.00 0.00 928.00 644.00" xmlns="http://www.w3.org/2000/svg" xmlns:xlink="http://www.w3.org/1999/xlink">
<g id="graph0" class="graph" transform="scale(1 1) rotate(0) translate(4 640.12)">
<title>Module12_MindMap</title>
<polygon fill="white" stroke="none" points="-4,4 -4,-640.12 923.6,-640.12 923.6,4 -4,4"/>
<text xml:space="preserve" text-anchor="middle" x="459.8" y="-618.82" font-family="Arial" font-size="14.00">Module 12: Business Analytics Fundamentals</text>
<!-- main -->
<g id="node1" class="node">
<title>main</title>
<ellipse fill="#3498db" stroke="#333333" cx="450.05" cy="-239.13" rx="81.78" ry="25.24"/>
<text xml:space="preserve" text-anchor="middle" x="450.05" y="-241.98" font-family="Arial" font-size="12.00" fill="white">Business Analytics</text>
<text xml:space="preserve" text-anchor="middle" x="450.05" y="-227.73" font-family="Arial" font-size="12.00" fill="white">Fundamentals</text>
</g>
<!-- spectrum -->
<g id="node2" class="node">
<title>spectrum</title>
<path fill="#e74c3c" stroke="#333333" d="M222.17,-474.38C222.17,-474.38 141.47,-474.38 141.47,-474.38 136.67,-474.38 131.87,-469.58 131.87,-464.78 131.87,-464.78 131.87,-455.18 131.87,-455.18 131.87,-450.38 136.67,-445.58 141.47,-445.58 141.47,-445.58 222.17,-445.58 222.17,-445.58 226.97,-445.58 231.77,-450.38 231.77,-455.18 231.77,-455.18 231.77,-464.78 231.77,-464.78 231.77,-469.58 226.97,-474.38 222.17,-474.38"/>
<text xml:space="preserve" text-anchor="middle" x="181.82" y="-456.48" font-family="Arial" font-size="10.00" fill="white">Analytics Spectrum</text>
</g>
<!-- main&#45;&gt;spectrum -->
<g id="edge1" class="edge">
<title>main&#45;&gt;spectrum</title>
<path fill="none" stroke="#666666" d="M414.45,-262.29C262.78,-361.08 246.9,-373.73 196.41,-440.53"/>
<polygon fill="#666666" stroke="#666666" points="195.24,-439.18 193.63,-444.23 198.03,-441.29 195.24,-439.18"/>
</g>
<!-- stats -->
<g id="node3" class="node">
<title>stats</title>
<path fill="#e67e22" stroke="#333333" d="M748.83,-478.25C748.83,-478.25 687.73,-478.25 687.73,-478.25 682.53,-478.25 677.33,-473.05 677.33,-467.85 677.33,-467.85 677.33,-457.45 677.33,-457.45 677.33,-452.25 682.53,-447.05 687.73,-447.05 687.73,-447.05 748.83,-447.05 748.83,-447.05 754.03,-447.05 759.23,-452.25 759.23,-457.45 759.23,-457.45 759.23,-467.85 759.23,-467.85 759.23,-473.05 754.03,-478.25 748.83,-478.25"/>
<text xml:space="preserve" text-anchor="middle" x="718.28" y="-465.15" font-family="Arial" font-size="10.00" fill="white">Core Statistical</text>
<text xml:space="preserve" text-anchor="middle" x="718.28" y="-453.15" font-family="Arial" font-size="10.00" fill="white">Concepts</text>
</g>
<!-- main&#45;&gt;stats -->
<g id="edge2" class="edge">
<title>main&#45;&gt;stats</title>
<path fill="none" stroke="#666666" d="M484.47,-262.46C634.89,-364.5 651.97,-378.05 701.91,-441.64"/>
<polygon fill="#666666" stroke="#666666" points="700.49,-442.66 704.95,-445.52 703.25,-440.51 700.49,-442.66"/>
</g>
<!-- predictive -->
<g id="node4" class="node">
<title>predictive</title>
<path fill="#9b59b6" stroke="#333333" d="M221.37,-31.2C221.37,-31.2 142.27,-31.2 142.27,-31.2 137.07,-31.2 131.87,-26 131.87,-20.8 131.87,-20.8 131.87,-10.4 131.87,-10.4 131.87,-5.2 137.07,0 142.27,0 142.27,0 221.37,0 221.37,0 226.57,0 231.77,-5.2 231.77,-10.4 231.77,-10.4 231.77,-20.8 231.77,-20.8 231.77,-26 226.57,-31.2 221.37,-31.2"/>
<text xml:space="preserve" text-anchor="middle" x="181.82" y="-18.1" font-family="Arial" font-size="10.00" fill="white">Predictive Modeling</text>
<text xml:space="preserve" text-anchor="middle" x="181.82" y="-6.1" font-family="Arial" font-size="10.00" fill="white">(Regression)</text>
</g>
<!-- main&#45;&gt;predictive -->
<g id="edge3" class="edge">
<title>main&#45;&gt;predictive</title>
<path fill="none" stroke="#666666" d="M424.29,-215.07C292.28,-91.81 271.38,-73.27 212.37,-35.11"/>
<polygon fill="#666666" stroke="#666666" points="213.34,-33.65 208.19,-32.41 211.45,-36.59 213.34,-33.65"/>
</g>
<!-- application -->
<g id="node5" class="node">
<title>application</title>
<path fill="#2ecc71" stroke="#333333" d="M749.21,-31.2C749.21,-31.2 687.36,-31.2 687.36,-31.2 682.16,-31.2 676.96,-26 676.96,-20.8 676.96,-20.8 676.96,-10.4 676.96,-10.4 676.96,-5.2 682.16,0 687.36,0 687.36,0 749.21,0 749.21,0 754.41,0 759.61,-5.2 759.61,-10.4 759.61,-10.4 759.61,-20.8 759.61,-20.8 759.61,-26 754.41,-31.2 749.21,-31.2"/>
<text xml:space="preserve" text-anchor="middle" x="718.28" y="-18.1" font-family="Arial" font-size="10.00" fill="white">Application &amp;</text>
<text xml:space="preserve" text-anchor="middle" x="718.28" y="-6.1" font-family="Arial" font-size="10.00" fill="white">Communication</text>
</g>
<!-- main&#45;&gt;application -->
<g id="edge4" class="edge">
<title>main&#45;&gt;application</title>
<path fill="none" stroke="#666666" d="M475.24,-214.65C603.53,-90.05 624.76,-70.76 685.23,-34.85"/>
<polygon fill="#666666" stroke="#666666" points="686.1,-36.37 689.51,-32.32 684.32,-33.36 686.1,-36.37"/>
</g>
<!-- descriptive -->
<g id="node6" class="node">
<title>descriptive</title>
<path fill="#fadbd8" stroke="#333333" d="M82.37,-567.67C82.37,-567.67 13.03,-567.67 13.03,-567.67 7.83,-567.67 2.62,-562.47 2.62,-557.27 2.62,-557.27 2.62,-546.87 2.62,-546.87 2.62,-541.67 7.83,-536.47 13.03,-536.47 13.03,-536.47 82.38,-536.47 82.38,-536.47 87.58,-536.47 92.78,-541.67 92.78,-546.87 92.78,-546.87 92.78,-557.27 92.78,-557.27 92.78,-562.47 87.58,-567.67 82.37,-567.67"/>
<text xml:space="preserve" text-anchor="middle" x="47.7" y="-554.57" font-family="Arial" font-size="10.00">Descriptive</text>
<text xml:space="preserve" text-anchor="middle" x="47.7" y="-542.57" font-family="Arial" font-size="10.00">What Happened?</text>
</g>
<!-- spectrum&#45;&gt;descriptive -->
<g id="edge5" class="edge">
<title>spectrum&#45;&gt;descriptive</title>
<path fill="none" stroke="#666666" d="M159.29,-474.73C108.22,-508.2 91.39,-519.39 73.71,-532.4"/>
<polygon fill="#666666" stroke="#666666" points="72.85,-530.86 69.88,-535.24 74.94,-533.67 72.85,-530.86"/>
</g>
<!-- diagnostic -->
<g id="node7" class="node">
<title>diagnostic</title>
<path fill="#fadbd8" stroke="#333333" d="M223.24,-612.37C223.24,-612.37 140.39,-612.37 140.39,-612.37 135.19,-612.37 129.99,-607.17 129.99,-601.97 129.99,-601.97 129.99,-591.57 129.99,-591.57 129.99,-586.37 135.19,-581.17 140.39,-581.17 140.39,-581.17 223.24,-581.17 223.24,-581.17 228.44,-581.17 233.64,-586.37 233.64,-591.57 233.64,-591.57 233.64,-601.97 233.64,-601.97 233.64,-607.17 228.44,-612.37 223.24,-612.37"/>
<text xml:space="preserve" text-anchor="middle" x="181.82" y="-599.27" font-family="Arial" font-size="10.00">Diagnostic</text>
<text xml:space="preserve" text-anchor="middle" x="181.82" y="-587.27" font-family="Arial" font-size="10.00">Why Did It Happen?</text>
</g>
<!-- spectrum&#45;&gt;diagnostic -->
<g id="edge6" class="edge">
<title>spectrum&#45;&gt;diagnostic</title>
<path fill="none" stroke="#666666" d="M178.17,-474.6C163.57,-533.38 161.88,-545.53 173.11,-575.28"/>
<polygon fill="#666666" stroke="#666666" points="171.36,-575.61 174.8,-579.64 174.62,-574.34 171.36,-575.61"/>
</g>
<!-- predictive_ana -->
<g id="node8" class="node">
<title>predictive_ana</title>
<path fill="#fadbd8" stroke="#333333" d="M359.98,-567.67C359.98,-567.67 271.88,-567.67 271.88,-567.67 266.68,-567.67 261.48,-562.47 261.48,-557.27 261.48,-557.27 261.48,-546.87 261.48,-546.87 261.48,-541.67 266.68,-536.47 271.88,-536.47 271.88,-536.47 359.98,-536.47 359.98,-536.47 365.18,-536.47 370.38,-541.67 370.38,-546.87 370.38,-546.87 370.38,-557.27 370.38,-557.27 370.38,-562.47 365.18,-567.67 359.98,-567.67"/>
<text xml:space="preserve" text-anchor="middle" x="315.93" y="-554.57" font-family="Arial" font-size="10.00">Predictive (Spectrum)</text>
<text xml:space="preserve" text-anchor="middle" x="315.93" y="-542.57" font-family="Arial" font-size="10.00">What Will Happen?</text>
</g>
<!-- spectrum&#45;&gt;predictive_ana -->
<g id="edge7" class="edge">
<title>spectrum&#45;&gt;predictive_ana</title>
<path fill="none" stroke="#666666" d="M191.27,-474.81C214.58,-511.07 225.13,-523.64 255.21,-534.68"/>
<polygon fill="#666666" stroke="#666666" points="254.34,-536.23 259.64,-536.23 255.5,-532.93 254.34,-536.23"/>
</g>
<!-- prescriptive -->
<g id="node9" class="node">
<title>prescriptive</title>
<path fill="#fadbd8" stroke="#333333" d="M225.87,-525.62C225.87,-525.62 137.77,-525.62 137.77,-525.62 132.57,-525.62 127.37,-520.42 127.37,-515.22 127.37,-515.22 127.37,-504.82 127.37,-504.82 127.37,-499.62 132.57,-494.42 137.77,-494.42 137.77,-494.42 225.87,-494.42 225.87,-494.42 231.07,-494.42 236.27,-499.62 236.27,-504.82 236.27,-504.82 236.27,-515.22 236.27,-515.22 236.27,-520.42 231.07,-525.62 225.87,-525.62"/>
<text xml:space="preserve" text-anchor="middle" x="181.82" y="-512.52" font-family="Arial" font-size="10.00">Prescriptive</text>
<text xml:space="preserve" text-anchor="middle" x="181.82" y="-500.52" font-family="Arial" font-size="10.00">What Should We Do?</text>
</g>
<!-- spectrum&#45;&gt;prescriptive -->
<g id="edge8" class="edge">
<title>spectrum&#45;&gt;prescriptive</title>
<path fill="none" stroke="#666666" d="M177.85,-474.71C176.47,-480.19 175.7,-484.19 175.54,-487.67"/>
<polygon fill="#666666" stroke="#666666" points="173.78,-487.59 175.86,-492.46 177.27,-487.35 173.78,-487.59"/>
</g>
<!-- central_tendency -->
<g id="node10" class="node">
<title>central_tendency</title>
<path fill="#fae5d3" stroke="#333333" d="M629.72,-567.67C629.72,-567.67 538.62,-567.67 538.62,-567.67 533.42,-567.67 528.22,-562.47 528.22,-557.27 528.22,-557.27 528.22,-546.87 528.22,-546.87 528.22,-541.67 533.42,-536.47 538.62,-536.47 538.62,-536.47 629.72,-536.47 629.72,-536.47 634.92,-536.47 640.12,-541.67 640.12,-546.87 640.12,-546.87 640.12,-557.27 640.12,-557.27 640.12,-562.47 634.92,-567.67 629.72,-567.67"/>
<text xml:space="preserve" text-anchor="middle" x="584.17" y="-554.57" font-family="Arial" font-size="10.00">Central Tendency</text>
<text xml:space="preserve" text-anchor="middle" x="584.17" y="-542.57" font-family="Arial" font-size="10.00">(Mean, Median, Mode)</text>
</g>
<!-- stats&#45;&gt;central_tendency -->
<g id="edge9" class="edge">
<title>stats&#45;&gt;central_tendency</title>
<path fill="none" stroke="#666666" d="M707.63,-478.75C684.95,-512.68 674.06,-525.23 646.71,-535.25"/>
<polygon fill="#666666" stroke="#666666" points="646.2,-533.57 642.05,-536.86 647.34,-536.88 646.2,-533.57"/>
</g>
<!-- dispersion -->
<g id="node11" class="node">
<title>dispersion</title>
<path fill="#fae5d3" stroke="#333333" d="M909.2,-567.67C909.2,-567.67 795.6,-567.67 795.6,-567.67 790.4,-567.67 785.2,-562.47 785.2,-557.27 785.2,-557.27 785.2,-546.87 785.2,-546.87 785.2,-541.67 790.4,-536.47 795.6,-536.47 795.6,-536.47 909.2,-536.47 909.2,-536.47 914.4,-536.47 919.6,-541.67 919.6,-546.87 919.6,-546.87 919.6,-557.27 919.6,-557.27 919.6,-562.47 914.4,-567.67 909.2,-567.67"/>
<text xml:space="preserve" text-anchor="middle" x="852.4" y="-554.57" font-family="Arial" font-size="10.00">Dispersion</text>
<text xml:space="preserve" text-anchor="middle" x="852.4" y="-542.57" font-family="Arial" font-size="10.00">(Range, Variance, Std Dev)</text>
</g>
<!-- stats&#45;&gt;dispersion -->
<g id="edge10" class="edge">
<title>stats&#45;&gt;dispersion</title>
<path fill="none" stroke="#666666" d="M742.93,-478.74C790.15,-509.56 807.15,-520.74 824.14,-532.39"/>
<polygon fill="#666666" stroke="#666666" points="823.08,-533.79 828.19,-535.19 825.07,-530.91 823.08,-533.79"/>
</g>
<!-- correlation -->
<g id="node12" class="node">
<title>correlation</title>
<path fill="#fae5d3" stroke="#333333" d="M744.68,-611.17C744.68,-611.17 691.88,-611.17 691.88,-611.17 687.08,-611.17 682.28,-606.37 682.28,-601.57 682.28,-601.57 682.28,-591.97 682.28,-591.97 682.28,-587.17 687.08,-582.37 691.88,-582.37 691.88,-582.37 744.68,-582.37 744.68,-582.37 749.48,-582.37 754.28,-587.17 754.28,-591.97 754.28,-591.97 754.28,-601.57 754.28,-601.57 754.28,-606.37 749.48,-611.17 744.68,-611.17"/>
<text xml:space="preserve" text-anchor="middle" x="718.28" y="-593.27" font-family="Arial" font-size="10.00">Correlation</text>
</g>
<!-- stats&#45;&gt;correlation -->
<g id="edge11" class="edge">
<title>stats&#45;&gt;correlation</title>
<path fill="none" stroke="#666666" d="M722.06,-478.43C735.65,-535.58 737.13,-547.53 726.5,-576.16"/>
<polygon fill="#666666" stroke="#666666" points="724.91,-575.41 724.75,-580.71 728.18,-576.67 724.91,-575.41"/>
</g>
<!-- linear_reg -->
<g id="node13" class="node">
<title>linear_reg</title>
<path fill="#e8daef" stroke="#333333" d="M85,-120.61C85,-120.61 10.4,-120.61 10.4,-120.61 5.2,-120.61 0,-115.41 0,-110.21 0,-110.21 0,-99.81 0,-99.81 0,-94.61 5.2,-89.41 10.4,-89.41 10.4,-89.41 85,-89.41 85,-89.41 90.2,-89.41 95.4,-94.61 95.4,-99.81 95.4,-99.81 95.4,-110.21 95.4,-110.21 95.4,-115.41 90.2,-120.61 85,-120.61"/>
<text xml:space="preserve" text-anchor="middle" x="47.7" y="-107.51" font-family="Arial" font-size="10.00">Linear Regression</text>
<text xml:space="preserve" text-anchor="middle" x="47.7" y="-95.51" font-family="Arial" font-size="10.00">(Y = β₀ + β₁X + ε)</text>
</g>
<!-- predictive&#45;&gt;linear_reg -->
<g id="edge12" class="edge">
<title>predictive&#45;&gt;linear_reg</title>
<path fill="none" stroke="#666666" d="M131.54,-30.2C93.75,-42.43 82.64,-52.17 61.41,-83.94"/>
<polygon fill="#666666" stroke="#666666" points="60.05,-82.83 58.75,-87.97 62.97,-84.76 60.05,-82.83"/>
</g>
<!-- interpretation -->
<g id="node14" class="node">
<title>interpretation</title>
<path fill="#e8daef" stroke="#333333" d="M350.23,-120.61C350.23,-120.61 281.63,-120.61 281.63,-120.61 276.43,-120.61 271.23,-115.41 271.23,-110.21 271.23,-110.21 271.23,-99.81 271.23,-99.81 271.23,-94.61 276.43,-89.41 281.63,-89.41 281.63,-89.41 350.23,-89.41 350.23,-89.41 355.43,-89.41 360.63,-94.61 360.63,-99.81 360.63,-99.81 360.63,-110.21 360.63,-110.21 360.63,-115.41 355.43,-120.61 350.23,-120.61"/>
<text xml:space="preserve" text-anchor="middle" x="315.93" y="-107.51" font-family="Arial" font-size="10.00">Interpretation</text>
<text xml:space="preserve" text-anchor="middle" x="315.93" y="-95.51" font-family="Arial" font-size="10.00">(Slope, Intercept)</text>
</g>
<!-- predictive&#45;&gt;interpretation -->
<g id="edge13" class="edge">
<title>predictive&#45;&gt;interpretation</title>
<path fill="none" stroke="#666666" d="M215.96,-31.56C233.44,-41 249.71,-53.11 290.42,-84.98"/>
<polygon fill="#666666" stroke="#666666" points="289.3,-86.33 294.31,-88.04 291.46,-83.58 289.3,-86.33"/>
</g>
<!-- process -->
<g id="node15" class="node">
<title>process</title>
<path fill="#d5f5e3" stroke="#333333" d="M622.64,-119.41C622.64,-119.41 545.69,-119.41 545.69,-119.41 540.89,-119.41 536.09,-114.61 536.09,-109.81 536.09,-109.81 536.09,-100.21 536.09,-100.21 536.09,-95.41 540.89,-90.61 545.69,-90.61 545.69,-90.61 622.64,-90.61 622.64,-90.61 627.44,-90.61 632.24,-95.41 632.24,-100.21 632.24,-100.21 632.24,-109.81 632.24,-109.81 632.24,-114.61 627.44,-119.41 622.64,-119.41"/>
<text xml:space="preserve" text-anchor="middle" x="584.17" y="-101.51" font-family="Arial" font-size="10.00">Analytical Process</text>
</g>
<!-- application&#45;&gt;process -->
<g id="edge14" class="edge">
<title>application&#45;&gt;process</title>
<path fill="none" stroke="#666666" d="M681.93,-31.69C664.48,-40.99 647.91,-53.66 607.5,-86.19"/>
<polygon fill="#666666" stroke="#666666" points="606.42,-84.81 603.63,-89.3 608.62,-87.53 606.42,-84.81"/>
</g>
<!-- communicate -->
<g id="node16" class="node">
<title>communicate</title>
<path fill="#d5f5e3" stroke="#333333" d="M883.32,-120.61C883.32,-120.61 821.47,-120.61 821.47,-120.61 816.27,-120.61 811.07,-115.41 811.07,-110.21 811.07,-110.21 811.07,-99.81 811.07,-99.81 811.07,-94.61 816.27,-89.41 821.47,-89.41 821.47,-89.41 883.32,-89.41 883.32,-89.41 888.52,-89.41 893.72,-94.61 893.72,-99.81 893.72,-99.81 893.72,-110.21 893.72,-110.21 893.72,-115.41 888.52,-120.61 883.32,-120.61"/>
<text xml:space="preserve" text-anchor="middle" x="852.4" y="-107.51" font-family="Arial" font-size="10.00">Communicating</text>
<text xml:space="preserve" text-anchor="middle" x="852.4" y="-95.51" font-family="Arial" font-size="10.00">Findings</text>
</g>
<!-- application&#45;&gt;communicate -->
<g id="edge15" class="edge">
<title>application&#45;&gt;communicate</title>
<path fill="none" stroke="#666666" d="M760.09,-27.3C804.4,-40.55 815.55,-49.36 838.53,-83.72"/>
<polygon fill="#666666" stroke="#666666" points="836.95,-84.51 841.17,-87.71 839.87,-82.58 836.95,-84.51"/>
</g>
</g>
</svg>
