<?xml version="1.0" encoding="UTF-8" standalone="no"?>
<!DOCTYPE svg PUBLIC "-//W3C//DTD SVG 1.1//EN"
 "http://www.w3.org/Graphics/SVG/1.1/DTD/svg11.dtd">
<!-- Generated by graphviz version 13.1.0 (20250701.0955)
 -->
<!-- Title: Module6_MindMap Pages: 1 -->
<svg width="1209pt" height="251pt"
 viewBox="0.00 0.00 1209.00 251.00" xmlns="http://www.w3.org/2000/svg" xmlns:xlink="http://www.w3.org/1999/xlink">
<g id="graph0" class="graph" transform="scale(1 1) rotate(0) translate(4 247.25)">
<title>Module6_MindMap</title>
<polygon fill="white" stroke="none" points="-4,4 -4,-247.25 1205.25,-247.25 1205.25,4 -4,4"/>
<!-- central -->
<g id="node1" class="node">
<title>central</title>
<path fill="darkblue" stroke="black" stroke-width="2" d="M710.88,-243.25C710.88,-243.25 615.38,-243.25 615.38,-243.25 609.38,-243.25 603.38,-237.25 603.38,-231.25 603.38,-231.25 603.38,-200 603.38,-200 603.38,-194 609.38,-188 615.38,-188 615.38,-188 710.88,-188 710.88,-188 716.88,-188 722.88,-194 722.88,-200 722.88,-200 722.88,-231.25 722.88,-231.25 722.88,-237.25 716.88,-243.25 710.88,-243.25"/>
<text xml:space="preserve" text-anchor="middle" x="663.12" y="-225.95" font-family="Arial" font-size="14.00" fill="white">Module 6:</text>
<text xml:space="preserve" text-anchor="middle" x="663.12" y="-210.2" font-family="Arial" font-size="14.00" fill="white">Conditional Logic</text>
<text xml:space="preserve" text-anchor="middle" x="663.12" y="-194.45" font-family="Arial" font-size="14.00" fill="white">&amp; Branching</text>
</g>
<!-- if_statement -->
<g id="node2" class="node">
<title>if_statement</title>
<path fill="lightblue" stroke="black" d="M189.62,-152C189.62,-152 152.62,-152 152.62,-152 146.62,-152 140.62,-146 140.62,-140 140.62,-140 140.62,-128 140.62,-128 140.62,-122 146.62,-116 152.62,-116 152.62,-116 189.62,-116 189.62,-116 195.62,-116 201.62,-122 201.62,-128 201.62,-128 201.62,-140 201.62,-140 201.62,-146 195.62,-152 189.62,-152"/>
<text xml:space="preserve" text-anchor="middle" x="171.12" y="-136.5" font-family="Arial" font-size="10.00">if</text>
<text xml:space="preserve" text-anchor="middle" x="171.12" y="-124.5" font-family="Arial" font-size="10.00">Statement</text>
</g>
<!-- central&#45;&gt;if_statement -->
<g id="edge1" class="edge">
<title>central&#45;&gt;if_statement</title>
<path fill="none" stroke="darkgray" stroke-width="1.5" d="M602.8,-204.86C501.93,-188.54 301.5,-156.1 213.84,-141.91"/>
<polygon fill="darkgray" stroke="darkgray" stroke-width="1.5" points="214.67,-138.5 204.24,-140.36 213.55,-145.41 214.67,-138.5"/>
</g>
<!-- if_else -->
<g id="node3" class="node">
<title>if_else</title>
<path fill="lightblue" stroke="black" d="M409.25,-152C409.25,-152 367,-152 367,-152 361,-152 355,-146 355,-140 355,-140 355,-128 355,-128 355,-122 361,-116 367,-116 367,-116 409.25,-116 409.25,-116 415.25,-116 421.25,-122 421.25,-128 421.25,-128 421.25,-140 421.25,-140 421.25,-146 415.25,-152 409.25,-152"/>
<text xml:space="preserve" text-anchor="middle" x="388.12" y="-136.5" font-family="Arial" font-size="10.00">if&#45;else</text>
<text xml:space="preserve" text-anchor="middle" x="388.12" y="-124.5" font-family="Arial" font-size="10.00">Statements</text>
</g>
<!-- central&#45;&gt;if_else -->
<g id="edge2" class="edge">
<title>central&#45;&gt;if_else</title>
<path fill="none" stroke="darkgray" stroke-width="1.5" d="M602.43,-197.05C551.32,-182.25 479.37,-161.42 433.23,-148.06"/>
<polygon fill="darkgray" stroke="darkgray" stroke-width="1.5" points="434.28,-144.72 423.7,-145.3 432.33,-151.44 434.28,-144.72"/>
</g>
<!-- if_elif_else -->
<g id="node4" class="node">
<title>if_elif_else</title>
<path fill="lightblue" stroke="black" d="M625.12,-152C625.12,-152 591.12,-152 591.12,-152 585.12,-152 579.12,-146 579.12,-140 579.12,-140 579.12,-128 579.12,-128 579.12,-122 585.12,-116 591.12,-116 591.12,-116 625.12,-116 625.12,-116 631.12,-116 637.12,-122 637.12,-128 637.12,-128 637.12,-140 637.12,-140 637.12,-146 631.12,-152 625.12,-152"/>
<text xml:space="preserve" text-anchor="middle" x="608.12" y="-136.5" font-family="Arial" font-size="10.00">if&#45;elif&#45;else</text>
<text xml:space="preserve" text-anchor="middle" x="608.12" y="-124.5" font-family="Arial" font-size="10.00">Chains</text>
</g>
<!-- central&#45;&gt;if_elif_else -->
<g id="edge3" class="edge">
<title>central&#45;&gt;if_elif_else</title>
<path fill="none" stroke="darkgray" stroke-width="1.5" d="M644.2,-187.22C638.67,-179.22 632.62,-170.46 627.09,-162.45"/>
<polygon fill="darkgray" stroke="darkgray" stroke-width="1.5" points="630.05,-160.58 621.49,-154.34 624.29,-164.56 630.05,-160.58"/>
</g>
<!-- comparison -->
<g id="node5" class="node">
<title>comparison</title>
<path fill="lightblue" stroke="black" d="M726.38,-152C726.38,-152 681.88,-152 681.88,-152 675.88,-152 669.88,-146 669.88,-140 669.88,-140 669.88,-128 669.88,-128 669.88,-122 675.88,-116 681.88,-116 681.88,-116 726.38,-116 726.38,-116 732.38,-116 738.38,-122 738.38,-128 738.38,-128 738.38,-140 738.38,-140 738.38,-146 732.38,-152 726.38,-152"/>
<text xml:space="preserve" text-anchor="middle" x="704.12" y="-136.5" font-family="Arial" font-size="10.00">Comparison</text>
<text xml:space="preserve" text-anchor="middle" x="704.12" y="-124.5" font-family="Arial" font-size="10.00">Operators</text>
</g>
<!-- central&#45;&gt;comparison -->
<g id="edge4" class="edge">
<title>central&#45;&gt;comparison</title>
<path fill="none" stroke="darkgray" stroke-width="1.5" d="M677.23,-187.22C681.22,-179.49 685.56,-171.05 689.57,-163.27"/>
<polygon fill="darkgray" stroke="darkgray" stroke-width="1.5" points="692.62,-164.99 694.09,-154.49 686.4,-161.78 692.62,-164.99"/>
</g>
<!-- logical -->
<g id="node6" class="node">
<title>logical</title>
<path fill="lightblue" stroke="black" d="M863.5,-152C863.5,-152 828.75,-152 828.75,-152 822.75,-152 816.75,-146 816.75,-140 816.75,-140 816.75,-128 816.75,-128 816.75,-122 822.75,-116 828.75,-116 828.75,-116 863.5,-116 863.5,-116 869.5,-116 875.5,-122 875.5,-128 875.5,-128 875.5,-140 875.5,-140 875.5,-146 869.5,-152 863.5,-152"/>
<text xml:space="preserve" text-anchor="middle" x="846.12" y="-136.5" font-family="Arial" font-size="10.00">Logical</text>
<text xml:space="preserve" text-anchor="middle" x="846.12" y="-124.5" font-family="Arial" font-size="10.00">Operators</text>
</g>
<!-- central&#45;&gt;logical -->
<g id="edge5" class="edge">
<title>central&#45;&gt;logical</title>
<path fill="none" stroke="darkgray" stroke-width="1.5" d="M723.81,-188.22C750.54,-176.59 781.25,-163.23 805.21,-152.8"/>
<polygon fill="darkgray" stroke="darkgray" stroke-width="1.5" points="806.53,-156.05 814.3,-148.85 803.73,-149.63 806.53,-156.05"/>
</g>
<!-- nested -->
<g id="node7" class="node">
<title>nested</title>
<path fill="lightblue" stroke="black" d="M1085.12,-152C1085.12,-152 1039.12,-152 1039.12,-152 1033.12,-152 1027.12,-146 1027.12,-140 1027.12,-140 1027.12,-128 1027.12,-128 1027.12,-122 1033.12,-116 1039.12,-116 1039.12,-116 1085.12,-116 1085.12,-116 1091.12,-116 1097.12,-122 1097.12,-128 1097.12,-128 1097.12,-140 1097.12,-140 1097.12,-146 1091.12,-152 1085.12,-152"/>
<text xml:space="preserve" text-anchor="middle" x="1062.12" y="-136.5" font-family="Arial" font-size="10.00">Nested</text>
<text xml:space="preserve" text-anchor="middle" x="1062.12" y="-124.5" font-family="Arial" font-size="10.00">Conditionals</text>
</g>
<!-- central&#45;&gt;nested -->
<g id="edge6" class="edge">
<title>central&#45;&gt;nested</title>
<path fill="none" stroke="darkgray" stroke-width="1.5" d="M723.72,-202.53C803.58,-186.6 942.39,-158.9 1014.92,-144.42"/>
<polygon fill="darkgray" stroke="darkgray" stroke-width="1.5" points="1015.47,-147.88 1024.59,-142.49 1014.1,-141.02 1015.47,-147.88"/>
</g>
<!-- basic_syntax -->
<g id="node8" class="node">
<title>basic_syntax</title>
<polygon fill="lightyellow" stroke="black" points="96.25,-62 0,-62 0,-18 102.25,-18 102.25,-56 96.25,-62"/>
<polyline fill="none" stroke="black" points="96.25,-62 96.25,-56"/>
<polyline fill="none" stroke="black" points="102.25,-56 96.25,-56"/>
<text xml:space="preserve" text-anchor="middle" x="51.12" y="-48.5" font-family="Arial" font-size="10.00">• Basic Syntax</text>
<text xml:space="preserve" text-anchor="middle" x="51.12" y="-36.5" font-family="Arial" font-size="10.00">• Boolean Condition</text>
<text xml:space="preserve" text-anchor="middle" x="51.12" y="-24.5" font-family="Arial" font-size="10.00">• Indented Block</text>
</g>
<!-- if_statement&#45;&gt;basic_syntax -->
<g id="edge7" class="edge">
<title>if_statement&#45;&gt;basic_syntax</title>
<path fill="none" stroke="darkgray" stroke-width="1.5" d="M148.55,-115.7C131.71,-102.78 108.32,-84.85 88.67,-69.79"/>
<polygon fill="darkgray" stroke="darkgray" stroke-width="1.5" points="90.95,-67.13 80.89,-63.82 86.7,-72.68 90.95,-67.13"/>
</g>
<!-- if_example -->
<g id="node9" class="node">
<title>if_example</title>
<path fill="lightgreen" stroke="black" d="M209.5,-58C209.5,-58 132.75,-58 132.75,-58 126.75,-58 120.75,-52 120.75,-46 120.75,-46 120.75,-34 120.75,-34 120.75,-28 126.75,-22 132.75,-22 132.75,-22 209.5,-22 209.5,-22 215.5,-22 221.5,-28 221.5,-34 221.5,-34 221.5,-46 221.5,-46 221.5,-52 215.5,-58 209.5,-58"/>
<text xml:space="preserve" text-anchor="middle" x="171.12" y="-42.5" font-family="Arial" font-size="10.00">Business Example:</text>
<text xml:space="preserve" text-anchor="middle" x="171.12" y="-30.5" font-family="Arial" font-size="10.00">Price Validation</text>
</g>
<!-- if_statement&#45;&gt;if_example -->
<g id="edge8" class="edge">
<title>if_statement&#45;&gt;if_example</title>
<path fill="none" stroke="darkgray" stroke-width="1.5" d="M171.12,-115.7C171.12,-102.97 171.12,-85.38 171.12,-70.46"/>
<polygon fill="darkgray" stroke="darkgray" stroke-width="1.5" points="174.63,-70.5 171.13,-60.5 167.63,-70.5 174.63,-70.5"/>
</g>
<!-- else_syntax -->
<g id="node10" class="node">
<title>else_syntax</title>
<polygon fill="lightyellow" stroke="black" points="325,-62 239.25,-62 239.25,-18 331,-18 331,-56 325,-62"/>
<polyline fill="none" stroke="black" points="325,-62 325,-56"/>
<polyline fill="none" stroke="black" points="331,-56 325,-56"/>
<text xml:space="preserve" text-anchor="middle" x="285.12" y="-48.5" font-family="Arial" font-size="10.00">• else Clause</text>
<text xml:space="preserve" text-anchor="middle" x="285.12" y="-36.5" font-family="Arial" font-size="10.00">• Alternative Path</text>
<text xml:space="preserve" text-anchor="middle" x="285.12" y="-24.5" font-family="Arial" font-size="10.00">• Execution Flow</text>
</g>
<!-- if_else&#45;&gt;else_syntax -->
<g id="edge9" class="edge">
<title>if_else&#45;&gt;else_syntax</title>
<path fill="none" stroke="darkgray" stroke-width="1.5" d="M368.75,-115.7C354.49,-102.96 334.76,-85.34 318.05,-70.41"/>
<polygon fill="darkgray" stroke="darkgray" stroke-width="1.5" points="320.61,-68 310.82,-63.95 315.95,-73.22 320.61,-68"/>
</g>
<!-- else_example -->
<g id="node11" class="node">
<title>else_example</title>
<path fill="lightgreen" stroke="black" d="M415.62,-58C415.62,-58 360.62,-58 360.62,-58 354.62,-58 348.62,-52 348.62,-46 348.62,-46 348.62,-34 348.62,-34 348.62,-28 354.62,-22 360.62,-22 360.62,-22 415.62,-22 415.62,-22 421.62,-22 427.62,-28 427.62,-34 427.62,-34 427.62,-46 427.62,-46 427.62,-52 421.62,-58 415.62,-58"/>
<text xml:space="preserve" text-anchor="middle" x="388.12" y="-42.5" font-family="Arial" font-size="10.00">Inventory Alert</text>
<text xml:space="preserve" text-anchor="middle" x="388.12" y="-30.5" font-family="Arial" font-size="10.00">System</text>
</g>
<!-- if_else&#45;&gt;else_example -->
<g id="edge10" class="edge">
<title>if_else&#45;&gt;else_example</title>
<path fill="none" stroke="darkgray" stroke-width="1.5" d="M388.12,-115.7C388.12,-102.97 388.12,-85.38 388.12,-70.46"/>
<polygon fill="darkgray" stroke="darkgray" stroke-width="1.5" points="391.63,-70.5 388.13,-60.5 384.63,-70.5 391.63,-70.5"/>
</g>
<!-- elif_syntax -->
<g id="node12" class="node">
<title>elif_syntax</title>
<polygon fill="lightyellow" stroke="black" points="546.12,-62 446.12,-62 446.12,-18 552.12,-18 552.12,-56 546.12,-62"/>
<polyline fill="none" stroke="black" points="546.12,-62 546.12,-56"/>
<polyline fill="none" stroke="black" points="552.12,-56 546.12,-56"/>
<text xml:space="preserve" text-anchor="middle" x="499.12" y="-48.5" font-family="Arial" font-size="10.00">• Multiple Conditions</text>
<text xml:space="preserve" text-anchor="middle" x="499.12" y="-36.5" font-family="Arial" font-size="10.00">• Order Matters</text>
<text xml:space="preserve" text-anchor="middle" x="499.12" y="-24.5" font-family="Arial" font-size="10.00">• First Match Wins</text>
</g>
<!-- if_elif_else&#45;&gt;elif_syntax -->
<g id="edge11" class="edge">
<title>if_elif_else&#45;&gt;elif_syntax</title>
<path fill="none" stroke="darkgray" stroke-width="1.5" d="M587.62,-115.7C572.39,-102.84 551.27,-85.01 533.47,-69.99"/>
<polygon fill="darkgray" stroke="darkgray" stroke-width="1.5" points="536.16,-67.68 526.26,-63.9 531.64,-73.03 536.16,-67.68"/>
</g>
<!-- elif_example -->
<g id="node13" class="node">
<title>elif_example</title>
<path fill="lightgreen" stroke="black" d="M634.12,-58C634.12,-58 582.12,-58 582.12,-58 576.12,-58 570.12,-52 570.12,-46 570.12,-46 570.12,-34 570.12,-34 570.12,-28 576.12,-22 582.12,-22 582.12,-22 634.12,-22 634.12,-22 640.12,-22 646.12,-28 646.12,-34 646.12,-34 646.12,-46 646.12,-46 646.12,-52 640.12,-58 634.12,-58"/>
<text xml:space="preserve" text-anchor="middle" x="608.12" y="-42.5" font-family="Arial" font-size="10.00">Customer</text>
<text xml:space="preserve" text-anchor="middle" x="608.12" y="-30.5" font-family="Arial" font-size="10.00">Segmentation</text>
</g>
<!-- if_elif_else&#45;&gt;elif_example -->
<g id="edge12" class="edge">
<title>if_elif_else&#45;&gt;elif_example</title>
<path fill="none" stroke="darkgray" stroke-width="1.5" d="M608.12,-115.7C608.12,-102.97 608.12,-85.38 608.12,-70.46"/>
<polygon fill="darkgray" stroke="darkgray" stroke-width="1.5" points="611.63,-70.5 608.13,-60.5 604.63,-70.5 611.63,-70.5"/>
</g>
<!-- comp_types -->
<g id="node14" class="node">
<title>comp_types</title>
<polygon fill="lightyellow" stroke="black" points="765.88,-80 664.38,-80 664.38,0 771.88,0 771.88,-74 765.88,-80"/>
<polyline fill="none" stroke="black" points="765.88,-80 765.88,-74"/>
<polyline fill="none" stroke="black" points="771.88,-74 765.88,-74"/>
<text xml:space="preserve" text-anchor="middle" x="718.12" y="-66.5" font-family="Arial" font-size="10.00">• == Equal to</text>
<text xml:space="preserve" text-anchor="middle" x="718.12" y="-54.5" font-family="Arial" font-size="10.00">• != Not equal to</text>
<text xml:space="preserve" text-anchor="middle" x="718.12" y="-42.5" font-family="Arial" font-size="10.00">• &gt; Greater than</text>
<text xml:space="preserve" text-anchor="middle" x="718.12" y="-30.5" font-family="Arial" font-size="10.00">• &lt; Less than</text>
<text xml:space="preserve" text-anchor="middle" x="718.12" y="-18.5" font-family="Arial" font-size="10.00">• &gt;= Greater or equal</text>
<text xml:space="preserve" text-anchor="middle" x="718.12" y="-6.5" font-family="Arial" font-size="10.00">• &lt;= Less or equal</text>
</g>
<!-- comparison&#45;&gt;comp_types -->
<g id="edge13" class="edge">
<title>comparison&#45;&gt;comp_types</title>
<path fill="none" stroke="darkgray" stroke-width="1.5" d="M706.76,-115.7C707.79,-108.9 709.04,-100.72 710.32,-92.3"/>
<polygon fill="darkgray" stroke="darkgray" stroke-width="1.5" points="713.75,-93.01 711.8,-82.59 706.83,-91.95 713.75,-93.01"/>
</g>
<!-- logical_types -->
<g id="node15" class="node">
<title>logical_types</title>
<polygon fill="lightyellow" stroke="black" points="896.12,-62 790.12,-62 790.12,-18 902.12,-18 902.12,-56 896.12,-62"/>
<polyline fill="none" stroke="black" points="896.12,-62 896.12,-56"/>
<polyline fill="none" stroke="black" points="902.12,-56 896.12,-56"/>
<text xml:space="preserve" text-anchor="middle" x="846.12" y="-48.5" font-family="Arial" font-size="10.00">• and (Both true)</text>
<text xml:space="preserve" text-anchor="middle" x="846.12" y="-36.5" font-family="Arial" font-size="10.00">• or (At least one true)</text>
<text xml:space="preserve" text-anchor="middle" x="846.12" y="-24.5" font-family="Arial" font-size="10.00">• not (Invert truth)</text>
</g>
<!-- logical&#45;&gt;logical_types -->
<g id="edge14" class="edge">
<title>logical&#45;&gt;logical_types</title>
<path fill="none" stroke="darkgray" stroke-width="1.5" d="M846.12,-115.7C846.12,-104.14 846.12,-88.56 846.12,-74.62"/>
<polygon fill="darkgray" stroke="darkgray" stroke-width="1.5" points="849.63,-74.71 846.13,-64.71 842.63,-74.71 849.63,-74.71"/>
</g>
<!-- complex_cond -->
<g id="node16" class="node">
<title>complex_cond</title>
<path fill="lightgreen" stroke="black" d="M970.38,-58C970.38,-58 931.88,-58 931.88,-58 925.88,-58 919.88,-52 919.88,-46 919.88,-46 919.88,-34 919.88,-34 919.88,-28 925.88,-22 931.88,-22 931.88,-22 970.38,-22 970.38,-22 976.38,-22 982.38,-28 982.38,-34 982.38,-34 982.38,-46 982.38,-46 982.38,-52 976.38,-58 970.38,-58"/>
<text xml:space="preserve" text-anchor="middle" x="951.12" y="-42.5" font-family="Arial" font-size="10.00">Complex</text>
<text xml:space="preserve" text-anchor="middle" x="951.12" y="-30.5" font-family="Arial" font-size="10.00">Conditions</text>
</g>
<!-- logical&#45;&gt;complex_cond -->
<g id="edge15" class="edge">
<title>logical&#45;&gt;complex_cond</title>
<path fill="none" stroke="darkgray" stroke-width="1.5" d="M868.49,-115.57C881.22,-105.45 897.33,-92.31 911.12,-80 915.8,-75.83 920.66,-71.28 925.32,-66.81"/>
<polygon fill="darkgray" stroke="darkgray" stroke-width="1.5" points="927.58,-69.5 932.3,-60.01 922.69,-64.49 927.58,-69.5"/>
</g>
<!-- nested_use -->
<g id="node17" class="node">
<title>nested_use</title>
<polygon fill="lightyellow" stroke="black" points="1117.38,-62 1000.88,-62 1000.88,-18 1123.38,-18 1123.38,-56 1117.38,-62"/>
<polyline fill="none" stroke="black" points="1117.38,-62 1117.38,-56"/>
<polyline fill="none" stroke="black" points="1123.38,-56 1117.38,-56"/>
<text xml:space="preserve" text-anchor="middle" x="1062.12" y="-48.5" font-family="Arial" font-size="10.00">• When to Use</text>
<text xml:space="preserve" text-anchor="middle" x="1062.12" y="-36.5" font-family="Arial" font-size="10.00">• Avoiding Deep Nesting</text>
<text xml:space="preserve" text-anchor="middle" x="1062.12" y="-24.5" font-family="Arial" font-size="10.00">• Readability</text>
</g>
<!-- nested&#45;&gt;nested_use -->
<g id="edge16" class="edge">
<title>nested&#45;&gt;nested_use</title>
<path fill="none" stroke="darkgray" stroke-width="1.5" d="M1062.12,-115.7C1062.12,-104.14 1062.12,-88.56 1062.12,-74.62"/>
<polygon fill="darkgray" stroke="darkgray" stroke-width="1.5" points="1065.63,-74.71 1062.13,-64.71 1058.63,-74.71 1065.63,-74.71"/>
</g>
<!-- nested_example -->
<g id="node18" class="node">
<title>nested_example</title>
<path fill="lightgreen" stroke="black" d="M1189.25,-58C1189.25,-58 1153,-58 1153,-58 1147,-58 1141,-52 1141,-46 1141,-46 1141,-34 1141,-34 1141,-28 1147,-22 1153,-22 1153,-22 1189.25,-22 1189.25,-22 1195.25,-22 1201.25,-28 1201.25,-34 1201.25,-34 1201.25,-46 1201.25,-46 1201.25,-52 1195.25,-58 1189.25,-58"/>
<text xml:space="preserve" text-anchor="middle" x="1171.12" y="-42.5" font-family="Arial" font-size="10.00">Shipping</text>
<text xml:space="preserve" text-anchor="middle" x="1171.12" y="-30.5" font-family="Arial" font-size="10.00">Calculator</text>
</g>
<!-- nested&#45;&gt;nested_example -->
<g id="edge17" class="edge">
<title>nested&#45;&gt;nested_example</title>
<path fill="none" stroke="darkgray" stroke-width="1.5" d="M1086.74,-115.64C1100.46,-105.65 1117.64,-92.62 1132.12,-80 1136.88,-75.86 1141.76,-71.27 1146.4,-66.74"/>
<polygon fill="darkgray" stroke="darkgray" stroke-width="1.5" points="1148.71,-69.38 1153.31,-59.83 1143.76,-64.43 1148.71,-69.38"/>
</g>
</g>
</svg>
