<?xml version="1.0" encoding="UTF-8" standalone="no"?>
<!DOCTYPE svg PUBLIC "-//W3C//DTD SVG 1.1//EN"
 "http://www.w3.org/Graphics/SVG/1.1/DTD/svg11.dtd">
<!-- Generated by graphviz version 13.1.0 (20250701.0955)
 -->
<!-- Title: Module10_MindMap Pages: 1 -->
<svg width="662pt" height="667pt"
 viewBox="0.00 0.00 662.00 667.00" xmlns="http://www.w3.org/2000/svg" xmlns:xlink="http://www.w3.org/1999/xlink">
<g id="graph0" class="graph" transform="scale(1 1) rotate(0) translate(4 662.52)">
<title>Module10_MindMap</title>
<polygon fill="white" stroke="none" points="-4,4 -4,-662.52 658.26,-662.52 658.26,4 -4,4"/>
<text xml:space="preserve" text-anchor="middle" x="327.13" y="-641.22" font-family="Arial" font-size="14.00">Module 10: Data Cleaning &amp; Manipulation</text>
<!-- main -->
<g id="node1" class="node">
<title>main</title>
<ellipse fill="#3498db" stroke="#333333" cx="323.69" cy="-309.85" rx="43.2" ry="25.24"/>
<text xml:space="preserve" text-anchor="middle" x="323.69" y="-312.7" font-family="Arial" font-size="12.00" fill="white">Data</text>
<text xml:space="preserve" text-anchor="middle" x="323.69" y="-298.45" font-family="Arial" font-size="12.00" fill="white">Cleaning</text>
</g>
<!-- missing -->
<g id="node2" class="node">
<title>missing</title>
<path fill="#e74c3c" stroke="#333333" d="M349.69,-504.28C349.69,-504.28 296.26,-504.28 296.26,-504.28 292.66,-504.28 289.06,-500.68 289.06,-497.08 289.06,-497.08 289.06,-489.88 289.06,-489.88 289.06,-486.28 292.66,-482.68 296.26,-482.68 296.26,-482.68 349.69,-482.68 349.69,-482.68 353.29,-482.68 356.89,-486.28 356.89,-489.88 356.89,-489.88 356.89,-497.08 356.89,-497.08 356.89,-500.68 353.29,-504.28 349.69,-504.28"/>
<text xml:space="preserve" text-anchor="middle" x="322.98" y="-489.98" font-family="Arial" font-size="10.00" fill="white">Missing Data</text>
</g>
<!-- main&#45;&gt;missing -->
<g id="edge1" class="edge">
<title>main&#45;&gt;missing</title>
<path fill="none" stroke="#666666" stroke-width="0.8" d="M323.29,-335.44C321.81,-430.57 321.77,-441.11 322.72,-482.28"/>
</g>
<!-- types -->
<g id="node3" class="node">
<title>types</title>
<path fill="#e67e22" stroke="#333333" d="M520.66,-373.79C520.66,-373.79 475.48,-373.79 475.48,-373.79 471.88,-373.79 468.28,-370.19 468.28,-366.59 468.28,-366.59 468.28,-359.39 468.28,-359.39 468.28,-355.79 471.88,-352.19 475.48,-352.19 475.48,-352.19 520.66,-352.19 520.66,-352.19 524.26,-352.19 527.86,-355.79 527.86,-359.39 527.86,-359.39 527.86,-366.59 527.86,-366.59 527.86,-370.19 524.26,-373.79 520.66,-373.79"/>
<text xml:space="preserve" text-anchor="middle" x="498.07" y="-359.49" font-family="Arial" font-size="10.00" fill="white">Data Types</text>
</g>
<!-- main&#45;&gt;types -->
<g id="edge2" class="edge">
<title>main&#45;&gt;types</title>
<path fill="none" stroke="#666666" stroke-width="0.8" d="M362.91,-320.92C424.8,-338.43 444.18,-344.13 468.1,-352.37"/>
</g>
<!-- columns -->
<g id="node4" class="node">
<title>columns</title>
<path fill="#9b59b6" stroke="#333333" d="M477.78,-155.48C477.78,-155.48 398.1,-155.48 398.1,-155.48 394.5,-155.48 390.9,-151.88 390.9,-148.28 390.9,-148.28 390.9,-141.08 390.9,-141.08 390.9,-137.48 394.5,-133.88 398.1,-133.88 398.1,-133.88 477.78,-133.88 477.78,-133.88 481.38,-133.88 484.98,-137.48 484.98,-141.08 484.98,-141.08 484.98,-148.28 484.98,-148.28 484.98,-151.88 481.38,-155.48 477.78,-155.48"/>
<text xml:space="preserve" text-anchor="middle" x="437.94" y="-141.18" font-family="Arial" font-size="10.00" fill="white">Column Operations</text>
</g>
<!-- main&#45;&gt;columns -->
<g id="edge3" class="edge">
<title>main&#45;&gt;columns</title>
<path fill="none" stroke="#666666" stroke-width="0.8" d="M339.55,-285.94C396,-200.89 403.12,-190.55 429.5,-155.78"/>
</g>
<!-- functions -->
<g id="node5" class="node">
<title>functions</title>
<path fill="#2ecc71" stroke="#333333" d="M249.85,-158.08C249.85,-158.08 166.42,-158.08 166.42,-158.08 162.82,-158.08 159.22,-154.48 159.22,-150.88 159.22,-150.88 159.22,-143.68 159.22,-143.68 159.22,-140.08 162.82,-136.48 166.42,-136.48 166.42,-136.48 249.85,-136.48 249.85,-136.48 253.45,-136.48 257.05,-140.08 257.05,-143.68 257.05,-143.68 257.05,-150.88 257.05,-150.88 257.05,-154.48 253.45,-158.08 249.85,-158.08"/>
<text xml:space="preserve" text-anchor="middle" x="208.13" y="-143.78" font-family="Arial" font-size="10.00" fill="white">Function Application</text>
</g>
<!-- main&#45;&gt;functions -->
<g id="edge4" class="edge">
<title>main&#45;&gt;functions</title>
<path fill="none" stroke="#666666" stroke-width="0.8" d="M307.07,-286.25C248.83,-203.61 241.6,-193.43 216.24,-158.45"/>
</g>
<!-- duplicates -->
<g id="node6" class="node">
<title>duplicates</title>
<path fill="#f1c40f" stroke="#333333" d="M190.5,-373.96C190.5,-373.96 104.82,-373.96 104.82,-373.96 101.22,-373.96 97.62,-370.36 97.62,-366.76 97.62,-366.76 97.62,-359.56 97.62,-359.56 97.62,-355.96 101.22,-352.36 104.82,-352.36 104.82,-352.36 190.5,-352.36 190.5,-352.36 194.1,-352.36 197.7,-355.96 197.7,-359.56 197.7,-359.56 197.7,-366.76 197.7,-366.76 197.7,-370.36 194.1,-373.96 190.5,-373.96"/>
<text xml:space="preserve" text-anchor="middle" x="147.66" y="-359.66" font-family="Arial" font-size="10.00" fill="#333333">Duplicates &amp; Sorting</text>
</g>
<!-- main&#45;&gt;duplicates -->
<g id="edge5" class="edge">
<title>main&#45;&gt;duplicates</title>
<path fill="none" stroke="#666666" stroke-width="0.8" d="M284.34,-320.7C222.28,-337.85 202.43,-343.6 178.64,-351.92"/>
</g>
<!-- dropna -->
<g id="node7" class="node">
<title>dropna</title>
<path fill="#fadbd8" stroke="#333333" d="M400.04,-576.77C400.04,-576.77 364.04,-576.77 364.04,-576.77 360.44,-576.77 356.84,-573.17 356.84,-569.57 356.84,-569.57 356.84,-562.37 356.84,-562.37 356.84,-558.77 360.44,-555.17 364.04,-555.17 364.04,-555.17 400.04,-555.17 400.04,-555.17 403.64,-555.17 407.24,-558.77 407.24,-562.37 407.24,-562.37 407.24,-569.57 407.24,-569.57 407.24,-573.17 403.64,-576.77 400.04,-576.77"/>
<text xml:space="preserve" text-anchor="middle" x="382.04" y="-562.47" font-family="Arial" font-size="10.00">.dropna()</text>
</g>
<!-- missing&#45;&gt;dropna -->
<g id="edge6" class="edge">
<title>missing&#45;&gt;dropna</title>
<path fill="none" stroke="#666666" stroke-width="0.8" d="M329.39,-504.54C347.9,-536.4 353.93,-545.73 365.57,-554.75"/>
</g>
<!-- fillna -->
<g id="node8" class="node">
<title>fillna</title>
<path fill="#fadbd8" stroke="#333333" d="M341.59,-576.77C341.59,-576.77 305.59,-576.77 305.59,-576.77 301.99,-576.77 298.39,-573.17 298.39,-569.57 298.39,-569.57 298.39,-562.37 298.39,-562.37 298.39,-558.77 301.99,-555.17 305.59,-555.17 305.59,-555.17 341.59,-555.17 341.59,-555.17 345.19,-555.17 348.79,-558.77 348.79,-562.37 348.79,-562.37 348.79,-569.57 348.79,-569.57 348.79,-573.17 345.19,-576.77 341.59,-576.77"/>
<text xml:space="preserve" text-anchor="middle" x="323.59" y="-562.47" font-family="Arial" font-size="10.00">.fillna()</text>
</g>
<!-- missing&#45;&gt;fillna -->
<g id="edge7" class="edge">
<title>missing&#45;&gt;fillna</title>
<path fill="none" stroke="#666666" stroke-width="0.8" d="M322.99,-504.73C323.02,-535.69 323.05,-543.44 323.31,-554.89"/>
</g>
<!-- fill_value -->
<g id="node9" class="node">
<title>fill_value</title>
<path fill="#fadbd8" stroke="#333333" d="M283.17,-576.77C283.17,-576.77 242.49,-576.77 242.49,-576.77 238.89,-576.77 235.29,-573.17 235.29,-569.57 235.29,-569.57 235.29,-562.37 235.29,-562.37 235.29,-558.77 238.89,-555.17 242.49,-555.17 242.49,-555.17 283.17,-555.17 283.17,-555.17 286.77,-555.17 290.37,-558.77 290.37,-562.37 290.37,-562.37 290.37,-569.57 290.37,-569.57 290.37,-573.17 286.77,-576.77 283.17,-576.77"/>
<text xml:space="preserve" text-anchor="middle" x="262.83" y="-562.47" font-family="Arial" font-size="10.00">Fill Values</text>
</g>
<!-- missing&#45;&gt;fill_value -->
<g id="edge8" class="edge">
<title>missing&#45;&gt;fill_value</title>
<path fill="none" stroke="#666666" stroke-width="0.8" d="M316.3,-504.54C297.02,-536.42 290.79,-545.76 279.19,-554.76"/>
</g>
<!-- fill_methods -->
<g id="node10" class="node">
<title>fill_methods</title>
<path fill="#fadbd8" stroke="#333333" d="M391.11,-634.77C391.11,-634.77 342.18,-634.77 342.18,-634.77 338.58,-634.77 334.98,-631.17 334.98,-627.57 334.98,-627.57 334.98,-620.37 334.98,-620.37 334.98,-616.77 338.58,-613.17 342.18,-613.17 342.18,-613.17 391.11,-613.17 391.11,-613.17 394.71,-613.17 398.31,-616.77 398.31,-620.37 398.31,-620.37 398.31,-627.57 398.31,-627.57 398.31,-631.17 394.71,-634.77 391.11,-634.77"/>
<text xml:space="preserve" text-anchor="middle" x="366.65" y="-620.47" font-family="Arial" font-size="10.00">Fill Methods</text>
</g>
<!-- missing&#45;&gt;fill_methods -->
<g id="edge9" class="edge">
<title>missing&#45;&gt;fill_methods</title>
<path fill="none" stroke="#666666" stroke-width="0.8" d="M325.8,-504.43C344.47,-576.97 347.2,-586.35 360.83,-612.82"/>
</g>
<!-- thresholds -->
<g id="node11" class="node">
<title>thresholds</title>
<path fill="#fadbd8" stroke="#333333" d="M301.04,-634.77C301.04,-634.77 257.36,-634.77 257.36,-634.77 253.76,-634.77 250.16,-631.17 250.16,-627.57 250.16,-627.57 250.16,-620.37 250.16,-620.37 250.16,-616.77 253.76,-613.17 257.36,-613.17 257.36,-613.17 301.04,-613.17 301.04,-613.17 304.64,-613.17 308.24,-616.77 308.24,-620.37 308.24,-620.37 308.24,-627.57 308.24,-627.57 308.24,-631.17 304.64,-634.77 301.04,-634.77"/>
<text xml:space="preserve" text-anchor="middle" x="279.2" y="-620.47" font-family="Arial" font-size="10.00">Thresholds</text>
</g>
<!-- missing&#45;&gt;thresholds -->
<g id="edge10" class="edge">
<title>missing&#45;&gt;thresholds</title>
<path fill="none" stroke="#666666" stroke-width="0.8" d="M320.04,-504.42C300.59,-576.9 297.8,-586.28 284.75,-612.8"/>
</g>
<!-- astype -->
<g id="node12" class="node">
<title>astype</title>
<path fill="#fae5d3" stroke="#333333" d="M602.36,-417.27C602.36,-417.27 566.36,-417.27 566.36,-417.27 562.76,-417.27 559.16,-413.67 559.16,-410.07 559.16,-410.07 559.16,-402.87 559.16,-402.87 559.16,-399.27 562.76,-395.67 566.36,-395.67 566.36,-395.67 602.36,-395.67 602.36,-395.67 605.96,-395.67 609.56,-399.27 609.56,-402.87 609.56,-402.87 609.56,-410.07 609.56,-410.07 609.56,-413.67 605.96,-417.27 602.36,-417.27"/>
<text xml:space="preserve" text-anchor="middle" x="584.36" y="-402.97" font-family="Arial" font-size="10.00">.astype()</text>
</g>
<!-- types&#45;&gt;astype -->
<g id="edge11" class="edge">
<title>types&#45;&gt;astype</title>
<path fill="none" stroke="#666666" stroke-width="0.8" d="M523.28,-374.28C546.98,-384.95 556.87,-389.67 566.37,-395.2"/>
</g>
<!-- to_numeric -->
<g id="node13" class="node">
<title>to_numeric</title>
<path fill="#fae5d3" stroke="#333333" d="M644.96,-359.29C644.96,-359.29 581.78,-359.29 581.78,-359.29 578.18,-359.29 574.58,-355.69 574.58,-352.09 574.58,-352.09 574.58,-344.89 574.58,-344.89 574.58,-341.29 578.18,-337.69 581.78,-337.69 581.78,-337.69 644.96,-337.69 644.96,-337.69 648.56,-337.69 652.16,-341.29 652.16,-344.89 652.16,-344.89 652.16,-352.09 652.16,-352.09 652.16,-355.69 648.56,-359.29 644.96,-359.29"/>
<text xml:space="preserve" text-anchor="middle" x="613.37" y="-344.99" font-family="Arial" font-size="10.00">pd.to_numeric()</text>
</g>
<!-- types&#45;&gt;to_numeric -->
<g id="edge12" class="edge">
<title>types&#45;&gt;to_numeric</title>
<path fill="none" stroke="#666666" stroke-width="0.8" d="M528.31,-361.68C550.45,-360.67 563.79,-359.84 574.23,-358.45"/>
</g>
<!-- to_datetime -->
<g id="node14" class="node">
<title>to_datetime</title>
<path fill="#fae5d3" stroke="#333333" d="M647.06,-301.34C647.06,-301.34 580.88,-301.34 580.88,-301.34 577.28,-301.34 573.68,-297.74 573.68,-294.14 573.68,-294.14 573.68,-286.94 573.68,-286.94 573.68,-283.34 577.28,-279.74 580.88,-279.74 580.88,-279.74 647.06,-279.74 647.06,-279.74 650.66,-279.74 654.26,-283.34 654.26,-286.94 654.26,-286.94 654.26,-294.14 654.26,-294.14 654.26,-297.74 650.66,-301.34 647.06,-301.34"/>
<text xml:space="preserve" text-anchor="middle" x="613.97" y="-287.04" font-family="Arial" font-size="10.00">pd.to_datetime()</text>
</g>
<!-- types&#45;&gt;to_datetime -->
<g id="edge13" class="edge">
<title>types&#45;&gt;to_datetime</title>
<path fill="none" stroke="#666666" stroke-width="0.8" d="M525.11,-351.81C576.44,-330.41 585.31,-324.73 604.81,-301.61"/>
</g>
<!-- errors_coerce -->
<g id="node15" class="node">
<title>errors_coerce</title>
<path fill="#fae5d3" stroke="#333333" d="M617.56,-243.26C617.56,-243.26 557.38,-243.26 557.38,-243.26 553.78,-243.26 550.18,-239.66 550.18,-236.06 550.18,-236.06 550.18,-228.86 550.18,-228.86 550.18,-225.26 553.78,-221.66 557.38,-221.66 557.38,-221.66 617.56,-221.66 617.56,-221.66 621.16,-221.66 624.76,-225.26 624.76,-228.86 624.76,-228.86 624.76,-236.06 624.76,-236.06 624.76,-239.66 621.16,-243.26 617.56,-243.26"/>
<text xml:space="preserve" text-anchor="middle" x="587.47" y="-228.96" font-family="Arial" font-size="10.00">errors=&#39;coerce&#39;</text>
</g>
<!-- types&#45;&gt;errors_coerce -->
<g id="edge14" class="edge">
<title>types&#45;&gt;errors_coerce</title>
<path fill="none" stroke="#666666" stroke-width="0.8" d="M510.3,-352.04C570.07,-298.46 574.66,-292 585.13,-243.49"/>
</g>
<!-- add_columns -->
<g id="node16" class="node">
<title>add_columns</title>
<path fill="#e8daef" stroke="#333333" d="M562.45,-111.91C562.45,-111.91 494.77,-111.91 494.77,-111.91 491.17,-111.91 487.57,-108.31 487.57,-104.71 487.57,-104.71 487.57,-97.51 487.57,-97.51 487.57,-93.91 491.17,-90.31 494.77,-90.31 494.77,-90.31 562.45,-90.31 562.45,-90.31 566.05,-90.31 569.65,-93.91 569.65,-97.51 569.65,-97.51 569.65,-104.71 569.65,-104.71 569.65,-108.31 566.05,-111.91 562.45,-111.91"/>
<text xml:space="preserve" text-anchor="middle" x="528.61" y="-97.61" font-family="Arial" font-size="10.00">Adding Columns</text>
</g>
<!-- columns&#45;&gt;add_columns -->
<g id="edge15" class="edge">
<title>columns&#45;&gt;add_columns</title>
<path fill="none" stroke="#666666" stroke-width="0.8" d="M455.26,-133.5C471.6,-122.99 481.95,-116.58 490.32,-112.32"/>
</g>
<!-- drop_columns -->
<g id="node17" class="node">
<title>drop_columns</title>
<path fill="#e8daef" stroke="#333333" d="M516.16,-68.19C516.16,-68.19 434.23,-68.19 434.23,-68.19 430.63,-68.19 427.03,-64.59 427.03,-60.99 427.03,-60.99 427.03,-53.79 427.03,-53.79 427.03,-50.19 430.63,-46.59 434.23,-46.59 434.23,-46.59 516.16,-46.59 516.16,-46.59 519.76,-46.59 523.36,-50.19 523.36,-53.79 523.36,-53.79 523.36,-60.99 523.36,-60.99 523.36,-64.59 519.76,-68.19 516.16,-68.19"/>
<text xml:space="preserve" text-anchor="middle" x="475.19" y="-53.89" font-family="Arial" font-size="10.00">Removing Columns</text>
</g>
<!-- columns&#45;&gt;drop_columns -->
<g id="edge16" class="edge">
<title>columns&#45;&gt;drop_columns</title>
<path fill="none" stroke="#666666" stroke-width="0.8" d="M443.23,-133.51C462.56,-92.64 466.11,-84.75 471.6,-68.35"/>
</g>
<!-- rename_columns -->
<g id="node18" class="node">
<title>rename_columns</title>
<path fill="#e8daef" stroke="#333333" d="M456.99,-38.56C456.99,-38.56 375.06,-38.56 375.06,-38.56 371.46,-38.56 367.86,-34.96 367.86,-31.36 367.86,-31.36 367.86,-24.16 367.86,-24.16 367.86,-20.56 371.46,-16.96 375.06,-16.96 375.06,-16.96 456.99,-16.96 456.99,-16.96 460.59,-16.96 464.19,-20.56 464.19,-24.16 464.19,-24.16 464.19,-31.36 464.19,-31.36 464.19,-34.96 460.59,-38.56 456.99,-38.56"/>
<text xml:space="preserve" text-anchor="middle" x="416.02" y="-24.26" font-family="Arial" font-size="10.00">Renaming Columns</text>
</g>
<!-- columns&#45;&gt;rename_columns -->
<g id="edge17" class="edge">
<title>columns&#45;&gt;rename_columns</title>
<path fill="none" stroke="#666666" stroke-width="0.8" d="M437.73,-133.48C436.53,-72.4 435.65,-63.92 422.11,-38.8"/>
</g>
<!-- apply_function -->
<g id="node19" class="node">
<title>apply_function</title>
<path fill="#d5f5e3" stroke="#333333" d="M136.12,-115.15C136.12,-115.15 100.12,-115.15 100.12,-115.15 96.52,-115.15 92.92,-111.55 92.92,-107.95 92.92,-107.95 92.92,-100.75 92.92,-100.75 92.92,-97.15 96.52,-93.55 100.12,-93.55 100.12,-93.55 136.12,-93.55 136.12,-93.55 139.72,-93.55 143.32,-97.15 143.32,-100.75 143.32,-100.75 143.32,-107.95 143.32,-107.95 143.32,-111.55 139.72,-115.15 136.12,-115.15"/>
<text xml:space="preserve" text-anchor="middle" x="118.12" y="-100.85" font-family="Arial" font-size="10.00">.apply()</text>
</g>
<!-- functions&#45;&gt;apply_function -->
<g id="edge18" class="edge">
<title>functions&#45;&gt;apply_function</title>
<path fill="none" stroke="#666666" stroke-width="0.8" d="M190.26,-136.01C165.57,-120.52 154.7,-114.22 143.58,-110.41"/>
</g>
<!-- map_function -->
<g id="node20" class="node">
<title>map_function</title>
<path fill="#d5f5e3" stroke="#333333" d="M187.8,-72.64C187.8,-72.64 151.8,-72.64 151.8,-72.64 148.2,-72.64 144.6,-69.04 144.6,-65.44 144.6,-65.44 144.6,-58.24 144.6,-58.24 144.6,-54.64 148.2,-51.04 151.8,-51.04 151.8,-51.04 187.8,-51.04 187.8,-51.04 191.4,-51.04 195,-54.64 195,-58.24 195,-58.24 195,-65.44 195,-65.44 195,-69.04 191.4,-72.64 187.8,-72.64"/>
<text xml:space="preserve" text-anchor="middle" x="169.8" y="-58.34" font-family="Arial" font-size="10.00">.map()</text>
</g>
<!-- functions&#45;&gt;map_function -->
<g id="edge19" class="edge">
<title>functions&#45;&gt;map_function</title>
<path fill="none" stroke="#666666" stroke-width="0.8" d="M202.51,-136.09C182.81,-96.87 179.04,-88.94 173.57,-73.09"/>
</g>
<!-- str_methods -->
<g id="node21" class="node">
<title>str_methods</title>
<path fill="#d5f5e3" stroke="#333333" d="M254.15,-43.03C254.15,-43.03 203.72,-43.03 203.72,-43.03 200.12,-43.03 196.52,-39.43 196.52,-35.83 196.52,-35.83 196.52,-28.63 196.52,-28.63 196.52,-25.03 200.12,-21.43 203.72,-21.43 203.72,-21.43 254.15,-21.43 254.15,-21.43 257.75,-21.43 261.35,-25.03 261.35,-28.63 261.35,-28.63 261.35,-35.83 261.35,-35.83 261.35,-39.43 257.75,-43.03 254.15,-43.03"/>
<text xml:space="preserve" text-anchor="middle" x="228.93" y="-28.73" font-family="Arial" font-size="10.00">.str Methods</text>
</g>
<!-- functions&#45;&gt;str_methods -->
<g id="edge20" class="edge">
<title>functions&#45;&gt;str_methods</title>
<path fill="none" stroke="#666666" stroke-width="0.8" d="M208.18,-136.31C208.47,-76.5 209.25,-68.18 222.82,-43.21"/>
</g>
<!-- lambda_funcs -->
<g id="node22" class="node">
<title>lambda_funcs</title>
<path fill="#d5f5e3" stroke="#333333" d="M352.56,-21.6C352.56,-21.6 276.63,-21.6 276.63,-21.6 273.03,-21.6 269.43,-18 269.43,-14.4 269.43,-14.4 269.43,-7.2 269.43,-7.2 269.43,-3.6 273.03,0 276.63,0 276.63,0 352.56,0 352.56,0 356.16,0 359.76,-3.6 359.76,-7.2 359.76,-7.2 359.76,-14.4 359.76,-14.4 359.76,-18 356.16,-21.6 352.56,-21.6"/>
<text xml:space="preserve" text-anchor="middle" x="314.6" y="-7.3" font-family="Arial" font-size="10.00">Lambda Functions</text>
</g>
<!-- functions&#45;&gt;lambda_funcs -->
<g id="edge21" class="edge">
<title>functions&#45;&gt;lambda_funcs</title>
<path fill="none" stroke="#666666" stroke-width="0.8" d="M212.98,-136.1C247.41,-56.75 253.41,-46.01 294.87,-21.94"/>
</g>
<!-- sort_values -->
<g id="node23" class="node">
<title>sort_values</title>
<path fill="#fef9e7" stroke="#333333" d="M89.02,-417.3C89.02,-417.3 34.09,-417.3 34.09,-417.3 30.49,-417.3 26.89,-413.7 26.89,-410.1 26.89,-410.1 26.89,-402.9 26.89,-402.9 26.89,-399.3 30.49,-395.7 34.09,-395.7 34.09,-395.7 89.02,-395.7 89.02,-395.7 92.62,-395.7 96.22,-399.3 96.22,-402.9 96.22,-402.9 96.22,-410.1 96.22,-410.1 96.22,-413.7 92.62,-417.3 89.02,-417.3"/>
<text xml:space="preserve" text-anchor="middle" x="61.55" y="-403" font-family="Arial" font-size="10.00">.sort_values()</text>
</g>
<!-- duplicates&#45;&gt;sort_values -->
<g id="edge22" class="edge">
<title>duplicates&#45;&gt;sort_values</title>
<path fill="none" stroke="#666666" stroke-width="0.8" d="M122.23,-374.46C98.42,-385.08 88.64,-389.74 79.09,-395.37"/>
</g>
<!-- sort_index -->
<g id="node24" class="node">
<title>sort_index</title>
<path fill="#fef9e7" stroke="#333333" d="M57.46,-359.31C57.46,-359.31 7.78,-359.31 7.78,-359.31 4.18,-359.31 0.58,-355.71 0.58,-352.11 0.58,-352.11 0.58,-344.91 0.58,-344.91 0.58,-341.31 4.18,-337.71 7.78,-337.71 7.78,-337.71 57.46,-337.71 57.46,-337.71 61.06,-337.71 64.66,-341.31 64.66,-344.91 64.66,-344.91 64.66,-352.11 64.66,-352.11 64.66,-355.71 61.06,-359.31 57.46,-359.31"/>
<text xml:space="preserve" text-anchor="middle" x="32.62" y="-345.01" font-family="Arial" font-size="10.00">.sort_index()</text>
</g>
<!-- duplicates&#45;&gt;sort_index -->
<g id="edge23" class="edge">
<title>duplicates&#45;&gt;sort_index</title>
<path fill="none" stroke="#666666" stroke-width="0.8" d="M97.38,-360.71C82.81,-359.83 73.36,-358.9 65.14,-357.44"/>
</g>
<!-- duplicated -->
<g id="node25" class="node">
<title>duplicated</title>
<path fill="#fef9e7" stroke="#333333" d="M56.13,-301.5C56.13,-301.5 7.2,-301.5 7.2,-301.5 3.6,-301.5 0,-297.9 0,-294.3 0,-294.3 0,-287.1 0,-287.1 0,-283.5 3.6,-279.9 7.2,-279.9 7.2,-279.9 56.13,-279.9 56.13,-279.9 59.73,-279.9 63.33,-283.5 63.33,-287.1 63.33,-287.1 63.33,-294.3 63.33,-294.3 63.33,-297.9 59.73,-301.5 56.13,-301.5"/>
<text xml:space="preserve" text-anchor="middle" x="31.66" y="-287.2" font-family="Arial" font-size="10.00">.duplicated()</text>
</g>
<!-- duplicates&#45;&gt;duplicated -->
<g id="edge24" class="edge">
<title>duplicates&#45;&gt;duplicated</title>
<path fill="none" stroke="#666666" stroke-width="0.8" d="M120.6,-351.98C69.23,-330.56 60.35,-324.88 40.83,-301.77"/>
</g>
<!-- drop_duplicates -->
<g id="node26" class="node">
<title>drop_duplicates</title>
<path fill="#fef9e7" stroke="#333333" d="M94.38,-243.94C94.38,-243.94 21.45,-243.94 21.45,-243.94 17.85,-243.94 14.25,-240.34 14.25,-236.74 14.25,-236.74 14.25,-229.54 14.25,-229.54 14.25,-225.94 17.85,-222.34 21.45,-222.34 21.45,-222.34 94.38,-222.34 94.38,-222.34 97.98,-222.34 101.58,-225.94 101.58,-229.54 101.58,-229.54 101.58,-236.74 101.58,-236.74 101.58,-240.34 97.98,-243.94 94.38,-243.94"/>
<text xml:space="preserve" text-anchor="middle" x="57.92" y="-229.64" font-family="Arial" font-size="10.00">.drop_duplicates()</text>
</g>
<!-- duplicates&#45;&gt;drop_duplicates -->
<g id="edge25" class="edge">
<title>duplicates&#45;&gt;drop_duplicates</title>
<path fill="none" stroke="#666666" stroke-width="0.8" d="M135,-351.93C75.62,-299.11 70.91,-292.52 60.36,-244.43"/>
</g>
</g>
</svg>
