<?xml version="1.0" encoding="UTF-8" standalone="no"?>
<!DOCTYPE svg PUBLIC "-//W3C//DTD SVG 1.1//EN"
 "http://www.w3.org/Graphics/SVG/1.1/DTD/svg11.dtd">
<!-- Generated by graphviz version 13.1.0 (20250701.0955)
 -->
<!-- Title: Module12_MindMap Pages: 1 -->
<svg width="1624pt" height="239pt"
 viewBox="0.00 0.00 1624.00 239.00" xmlns="http://www.w3.org/2000/svg" xmlns:xlink="http://www.w3.org/1999/xlink">
<g id="graph0" class="graph" transform="scale(1 1) rotate(0) translate(4 235.25)">
<title>Module12_MindMap</title>
<polygon fill="white" stroke="none" points="-4,4 -4,-235.25 1620,-235.25 1620,4 -4,4"/>
<!-- central -->
<g id="node1" class="node">
<title>central</title>
<path fill="darkblue" stroke="black" stroke-width="2" d="M979.62,-231.25C979.62,-231.25 875.88,-231.25 875.88,-231.25 869.88,-231.25 863.88,-225.25 863.88,-219.25 863.88,-219.25 863.88,-188 863.88,-188 863.88,-182 869.88,-176 875.88,-176 875.88,-176 979.62,-176 979.62,-176 985.62,-176 991.62,-182 991.62,-188 991.62,-188 991.62,-219.25 991.62,-219.25 991.62,-225.25 985.62,-231.25 979.62,-231.25"/>
<text xml:space="preserve" text-anchor="middle" x="927.75" y="-213.95" font-family="Arial" font-size="14.00" fill="white">Module 12:</text>
<text xml:space="preserve" text-anchor="middle" x="927.75" y="-198.2" font-family="Arial" font-size="14.00" fill="white">Business Analytics</text>
<text xml:space="preserve" text-anchor="middle" x="927.75" y="-182.45" font-family="Arial" font-size="14.00" fill="white">Fundamentals</text>
</g>
<!-- spectrum -->
<g id="node2" class="node">
<title>spectrum</title>
<path fill="lightblue" stroke="black" d="M251.75,-140C251.75,-140 217.75,-140 217.75,-140 211.75,-140 205.75,-134 205.75,-128 205.75,-128 205.75,-116 205.75,-116 205.75,-110 211.75,-104 217.75,-104 217.75,-104 251.75,-104 251.75,-104 257.75,-104 263.75,-110 263.75,-116 263.75,-116 263.75,-128 263.75,-128 263.75,-134 257.75,-140 251.75,-140"/>
<text xml:space="preserve" text-anchor="middle" x="234.75" y="-124.5" font-family="Arial" font-size="10.00">Analytics</text>
<text xml:space="preserve" text-anchor="middle" x="234.75" y="-112.5" font-family="Arial" font-size="10.00">Spectrum</text>
</g>
<!-- central&#45;&gt;spectrum -->
<g id="edge1" class="edge">
<title>central&#45;&gt;spectrum</title>
<path fill="none" stroke="darkgray" stroke-width="1.5" d="M863.18,-195.21C722.62,-179.06 392.24,-141.1 276.05,-127.75"/>
<polygon fill="darkgray" stroke="darkgray" stroke-width="1.5" points="276.5,-124.27 266.16,-126.61 275.7,-131.23 276.5,-124.27"/>
</g>
<!-- stats -->
<g id="node3" class="node">
<title>stats</title>
<path fill="lightblue" stroke="black" d="M661.5,-140C661.5,-140 626,-140 626,-140 620,-140 614,-134 614,-128 614,-128 614,-116 614,-116 614,-110 620,-104 626,-104 626,-104 661.5,-104 661.5,-104 667.5,-104 673.5,-110 673.5,-116 673.5,-116 673.5,-128 673.5,-128 673.5,-134 667.5,-140 661.5,-140"/>
<text xml:space="preserve" text-anchor="middle" x="643.75" y="-124.5" font-family="Arial" font-size="10.00">Statistical</text>
<text xml:space="preserve" text-anchor="middle" x="643.75" y="-112.5" font-family="Arial" font-size="10.00">Concepts</text>
</g>
<!-- central&#45;&gt;stats -->
<g id="edge2" class="edge">
<title>central&#45;&gt;stats</title>
<path fill="none" stroke="darkgray" stroke-width="1.5" d="M862.95,-184.46C808.55,-169.2 732.43,-147.86 685.7,-134.76"/>
<polygon fill="darkgray" stroke="darkgray" stroke-width="1.5" points="686.67,-131.4 676.09,-132.07 684.78,-138.14 686.67,-131.4"/>
</g>
<!-- correlation -->
<g id="node4" class="node">
<title>correlation</title>
<path fill="lightblue" stroke="black" d="M947.38,-140C947.38,-140 908.12,-140 908.12,-140 902.12,-140 896.12,-134 896.12,-128 896.12,-128 896.12,-116 896.12,-116 896.12,-110 902.12,-104 908.12,-104 908.12,-104 947.38,-104 947.38,-104 953.38,-104 959.38,-110 959.38,-116 959.38,-116 959.38,-128 959.38,-128 959.38,-134 953.38,-140 947.38,-140"/>
<text xml:space="preserve" text-anchor="middle" x="927.75" y="-124.5" font-family="Arial" font-size="10.00">Correlation</text>
<text xml:space="preserve" text-anchor="middle" x="927.75" y="-112.5" font-family="Arial" font-size="10.00">Analysis</text>
</g>
<!-- central&#45;&gt;correlation -->
<g id="edge3" class="edge">
<title>central&#45;&gt;correlation</title>
<path fill="none" stroke="darkgray" stroke-width="1.5" d="M927.75,-175.22C927.75,-167.93 927.75,-160.03 927.75,-152.63"/>
<polygon fill="darkgray" stroke="darkgray" stroke-width="1.5" points="931.25,-152.74 927.75,-142.74 924.25,-152.74 931.25,-152.74"/>
</g>
<!-- regression -->
<g id="node5" class="node">
<title>regression</title>
<path fill="lightblue" stroke="black" d="M1203.5,-140C1203.5,-140 1162,-140 1162,-140 1156,-140 1150,-134 1150,-128 1150,-128 1150,-116 1150,-116 1150,-110 1156,-104 1162,-104 1162,-104 1203.5,-104 1203.5,-104 1209.5,-104 1215.5,-110 1215.5,-116 1215.5,-116 1215.5,-128 1215.5,-128 1215.5,-134 1209.5,-140 1203.5,-140"/>
<text xml:space="preserve" text-anchor="middle" x="1182.75" y="-124.5" font-family="Arial" font-size="10.00">Linear</text>
<text xml:space="preserve" text-anchor="middle" x="1182.75" y="-112.5" font-family="Arial" font-size="10.00">Regression</text>
</g>
<!-- central&#45;&gt;regression -->
<g id="edge4" class="edge">
<title>central&#45;&gt;regression</title>
<path fill="none" stroke="darkgray" stroke-width="1.5" d="M992.43,-182.43C1037.99,-168.2 1097.82,-149.52 1138.14,-136.93"/>
<polygon fill="darkgray" stroke="darkgray" stroke-width="1.5" points="1139.06,-140.31 1147.56,-133.99 1136.97,-133.63 1139.06,-140.31"/>
</g>
<!-- process -->
<g id="node6" class="node">
<title>process</title>
<path fill="lightblue" stroke="black" d="M1462,-140C1462,-140 1429.5,-140 1429.5,-140 1423.5,-140 1417.5,-134 1417.5,-128 1417.5,-128 1417.5,-116 1417.5,-116 1417.5,-110 1423.5,-104 1429.5,-104 1429.5,-104 1462,-104 1462,-104 1468,-104 1474,-110 1474,-116 1474,-116 1474,-128 1474,-128 1474,-134 1468,-140 1462,-140"/>
<text xml:space="preserve" text-anchor="middle" x="1445.75" y="-124.5" font-family="Arial" font-size="10.00">Analytics</text>
<text xml:space="preserve" text-anchor="middle" x="1445.75" y="-112.5" font-family="Arial" font-size="10.00">Process</text>
</g>
<!-- central&#45;&gt;process -->
<g id="edge5" class="edge">
<title>central&#45;&gt;process</title>
<path fill="none" stroke="darkgray" stroke-width="1.5" d="M992.57,-192.66C1100.83,-176.02 1315.4,-143.04 1404.97,-129.27"/>
<polygon fill="darkgray" stroke="darkgray" stroke-width="1.5" points="1405.41,-132.74 1414.76,-127.76 1404.35,-125.82 1405.41,-132.74"/>
</g>
<!-- descriptive -->
<g id="node7" class="node">
<title>descriptive</title>
<path fill="lightcoral" stroke="black" d="M53.5,-52C53.5,-52 12,-52 12,-52 6,-52 0,-46 0,-40 0,-40 0,-28 0,-28 0,-22 6,-16 12,-16 12,-16 53.5,-16 53.5,-16 59.5,-16 65.5,-22 65.5,-28 65.5,-28 65.5,-40 65.5,-40 65.5,-46 59.5,-52 53.5,-52"/>
<text xml:space="preserve" text-anchor="middle" x="32.75" y="-36.5" font-family="Arial" font-size="10.00">Descriptive</text>
<text xml:space="preserve" text-anchor="middle" x="32.75" y="-24.5" font-family="Arial" font-size="10.00">Analytics</text>
</g>
<!-- spectrum&#45;&gt;descriptive -->
<g id="edge6" class="edge">
<title>spectrum&#45;&gt;descriptive</title>
<path fill="none" stroke="darkgray" stroke-width="1.5" d="M205.49,-114.55C172.44,-106.54 117.67,-91.06 74.75,-68 70.25,-65.58 65.74,-62.67 61.43,-59.6"/>
<polygon fill="darkgray" stroke="darkgray" stroke-width="1.5" points="63.72,-56.95 53.65,-53.66 59.47,-62.51 63.72,-56.95"/>
</g>
<!-- diagnostic -->
<g id="node8" class="node">
<title>diagnostic</title>
<path fill="lightcoral" stroke="black" d="M134,-52C134,-52 95.5,-52 95.5,-52 89.5,-52 83.5,-46 83.5,-40 83.5,-40 83.5,-28 83.5,-28 83.5,-22 89.5,-16 95.5,-16 95.5,-16 134,-16 134,-16 140,-16 146,-22 146,-28 146,-28 146,-40 146,-40 146,-46 140,-52 134,-52"/>
<text xml:space="preserve" text-anchor="middle" x="114.75" y="-36.5" font-family="Arial" font-size="10.00">Diagnostic</text>
<text xml:space="preserve" text-anchor="middle" x="114.75" y="-24.5" font-family="Arial" font-size="10.00">Analytics</text>
</g>
<!-- spectrum&#45;&gt;diagnostic -->
<g id="edge7" class="edge">
<title>spectrum&#45;&gt;diagnostic</title>
<path fill="none" stroke="darkgray" stroke-width="1.5" d="M206.86,-103.54C191.26,-93.53 171.62,-80.49 154.75,-68 151.21,-65.38 147.57,-62.56 143.99,-59.71"/>
<polygon fill="darkgray" stroke="darkgray" stroke-width="1.5" points="146.5,-57.24 136.53,-53.64 142.08,-62.67 146.5,-57.24"/>
</g>
<!-- predictive -->
<g id="node9" class="node">
<title>predictive</title>
<path fill="lightcoral" stroke="black" d="M211.5,-52C211.5,-52 176,-52 176,-52 170,-52 164,-46 164,-40 164,-40 164,-28 164,-28 164,-22 170,-16 176,-16 176,-16 211.5,-16 211.5,-16 217.5,-16 223.5,-22 223.5,-28 223.5,-28 223.5,-40 223.5,-40 223.5,-46 217.5,-52 211.5,-52"/>
<text xml:space="preserve" text-anchor="middle" x="193.75" y="-36.5" font-family="Arial" font-size="10.00">Predictive</text>
<text xml:space="preserve" text-anchor="middle" x="193.75" y="-24.5" font-family="Arial" font-size="10.00">Analytics</text>
</g>
<!-- spectrum&#45;&gt;predictive -->
<g id="edge8" class="edge">
<title>spectrum&#45;&gt;predictive</title>
<path fill="none" stroke="darkgray" stroke-width="1.5" d="M226.45,-103.6C220.95,-92.06 213.61,-76.65 207.27,-63.36"/>
<polygon fill="darkgray" stroke="darkgray" stroke-width="1.5" points="210.47,-61.95 203.01,-54.43 204.16,-64.96 210.47,-61.95"/>
</g>
<!-- prescriptive -->
<g id="node10" class="node">
<title>prescriptive</title>
<path fill="lightcoral" stroke="black" d="M297.62,-52C297.62,-52 253.88,-52 253.88,-52 247.88,-52 241.88,-46 241.88,-40 241.88,-40 241.88,-28 241.88,-28 241.88,-22 247.88,-16 253.88,-16 253.88,-16 297.62,-16 297.62,-16 303.62,-16 309.62,-22 309.62,-28 309.62,-28 309.62,-40 309.62,-40 309.62,-46 303.62,-52 297.62,-52"/>
<text xml:space="preserve" text-anchor="middle" x="275.75" y="-36.5" font-family="Arial" font-size="10.00">Prescriptive</text>
<text xml:space="preserve" text-anchor="middle" x="275.75" y="-24.5" font-family="Arial" font-size="10.00">Analytics</text>
</g>
<!-- spectrum&#45;&gt;prescriptive -->
<g id="edge9" class="edge">
<title>spectrum&#45;&gt;prescriptive</title>
<path fill="none" stroke="darkgray" stroke-width="1.5" d="M243.05,-103.6C248.55,-92.06 255.89,-76.65 262.23,-63.36"/>
<polygon fill="darkgray" stroke="darkgray" stroke-width="1.5" points="265.34,-64.96 266.49,-54.43 259.03,-61.95 265.34,-64.96"/>
</g>
<!-- spectrum_details -->
<g id="node11" class="node">
<title>spectrum_details</title>
<polygon fill="lightyellow" stroke="black" points="433.75,-62 327.75,-62 327.75,-6 439.75,-6 439.75,-56 433.75,-62"/>
<polyline fill="none" stroke="black" points="433.75,-62 433.75,-56"/>
<polyline fill="none" stroke="black" points="439.75,-56 433.75,-56"/>
<text xml:space="preserve" text-anchor="middle" x="383.75" y="-48.5" font-family="Arial" font-size="10.00">• What happened?</text>
<text xml:space="preserve" text-anchor="middle" x="383.75" y="-36.5" font-family="Arial" font-size="10.00">• Why did it happen?</text>
<text xml:space="preserve" text-anchor="middle" x="383.75" y="-24.5" font-family="Arial" font-size="10.00">• What will happen?</text>
<text xml:space="preserve" text-anchor="middle" x="383.75" y="-12.5" font-family="Arial" font-size="10.00">• What should we do?</text>
</g>
<!-- spectrum&#45;&gt;spectrum_details -->
<g id="edge10" class="edge">
<title>spectrum&#45;&gt;spectrum_details</title>
<path fill="none" stroke="darkgray" stroke-width="1.5" d="M264.19,-104.01C281.75,-93.88 304.65,-80.65 325.71,-68.5"/>
<polygon fill="darkgray" stroke="darkgray" stroke-width="1.5" points="327.32,-71.61 334.23,-63.58 323.82,-65.55 327.32,-71.61"/>
</g>
<!-- central_tendency -->
<g id="node12" class="node">
<title>central_tendency</title>
<polygon fill="lightyellow" stroke="black" points="505.88,-56 457.62,-56 457.62,-12 511.88,-12 511.88,-50 505.88,-56"/>
<polyline fill="none" stroke="black" points="505.88,-56 505.88,-50"/>
<polyline fill="none" stroke="black" points="511.88,-50 505.88,-50"/>
<text xml:space="preserve" text-anchor="middle" x="484.75" y="-42.5" font-family="Arial" font-size="10.00">• Mean</text>
<text xml:space="preserve" text-anchor="middle" x="484.75" y="-30.5" font-family="Arial" font-size="10.00">• Median</text>
<text xml:space="preserve" text-anchor="middle" x="484.75" y="-18.5" font-family="Arial" font-size="10.00">• Mode</text>
</g>
<!-- stats&#45;&gt;central_tendency -->
<g id="edge11" class="edge">
<title>stats&#45;&gt;central_tendency</title>
<path fill="none" stroke="darkgray" stroke-width="1.5" d="M613.52,-111.19C587.72,-102.09 550.23,-87.08 520.75,-68 518.83,-66.76 516.91,-65.41 515.02,-63.99"/>
<polygon fill="darkgray" stroke="darkgray" stroke-width="1.5" points="517.58,-61.56 507.62,-57.94 513.14,-66.98 517.58,-61.56"/>
</g>
<!-- dispersion -->
<g id="node13" class="node">
<title>dispersion</title>
<polygon fill="lightyellow" stroke="black" points="629.75,-56 529.75,-56 529.75,-12 635.75,-12 635.75,-50 629.75,-56"/>
<polyline fill="none" stroke="black" points="629.75,-56 629.75,-50"/>
<polyline fill="none" stroke="black" points="635.75,-50 629.75,-50"/>
<text xml:space="preserve" text-anchor="middle" x="582.75" y="-42.5" font-family="Arial" font-size="10.00">• Range</text>
<text xml:space="preserve" text-anchor="middle" x="582.75" y="-30.5" font-family="Arial" font-size="10.00">• Variance</text>
<text xml:space="preserve" text-anchor="middle" x="582.75" y="-18.5" font-family="Arial" font-size="10.00">• Standard Deviation</text>
</g>
<!-- stats&#45;&gt;dispersion -->
<g id="edge12" class="edge">
<title>stats&#45;&gt;dispersion</title>
<path fill="none" stroke="darkgray" stroke-width="1.5" d="M631.41,-103.6C623.77,-92.83 613.74,-78.7 604.78,-66.06"/>
<polygon fill="darkgray" stroke="darkgray" stroke-width="1.5" points="607.84,-64.32 599.2,-58.19 602.13,-68.37 607.84,-64.32"/>
</g>
<!-- pandas_stats -->
<g id="node14" class="node">
<title>pandas_stats</title>
<polygon fill="lightyellow" stroke="black" points="749.88,-56 653.62,-56 653.62,-12 755.88,-12 755.88,-50 749.88,-56"/>
<polyline fill="none" stroke="black" points="749.88,-56 749.88,-50"/>
<polyline fill="none" stroke="black" points="755.88,-50 749.88,-50"/>
<text xml:space="preserve" text-anchor="middle" x="704.75" y="-42.5" font-family="Arial" font-size="10.00">• .describe()</text>
<text xml:space="preserve" text-anchor="middle" x="704.75" y="-30.5" font-family="Arial" font-size="10.00">• .mean(), .median()</text>
<text xml:space="preserve" text-anchor="middle" x="704.75" y="-18.5" font-family="Arial" font-size="10.00">• .std(), .var()</text>
</g>
<!-- stats&#45;&gt;pandas_stats -->
<g id="edge13" class="edge">
<title>stats&#45;&gt;pandas_stats</title>
<path fill="none" stroke="darkgray" stroke-width="1.5" d="M656.09,-103.6C663.73,-92.83 673.76,-78.7 682.72,-66.06"/>
<polygon fill="darkgray" stroke="darkgray" stroke-width="1.5" points="685.37,-68.37 688.3,-58.19 679.66,-64.32 685.37,-68.37"/>
</g>
<!-- corr_types -->
<g id="node15" class="node">
<title>corr_types</title>
<polygon fill="lightyellow" stroke="black" points="853.62,-56 773.88,-56 773.88,-12 859.62,-12 859.62,-50 853.62,-56"/>
<polyline fill="none" stroke="black" points="853.62,-56 853.62,-50"/>
<polyline fill="none" stroke="black" points="859.62,-50 853.62,-50"/>
<text xml:space="preserve" text-anchor="middle" x="816.75" y="-42.5" font-family="Arial" font-size="10.00">• Positive</text>
<text xml:space="preserve" text-anchor="middle" x="816.75" y="-30.5" font-family="Arial" font-size="10.00">• Negative</text>
<text xml:space="preserve" text-anchor="middle" x="816.75" y="-18.5" font-family="Arial" font-size="10.00">• No Correlation</text>
</g>
<!-- correlation&#45;&gt;corr_types -->
<g id="edge14" class="edge">
<title>correlation&#45;&gt;corr_types</title>
<path fill="none" stroke="darkgray" stroke-width="1.5" d="M905.29,-103.6C890.57,-92.19 870.97,-77.01 853.95,-63.82"/>
<polygon fill="darkgray" stroke="darkgray" stroke-width="1.5" points="856.13,-61.09 846.09,-57.73 851.85,-66.62 856.13,-61.09"/>
</g>
<!-- corr_methods -->
<g id="node16" class="node">
<title>corr_methods</title>
<polygon fill="lightyellow" stroke="black" points="971.75,-56 877.75,-56 877.75,-12 977.75,-12 977.75,-50 971.75,-56"/>
<polyline fill="none" stroke="black" points="971.75,-56 971.75,-50"/>
<polyline fill="none" stroke="black" points="977.75,-50 971.75,-50"/>
<text xml:space="preserve" text-anchor="middle" x="927.75" y="-42.5" font-family="Arial" font-size="10.00">• .corr()</text>
<text xml:space="preserve" text-anchor="middle" x="927.75" y="-30.5" font-family="Arial" font-size="10.00">• Correlation Matrix</text>
<text xml:space="preserve" text-anchor="middle" x="927.75" y="-18.5" font-family="Arial" font-size="10.00">• Scatter Plots</text>
</g>
<!-- correlation&#45;&gt;corr_methods -->
<g id="edge15" class="edge">
<title>correlation&#45;&gt;corr_methods</title>
<path fill="none" stroke="darkgray" stroke-width="1.5" d="M927.75,-103.6C927.75,-93.47 927.75,-80.37 927.75,-68.33"/>
<polygon fill="darkgray" stroke="darkgray" stroke-width="1.5" points="931.25,-68.61 927.75,-58.61 924.25,-68.61 931.25,-68.61"/>
</g>
<!-- corr_interpret -->
<g id="node17" class="node">
<title>corr_interpret</title>
<path fill="lightgreen" stroke="black" d="M1055.5,-52C1055.5,-52 1008,-52 1008,-52 1002,-52 996,-46 996,-40 996,-40 996,-28 996,-28 996,-22 1002,-16 1008,-16 1008,-16 1055.5,-16 1055.5,-16 1061.5,-16 1067.5,-22 1067.5,-28 1067.5,-28 1067.5,-40 1067.5,-40 1067.5,-46 1061.5,-52 1055.5,-52"/>
<text xml:space="preserve" text-anchor="middle" x="1031.75" y="-36.5" font-family="Arial" font-size="10.00">Correlation ≠</text>
<text xml:space="preserve" text-anchor="middle" x="1031.75" y="-24.5" font-family="Arial" font-size="10.00">Causation</text>
</g>
<!-- correlation&#45;&gt;corr_interpret -->
<g id="edge16" class="edge">
<title>correlation&#45;&gt;corr_interpret</title>
<path fill="none" stroke="darkgray" stroke-width="1.5" d="M948.8,-103.6C963.88,-91.12 984.43,-74.13 1001.3,-60.18"/>
<polygon fill="darkgray" stroke="darkgray" stroke-width="1.5" points="1003.51,-62.89 1008.99,-53.82 999.05,-57.5 1003.51,-62.89"/>
</g>
<!-- reg_concept -->
<g id="node18" class="node">
<title>reg_concept</title>
<path fill="lightgreen" stroke="black" d="M1164.25,-52C1164.25,-52 1097.25,-52 1097.25,-52 1091.25,-52 1085.25,-46 1085.25,-40 1085.25,-40 1085.25,-28 1085.25,-28 1085.25,-22 1091.25,-16 1097.25,-16 1097.25,-16 1164.25,-16 1164.25,-16 1170.25,-16 1176.25,-22 1176.25,-28 1176.25,-28 1176.25,-40 1176.25,-40 1176.25,-46 1170.25,-52 1164.25,-52"/>
<text xml:space="preserve" text-anchor="middle" x="1130.75" y="-30.5" font-family="Arial" font-size="10.00">Y = β₀ + β₁X + ε</text>
</g>
<!-- regression&#45;&gt;reg_concept -->
<g id="edge17" class="edge">
<title>regression&#45;&gt;reg_concept</title>
<path fill="none" stroke="darkgray" stroke-width="1.5" d="M1172.23,-103.6C1165.11,-91.82 1155.56,-76.02 1147.41,-62.56"/>
<polygon fill="darkgray" stroke="darkgray" stroke-width="1.5" points="1150.6,-61.07 1142.43,-54.32 1144.61,-64.69 1150.6,-61.07"/>
</g>
<!-- reg_components -->
<g id="node19" class="node">
<title>reg_components</title>
<polygon fill="lightyellow" stroke="black" points="1269,-56 1194.5,-56 1194.5,-12 1275,-12 1275,-50 1269,-56"/>
<polyline fill="none" stroke="black" points="1269,-56 1269,-50"/>
<polyline fill="none" stroke="black" points="1275,-50 1269,-50"/>
<text xml:space="preserve" text-anchor="middle" x="1234.75" y="-42.5" font-family="Arial" font-size="10.00">• Slope (β₁)</text>
<text xml:space="preserve" text-anchor="middle" x="1234.75" y="-30.5" font-family="Arial" font-size="10.00">• Intercept (β₀)</text>
<text xml:space="preserve" text-anchor="middle" x="1234.75" y="-18.5" font-family="Arial" font-size="10.00">• Error (ε)</text>
</g>
<!-- regression&#45;&gt;reg_components -->
<g id="edge18" class="edge">
<title>regression&#45;&gt;reg_components</title>
<path fill="none" stroke="darkgray" stroke-width="1.5" d="M1193.27,-103.6C1199.65,-93.04 1207.99,-79.26 1215.51,-66.81"/>
<polygon fill="darkgray" stroke="darkgray" stroke-width="1.5" points="1218.49,-68.65 1220.67,-58.28 1212.5,-65.03 1218.49,-68.65"/>
</g>
<!-- reg_use -->
<g id="node20" class="node">
<title>reg_use</title>
<polygon fill="lightyellow" stroke="black" points="1374,-56 1293.5,-56 1293.5,-12 1380,-12 1380,-50 1374,-56"/>
<polyline fill="none" stroke="black" points="1374,-56 1374,-50"/>
<polyline fill="none" stroke="black" points="1380,-50 1374,-50"/>
<text xml:space="preserve" text-anchor="middle" x="1336.75" y="-42.5" font-family="Arial" font-size="10.00">• Predictions</text>
<text xml:space="preserve" text-anchor="middle" x="1336.75" y="-30.5" font-family="Arial" font-size="10.00">• Relationships</text>
<text xml:space="preserve" text-anchor="middle" x="1336.75" y="-18.5" font-family="Arial" font-size="10.00">• Trend Analysis</text>
</g>
<!-- regression&#45;&gt;reg_use -->
<g id="edge19" class="edge">
<title>regression&#45;&gt;reg_use</title>
<path fill="none" stroke="darkgray" stroke-width="1.5" d="M1215.83,-104.42C1235.71,-94.26 1261.41,-80.79 1283.75,-68 1286.75,-66.28 1289.82,-64.48 1292.9,-62.64"/>
<polygon fill="darkgray" stroke="darkgray" stroke-width="1.5" points="1294.65,-65.68 1301.39,-57.5 1291.02,-59.69 1294.65,-65.68"/>
</g>
<!-- process_steps -->
<g id="node21" class="node">
<title>process_steps</title>
<polygon fill="lightyellow" stroke="black" points="1487.12,-68 1398.38,-68 1398.38,0 1493.12,0 1493.12,-62 1487.12,-68"/>
<polyline fill="none" stroke="black" points="1487.12,-68 1487.12,-62"/>
<polyline fill="none" stroke="black" points="1493.12,-62 1487.12,-62"/>
<text xml:space="preserve" text-anchor="middle" x="1445.75" y="-54.5" font-family="Arial" font-size="10.00">• Define Question</text>
<text xml:space="preserve" text-anchor="middle" x="1445.75" y="-42.5" font-family="Arial" font-size="10.00">• Collect Data</text>
<text xml:space="preserve" text-anchor="middle" x="1445.75" y="-30.5" font-family="Arial" font-size="10.00">• Clean &amp; Prepare</text>
<text xml:space="preserve" text-anchor="middle" x="1445.75" y="-18.5" font-family="Arial" font-size="10.00">• Analyze</text>
<text xml:space="preserve" text-anchor="middle" x="1445.75" y="-6.5" font-family="Arial" font-size="10.00">• Interpret</text>
</g>
<!-- process&#45;&gt;process_steps -->
<g id="edge20" class="edge">
<title>process&#45;&gt;process_steps</title>
<path fill="none" stroke="darkgray" stroke-width="1.5" d="M1445.75,-103.6C1445.75,-96.8 1445.75,-88.67 1445.75,-80.42"/>
<polygon fill="darkgray" stroke="darkgray" stroke-width="1.5" points="1449.25,-80.65 1445.75,-70.65 1442.25,-80.65 1449.25,-80.65"/>
</g>
<!-- communication -->
<g id="node22" class="node">
<title>communication</title>
<polygon fill="lightyellow" stroke="black" points="1610,-56 1511.5,-56 1511.5,-12 1616,-12 1616,-50 1610,-56"/>
<polyline fill="none" stroke="black" points="1610,-56 1610,-50"/>
<polyline fill="none" stroke="black" points="1616,-50 1610,-50"/>
<text xml:space="preserve" text-anchor="middle" x="1563.75" y="-42.5" font-family="Arial" font-size="10.00">• Visualizations</text>
<text xml:space="preserve" text-anchor="middle" x="1563.75" y="-30.5" font-family="Arial" font-size="10.00">• Clear Insights</text>
<text xml:space="preserve" text-anchor="middle" x="1563.75" y="-18.5" font-family="Arial" font-size="10.00">• Recommendations</text>
</g>
<!-- process&#45;&gt;communication -->
<g id="edge21" class="edge">
<title>process&#45;&gt;communication</title>
<path fill="none" stroke="darkgray" stroke-width="1.5" d="M1469.63,-103.6C1485.43,-92.08 1506.5,-76.72 1524.71,-63.46"/>
<polygon fill="darkgray" stroke="darkgray" stroke-width="1.5" points="1526.62,-66.39 1532.64,-57.68 1522.49,-60.74 1526.62,-66.39"/>
</g>
</g>
</svg>
