<?xml version="1.0" encoding="UTF-8" standalone="no"?>
<!DOCTYPE svg PUBLIC "-//W3C//DTD SVG 1.1//EN"
 "http://www.w3.org/Graphics/SVG/1.1/DTD/svg11.dtd">
<!-- Generated by graphviz version 13.1.0 (20250701.0955)
 -->
<!-- Title: Module8_MindMap Pages: 1 -->
<svg width="884pt" height="227pt"
 viewBox="0.00 0.00 884.00 227.00" xmlns="http://www.w3.org/2000/svg" xmlns:xlink="http://www.w3.org/1999/xlink">
<g id="graph0" class="graph" transform="scale(1 1) rotate(0) translate(4 223.25)">
<title>Module8_MindMap</title>
<polygon fill="white" stroke="none" points="-4,4 -4,-223.25 879.5,-223.25 879.5,4 -4,4"/>
<!-- central -->
<g id="node1" class="node">
<title>central</title>
<path fill="darkblue" stroke="black" stroke-width="2" d="M558.25,-219.25C558.25,-219.25 430.5,-219.25 430.5,-219.25 424.5,-219.25 418.5,-213.25 418.5,-207.25 418.5,-207.25 418.5,-176 418.5,-176 418.5,-170 424.5,-164 430.5,-164 430.5,-164 558.25,-164 558.25,-164 564.25,-164 570.25,-170 570.25,-176 570.25,-176 570.25,-207.25 570.25,-207.25 570.25,-213.25 564.25,-219.25 558.25,-219.25"/>
<text xml:space="preserve" text-anchor="middle" x="494.38" y="-201.95" font-family="Arial" font-size="14.00" fill="white">Module 8:</text>
<text xml:space="preserve" text-anchor="middle" x="494.38" y="-186.2" font-family="Arial" font-size="14.00" fill="white">Functions &amp;</text>
<text xml:space="preserve" text-anchor="middle" x="494.38" y="-170.45" font-family="Arial" font-size="14.00" fill="white">Modular Programming</text>
</g>
<!-- basics -->
<g id="node2" class="node">
<title>basics</title>
<path fill="lightblue" stroke="black" d="M215.38,-128C215.38,-128 185.38,-128 185.38,-128 179.38,-128 173.38,-122 173.38,-116 173.38,-116 173.38,-104 173.38,-104 173.38,-98 179.38,-92 185.38,-92 185.38,-92 215.38,-92 215.38,-92 221.38,-92 227.38,-98 227.38,-104 227.38,-104 227.38,-116 227.38,-116 227.38,-122 221.38,-128 215.38,-128"/>
<text xml:space="preserve" text-anchor="middle" x="200.38" y="-112.5" font-family="Arial" font-size="10.00">Function</text>
<text xml:space="preserve" text-anchor="middle" x="200.38" y="-100.5" font-family="Arial" font-size="10.00">Basics</text>
</g>
<!-- central&#45;&gt;basics -->
<g id="edge1" class="edge">
<title>central&#45;&gt;basics</title>
<path fill="none" stroke="darkgray" stroke-width="1.5" d="M417.51,-169.81C360.32,-154.32 284.62,-133.82 239.37,-121.56"/>
<polygon fill="darkgray" stroke="darkgray" stroke-width="1.5" points="240.49,-118.24 229.92,-119 238.66,-125 240.49,-118.24"/>
</g>
<!-- params -->
<g id="node3" class="node">
<title>params</title>
<path fill="lightblue" stroke="black" d="M411.38,-128C411.38,-128 359.38,-128 359.38,-128 353.38,-128 347.38,-122 347.38,-116 347.38,-116 347.38,-104 347.38,-104 347.38,-98 353.38,-92 359.38,-92 359.38,-92 411.38,-92 411.38,-92 417.38,-92 423.38,-98 423.38,-104 423.38,-104 423.38,-116 423.38,-116 423.38,-122 417.38,-128 411.38,-128"/>
<text xml:space="preserve" text-anchor="middle" x="385.38" y="-112.5" font-family="Arial" font-size="10.00">Parameters &amp;</text>
<text xml:space="preserve" text-anchor="middle" x="385.38" y="-100.5" font-family="Arial" font-size="10.00">Arguments</text>
</g>
<!-- central&#45;&gt;params -->
<g id="edge2" class="edge">
<title>central&#45;&gt;params</title>
<path fill="none" stroke="darkgray" stroke-width="1.5" d="M456.86,-163.22C444.55,-154.23 430.94,-144.29 418.94,-135.52"/>
<polygon fill="darkgray" stroke="darkgray" stroke-width="1.5" points="421.27,-132.89 411.13,-129.81 417.14,-138.54 421.27,-132.89"/>
</g>
<!-- returns -->
<g id="node4" class="node">
<title>returns</title>
<path fill="lightblue" stroke="black" d="M509.38,-128C509.38,-128 479.38,-128 479.38,-128 473.38,-128 467.38,-122 467.38,-116 467.38,-116 467.38,-104 467.38,-104 467.38,-98 473.38,-92 479.38,-92 479.38,-92 509.38,-92 509.38,-92 515.38,-92 521.38,-98 521.38,-104 521.38,-104 521.38,-116 521.38,-116 521.38,-122 515.38,-128 509.38,-128"/>
<text xml:space="preserve" text-anchor="middle" x="494.38" y="-112.5" font-family="Arial" font-size="10.00">Return</text>
<text xml:space="preserve" text-anchor="middle" x="494.38" y="-100.5" font-family="Arial" font-size="10.00">Values</text>
</g>
<!-- central&#45;&gt;returns -->
<g id="edge3" class="edge">
<title>central&#45;&gt;returns</title>
<path fill="none" stroke="darkgray" stroke-width="1.5" d="M494.38,-163.22C494.38,-155.93 494.38,-148.03 494.38,-140.63"/>
<polygon fill="darkgray" stroke="darkgray" stroke-width="1.5" points="497.88,-140.74 494.38,-130.74 490.88,-140.74 497.88,-140.74"/>
</g>
<!-- scope -->
<g id="node5" class="node">
<title>scope</title>
<path fill="lightblue" stroke="black" d="M608.38,-128C608.38,-128 578.38,-128 578.38,-128 572.38,-128 566.38,-122 566.38,-116 566.38,-116 566.38,-104 566.38,-104 566.38,-98 572.38,-92 578.38,-92 578.38,-92 608.38,-92 608.38,-92 614.38,-92 620.38,-98 620.38,-104 620.38,-104 620.38,-116 620.38,-116 620.38,-122 614.38,-128 608.38,-128"/>
<text xml:space="preserve" text-anchor="middle" x="593.38" y="-112.5" font-family="Arial" font-size="10.00">Variable</text>
<text xml:space="preserve" text-anchor="middle" x="593.38" y="-100.5" font-family="Arial" font-size="10.00">Scope</text>
</g>
<!-- central&#45;&gt;scope -->
<g id="edge4" class="edge">
<title>central&#45;&gt;scope</title>
<path fill="none" stroke="darkgray" stroke-width="1.5" d="M528.45,-163.22C539.41,-154.41 551.49,-144.69 562.23,-136.05"/>
<polygon fill="darkgray" stroke="darkgray" stroke-width="1.5" points="564.28,-138.89 569.88,-129.9 559.89,-133.44 564.28,-138.89"/>
</g>
<!-- modular -->
<g id="node6" class="node">
<title>modular</title>
<path fill="lightblue" stroke="black" d="M728.38,-128C728.38,-128 698.38,-128 698.38,-128 692.38,-128 686.38,-122 686.38,-116 686.38,-116 686.38,-104 686.38,-104 686.38,-98 692.38,-92 698.38,-92 698.38,-92 728.38,-92 728.38,-92 734.38,-92 740.38,-98 740.38,-104 740.38,-104 740.38,-116 740.38,-116 740.38,-122 734.38,-128 728.38,-128"/>
<text xml:space="preserve" text-anchor="middle" x="713.38" y="-112.5" font-family="Arial" font-size="10.00">Modular</text>
<text xml:space="preserve" text-anchor="middle" x="713.38" y="-100.5" font-family="Arial" font-size="10.00">Design</text>
</g>
<!-- central&#45;&gt;modular -->
<g id="edge5" class="edge">
<title>central&#45;&gt;modular</title>
<path fill="none" stroke="darkgray" stroke-width="1.5" d="M570.05,-163.11C605.36,-150.27 645.89,-135.54 674.81,-125.02"/>
<polygon fill="darkgray" stroke="darkgray" stroke-width="1.5" points="675.73,-128.41 683.93,-121.71 673.34,-121.83 675.73,-128.41"/>
</g>
<!-- def_concepts -->
<g id="node7" class="node">
<title>def_concepts</title>
<polygon fill="lightyellow" stroke="black" points="100.75,-50 0,-50 0,-6 106.75,-6 106.75,-44 100.75,-50"/>
<polyline fill="none" stroke="black" points="100.75,-50 100.75,-44"/>
<polyline fill="none" stroke="black" points="106.75,-44 100.75,-44"/>
<text xml:space="preserve" text-anchor="middle" x="53.38" y="-36.5" font-family="Arial" font-size="10.00">• def Statement</text>
<text xml:space="preserve" text-anchor="middle" x="53.38" y="-24.5" font-family="Arial" font-size="10.00">• Function Calls</text>
<text xml:space="preserve" text-anchor="middle" x="53.38" y="-12.5" font-family="Arial" font-size="10.00">• Descriptive Names</text>
</g>
<!-- basics&#45;&gt;def_concepts -->
<g id="edge6" class="edge">
<title>basics&#45;&gt;def_concepts</title>
<path fill="none" stroke="darkgray" stroke-width="1.5" d="M173.07,-94.14C153.57,-83.53 126.78,-68.95 103.49,-56.27"/>
<polygon fill="darkgray" stroke="darkgray" stroke-width="1.5" points="105.18,-53.21 94.73,-51.5 101.84,-59.36 105.18,-53.21"/>
</g>
<!-- documentation -->
<g id="node8" class="node">
<title>documentation</title>
<path fill="lightgreen" stroke="black" d="M176,-46C176,-46 136.75,-46 136.75,-46 130.75,-46 124.75,-40 124.75,-34 124.75,-34 124.75,-22 124.75,-22 124.75,-16 130.75,-10 136.75,-10 136.75,-10 176,-10 176,-10 182,-10 188,-16 188,-22 188,-22 188,-34 188,-34 188,-40 182,-46 176,-46"/>
<text xml:space="preserve" text-anchor="middle" x="156.38" y="-24.5" font-family="Arial" font-size="10.00">Docstrings</text>
</g>
<!-- basics&#45;&gt;documentation -->
<g id="edge7" class="edge">
<title>basics&#45;&gt;documentation</title>
<path fill="none" stroke="darkgray" stroke-width="1.5" d="M190.83,-91.64C185.23,-81.47 178.04,-68.39 171.67,-56.82"/>
<polygon fill="darkgray" stroke="darkgray" stroke-width="1.5" points="174.88,-55.39 167,-48.31 168.75,-58.76 174.88,-55.39"/>
</g>
<!-- dry -->
<g id="node9" class="node">
<title>dry</title>
<path fill="lightgreen" stroke="black" d="M271.12,-46C271.12,-46 217.62,-46 217.62,-46 211.62,-46 205.62,-40 205.62,-34 205.62,-34 205.62,-22 205.62,-22 205.62,-16 211.62,-10 217.62,-10 217.62,-10 271.12,-10 271.12,-10 277.12,-10 283.12,-16 283.12,-22 283.12,-22 283.12,-34 283.12,-34 283.12,-40 277.12,-46 271.12,-46"/>
<text xml:space="preserve" text-anchor="middle" x="244.38" y="-24.5" font-family="Arial" font-size="10.00">DRY Principle</text>
</g>
<!-- basics&#45;&gt;dry -->
<g id="edge8" class="edge">
<title>basics&#45;&gt;dry</title>
<path fill="none" stroke="darkgray" stroke-width="1.5" d="M209.92,-91.64C215.52,-81.47 222.71,-68.39 229.08,-56.82"/>
<polygon fill="darkgray" stroke="darkgray" stroke-width="1.5" points="232,-58.76 233.75,-48.31 225.87,-55.39 232,-58.76"/>
</g>
<!-- param_types -->
<g id="node10" class="node">
<title>param_types</title>
<polygon fill="lightyellow" stroke="black" points="409.88,-56 300.88,-56 300.88,0 415.88,0 415.88,-50 409.88,-56"/>
<polyline fill="none" stroke="black" points="409.88,-56 409.88,-50"/>
<polyline fill="none" stroke="black" points="415.88,-50 409.88,-50"/>
<text xml:space="preserve" text-anchor="middle" x="358.38" y="-42.5" font-family="Arial" font-size="10.00">• Positional Arguments</text>
<text xml:space="preserve" text-anchor="middle" x="358.38" y="-30.5" font-family="Arial" font-size="10.00">• Keyword Arguments</text>
<text xml:space="preserve" text-anchor="middle" x="358.38" y="-18.5" font-family="Arial" font-size="10.00">• Default Values</text>
<text xml:space="preserve" text-anchor="middle" x="358.38" y="-6.5" font-family="Arial" font-size="10.00">• Parameter Mapping</text>
</g>
<!-- params&#45;&gt;param_types -->
<g id="edge9" class="edge">
<title>params&#45;&gt;param_types</title>
<path fill="none" stroke="darkgray" stroke-width="1.5" d="M379.52,-91.64C377.16,-84.64 374.33,-76.27 371.52,-67.96"/>
<polygon fill="darkgray" stroke="darkgray" stroke-width="1.5" points="374.86,-66.9 368.35,-58.54 368.23,-69.14 374.86,-66.9"/>
</g>
<!-- return_concepts -->
<g id="node11" class="node">
<title>return_concepts</title>
<polygon fill="lightyellow" stroke="black" points="548.88,-50 433.88,-50 433.88,-6 554.88,-6 554.88,-44 548.88,-50"/>
<polyline fill="none" stroke="black" points="548.88,-50 548.88,-44"/>
<polyline fill="none" stroke="black" points="554.88,-44 548.88,-44"/>
<text xml:space="preserve" text-anchor="middle" x="494.38" y="-36.5" font-family="Arial" font-size="10.00">• return Statement</text>
<text xml:space="preserve" text-anchor="middle" x="494.38" y="-24.5" font-family="Arial" font-size="10.00">• return vs print</text>
<text xml:space="preserve" text-anchor="middle" x="494.38" y="-12.5" font-family="Arial" font-size="10.00">• Multiple Return Values</text>
</g>
<!-- returns&#45;&gt;return_concepts -->
<g id="edge10" class="edge">
<title>returns&#45;&gt;return_concepts</title>
<path fill="none" stroke="darkgray" stroke-width="1.5" d="M494.38,-91.64C494.38,-83.11 494.38,-72.53 494.38,-62.51"/>
<polygon fill="darkgray" stroke="darkgray" stroke-width="1.5" points="497.88,-62.58 494.38,-52.58 490.88,-62.58 497.88,-62.58"/>
</g>
<!-- scope_types -->
<g id="node12" class="node">
<title>scope_types</title>
<polygon fill="lightyellow" stroke="black" points="660,-50 572.75,-50 572.75,-6 666,-6 666,-44 660,-50"/>
<polyline fill="none" stroke="black" points="660,-50 660,-44"/>
<polyline fill="none" stroke="black" points="666,-44 660,-44"/>
<text xml:space="preserve" text-anchor="middle" x="619.38" y="-36.5" font-family="Arial" font-size="10.00">• Local Variables</text>
<text xml:space="preserve" text-anchor="middle" x="619.38" y="-24.5" font-family="Arial" font-size="10.00">• Global Variables</text>
<text xml:space="preserve" text-anchor="middle" x="619.38" y="-12.5" font-family="Arial" font-size="10.00">• global Keyword</text>
</g>
<!-- scope&#45;&gt;scope_types -->
<g id="edge11" class="edge">
<title>scope&#45;&gt;scope_types</title>
<path fill="none" stroke="darkgray" stroke-width="1.5" d="M599.02,-91.64C601.85,-82.92 605.38,-72.06 608.7,-61.84"/>
<polygon fill="darkgray" stroke="darkgray" stroke-width="1.5" points="611.98,-63.07 611.75,-52.47 605.33,-60.9 611.98,-63.07"/>
</g>
<!-- lambda_func -->
<g id="node13" class="node">
<title>lambda_func</title>
<path fill="lightcoral" stroke="black" d="M730.75,-46C730.75,-46 696,-46 696,-46 690,-46 684,-40 684,-34 684,-34 684,-22 684,-22 684,-16 690,-10 696,-10 696,-10 730.75,-10 730.75,-10 736.75,-10 742.75,-16 742.75,-22 742.75,-22 742.75,-34 742.75,-34 742.75,-40 736.75,-46 730.75,-46"/>
<text xml:space="preserve" text-anchor="middle" x="713.38" y="-30.5" font-family="Arial" font-size="10.00">Lambda</text>
<text xml:space="preserve" text-anchor="middle" x="713.38" y="-18.5" font-family="Arial" font-size="10.00">Functions</text>
</g>
<!-- modular&#45;&gt;lambda_func -->
<g id="edge12" class="edge">
<title>modular&#45;&gt;lambda_func</title>
<path fill="none" stroke="darkgray" stroke-width="1.5" d="M713.38,-91.64C713.38,-81.89 713.38,-69.47 713.38,-58.26"/>
<polygon fill="darkgray" stroke="darkgray" stroke-width="1.5" points="716.88,-58.6 713.38,-48.6 709.88,-58.6 716.88,-58.6"/>
</g>
<!-- design_principles -->
<g id="node14" class="node">
<title>design_principles</title>
<polygon fill="lightyellow" stroke="black" points="869.5,-50 761.25,-50 761.25,-6 875.5,-6 875.5,-44 869.5,-50"/>
<polyline fill="none" stroke="black" points="869.5,-50 869.5,-44"/>
<polyline fill="none" stroke="black" points="875.5,-44 869.5,-44"/>
<text xml:space="preserve" text-anchor="middle" x="818.38" y="-36.5" font-family="Arial" font-size="10.00">• Single Responsibility</text>
<text xml:space="preserve" text-anchor="middle" x="818.38" y="-24.5" font-family="Arial" font-size="10.00">• Reusability</text>
<text xml:space="preserve" text-anchor="middle" x="818.38" y="-12.5" font-family="Arial" font-size="10.00">• Best Practices</text>
</g>
<!-- modular&#45;&gt;design_principles -->
<g id="edge13" class="edge">
<title>modular&#45;&gt;design_principles</title>
<path fill="none" stroke="darkgray" stroke-width="1.5" d="M736.16,-91.64C749.22,-81.69 765.94,-68.95 780.89,-57.56"/>
<polygon fill="darkgray" stroke="darkgray" stroke-width="1.5" points="782.76,-60.53 788.59,-51.69 778.52,-54.97 782.76,-60.53"/>
</g>
</g>
</svg>
