<?xml version="1.0" encoding="UTF-8" standalone="no"?>
<!DOCTYPE svg PUBLIC "-//W3C//DTD SVG 1.1//EN"
 "http://www.w3.org/Graphics/SVG/1.1/DTD/svg11.dtd">
<!-- Generated by graphviz version 13.1.0 (20250701.0955)
 -->
<!-- Title: Module2_MindMap Pages: 1 -->
<svg width="981pt" height="307pt"
 viewBox="0.00 0.00 981.00 307.00" xmlns="http://www.w3.org/2000/svg" xmlns:xlink="http://www.w3.org/1999/xlink">
<g id="graph0" class="graph" transform="scale(1 1) rotate(0) translate(4 303.25)">
<title>Module2_MindMap</title>
<polygon fill="white" stroke="none" points="-4,4 -4,-303.25 976.62,-303.25 976.62,4 -4,4"/>
<!-- central -->
<g id="node1" class="node">
<title>central</title>
<path fill="darkblue" stroke="black" stroke-width="2" d="M598.25,-299.25C598.25,-299.25 475,-299.25 475,-299.25 469,-299.25 463,-293.25 463,-287.25 463,-287.25 463,-256 463,-256 463,-250 469,-244 475,-244 475,-244 598.25,-244 598.25,-244 604.25,-244 610.25,-250 610.25,-256 610.25,-256 610.25,-287.25 610.25,-287.25 610.25,-293.25 604.25,-299.25 598.25,-299.25"/>
<text xml:space="preserve" text-anchor="middle" x="536.62" y="-281.95" font-family="Arial" font-size="14.00" fill="white">Module 2:</text>
<text xml:space="preserve" text-anchor="middle" x="536.62" y="-266.2" font-family="Arial" font-size="14.00" fill="white">Variables, Data Types</text>
<text xml:space="preserve" text-anchor="middle" x="536.62" y="-250.45" font-family="Arial" font-size="14.00" fill="white">&amp; Arithmetic</text>
</g>
<!-- variables -->
<g id="node2" class="node">
<title>variables</title>
<path fill="lightblue" stroke="black" d="M138.38,-208C138.38,-208 102.88,-208 102.88,-208 96.88,-208 90.88,-202 90.88,-196 90.88,-196 90.88,-184 90.88,-184 90.88,-178 96.88,-172 102.88,-172 102.88,-172 138.38,-172 138.38,-172 144.38,-172 150.38,-178 150.38,-184 150.38,-184 150.38,-196 150.38,-196 150.38,-202 144.38,-208 138.38,-208"/>
<text xml:space="preserve" text-anchor="middle" x="120.62" y="-192.5" font-family="Arial" font-size="10.00">Variables</text>
<text xml:space="preserve" text-anchor="middle" x="120.62" y="-180.5" font-family="Arial" font-size="10.00">&amp; Naming</text>
</g>
<!-- central&#45;&gt;variables -->
<g id="edge1" class="edge">
<title>central&#45;&gt;variables</title>
<path fill="none" stroke="darkgray" stroke-width="1.5" d="M462.25,-256.39C374.73,-239.64 232.46,-212.41 162.36,-198.99"/>
<polygon fill="darkgray" stroke="darkgray" stroke-width="1.5" points="163.25,-195.6 152.78,-197.15 161.94,-202.47 163.25,-195.6"/>
</g>
<!-- datatypes -->
<g id="node3" class="node">
<title>datatypes</title>
<path fill="lightblue" stroke="black" d="M317.62,-208C317.62,-208 287.62,-208 287.62,-208 281.62,-208 275.62,-202 275.62,-196 275.62,-196 275.62,-184 275.62,-184 275.62,-178 281.62,-172 287.62,-172 287.62,-172 317.62,-172 317.62,-172 323.62,-172 329.62,-178 329.62,-184 329.62,-184 329.62,-196 329.62,-196 329.62,-202 323.62,-208 317.62,-208"/>
<text xml:space="preserve" text-anchor="middle" x="302.62" y="-192.5" font-family="Arial" font-size="10.00">Data</text>
<text xml:space="preserve" text-anchor="middle" x="302.62" y="-180.5" font-family="Arial" font-size="10.00">Types</text>
</g>
<!-- central&#45;&gt;datatypes -->
<g id="edge2" class="edge">
<title>central&#45;&gt;datatypes</title>
<path fill="none" stroke="darkgray" stroke-width="1.5" d="M462.26,-245.32C422.1,-231.65 374.16,-215.34 341.37,-204.19"/>
<polygon fill="darkgray" stroke="darkgray" stroke-width="1.5" points="342.76,-200.96 332.17,-201.05 340.51,-207.59 342.76,-200.96"/>
</g>
<!-- arithmetic -->
<g id="node4" class="node">
<title>arithmetic</title>
<path fill="lightblue" stroke="black" d="M556.25,-208C556.25,-208 517,-208 517,-208 511,-208 505,-202 505,-196 505,-196 505,-184 505,-184 505,-178 511,-172 517,-172 517,-172 556.25,-172 556.25,-172 562.25,-172 568.25,-178 568.25,-184 568.25,-184 568.25,-196 568.25,-196 568.25,-202 562.25,-208 556.25,-208"/>
<text xml:space="preserve" text-anchor="middle" x="536.62" y="-192.5" font-family="Arial" font-size="10.00">Arithmetic</text>
<text xml:space="preserve" text-anchor="middle" x="536.62" y="-180.5" font-family="Arial" font-size="10.00">Operations</text>
</g>
<!-- central&#45;&gt;arithmetic -->
<g id="edge3" class="edge">
<title>central&#45;&gt;arithmetic</title>
<path fill="none" stroke="darkgray" stroke-width="1.5" d="M536.62,-243.22C536.62,-235.93 536.62,-228.03 536.62,-220.63"/>
<polygon fill="darkgray" stroke="darkgray" stroke-width="1.5" points="540.13,-220.74 536.63,-210.74 533.13,-220.74 540.13,-220.74"/>
</g>
<!-- conversion -->
<g id="node5" class="node">
<title>conversion</title>
<path fill="lightblue" stroke="black" d="M724.38,-208C724.38,-208 682.88,-208 682.88,-208 676.88,-208 670.88,-202 670.88,-196 670.88,-196 670.88,-184 670.88,-184 670.88,-178 676.88,-172 682.88,-172 682.88,-172 724.38,-172 724.38,-172 730.38,-172 736.38,-178 736.38,-184 736.38,-184 736.38,-196 736.38,-196 736.38,-202 730.38,-208 724.38,-208"/>
<text xml:space="preserve" text-anchor="middle" x="703.62" y="-192.5" font-family="Arial" font-size="10.00">Type</text>
<text xml:space="preserve" text-anchor="middle" x="703.62" y="-180.5" font-family="Arial" font-size="10.00">Conversion</text>
</g>
<!-- central&#45;&gt;conversion -->
<g id="edge4" class="edge">
<title>central&#45;&gt;conversion</title>
<path fill="none" stroke="darkgray" stroke-width="1.5" d="M594.1,-243.22C615.49,-233.02 639.42,-221.61 659.44,-212.07"/>
<polygon fill="darkgray" stroke="darkgray" stroke-width="1.5" points="660.85,-215.27 668.37,-207.81 657.84,-208.95 660.85,-215.27"/>
</g>
<!-- mathlib -->
<g id="node6" class="node">
<title>mathlib</title>
<path fill="lightblue" stroke="black" d="M881.62,-208C881.62,-208 851.62,-208 851.62,-208 845.62,-208 839.62,-202 839.62,-196 839.62,-196 839.62,-184 839.62,-184 839.62,-178 845.62,-172 851.62,-172 851.62,-172 881.62,-172 881.62,-172 887.62,-172 893.62,-178 893.62,-184 893.62,-184 893.62,-196 893.62,-196 893.62,-202 887.62,-208 881.62,-208"/>
<text xml:space="preserve" text-anchor="middle" x="866.62" y="-192.5" font-family="Arial" font-size="10.00">Math</text>
<text xml:space="preserve" text-anchor="middle" x="866.62" y="-180.5" font-family="Arial" font-size="10.00">Library</text>
</g>
<!-- central&#45;&gt;mathlib -->
<g id="edge5" class="edge">
<title>central&#45;&gt;mathlib</title>
<path fill="none" stroke="darkgray" stroke-width="1.5" d="M611.09,-252.66C678.29,-236.44 774.49,-213.23 827.63,-200.41"/>
<polygon fill="darkgray" stroke="darkgray" stroke-width="1.5" points="828.12,-203.89 837.02,-198.14 826.48,-197.09 828.12,-203.89"/>
</g>
<!-- naming -->
<g id="node7" class="node">
<title>naming</title>
<polygon fill="lightyellow" stroke="black" points="69.25,-130 0,-130 0,-86 75.25,-86 75.25,-124 69.25,-130"/>
<polyline fill="none" stroke="black" points="69.25,-130 69.25,-124"/>
<polyline fill="none" stroke="black" points="75.25,-124 69.25,-124"/>
<text xml:space="preserve" text-anchor="middle" x="37.62" y="-116.5" font-family="Arial" font-size="10.00">• snake_case</text>
<text xml:space="preserve" text-anchor="middle" x="37.62" y="-104.5" font-family="Arial" font-size="10.00">• Descriptive</text>
<text xml:space="preserve" text-anchor="middle" x="37.62" y="-92.5" font-family="Arial" font-size="10.00">• Meaningful</text>
</g>
<!-- variables&#45;&gt;naming -->
<g id="edge6" class="edge">
<title>variables&#45;&gt;naming</title>
<path fill="none" stroke="darkgray" stroke-width="1.5" d="M102.62,-171.64C92.59,-161.97 79.83,-149.67 68.27,-138.54"/>
<polygon fill="darkgray" stroke="darkgray" stroke-width="1.5" points="71,-136.31 61.37,-131.89 66.14,-141.35 71,-136.31"/>
</g>
<!-- assignment -->
<g id="node8" class="node">
<title>assignment</title>
<path fill="lightgreen" stroke="black" d="M135.62,-126C135.62,-126 105.62,-126 105.62,-126 99.62,-126 93.62,-120 93.62,-114 93.62,-114 93.62,-102 93.62,-102 93.62,-96 99.62,-90 105.62,-90 105.62,-90 135.62,-90 135.62,-90 141.62,-90 147.62,-96 147.62,-102 147.62,-102 147.62,-114 147.62,-114 147.62,-120 141.62,-126 135.62,-126"/>
<text xml:space="preserve" text-anchor="middle" x="120.62" y="-110.5" font-family="Arial" font-size="10.00">Using =</text>
<text xml:space="preserve" text-anchor="middle" x="120.62" y="-98.5" font-family="Arial" font-size="10.00">Operator</text>
</g>
<!-- variables&#45;&gt;assignment -->
<g id="edge7" class="edge">
<title>variables&#45;&gt;assignment</title>
<path fill="none" stroke="darkgray" stroke-width="1.5" d="M120.62,-171.64C120.62,-161.89 120.62,-149.47 120.62,-138.26"/>
<polygon fill="darkgray" stroke="darkgray" stroke-width="1.5" points="124.13,-138.6 120.63,-128.6 117.13,-138.6 124.13,-138.6"/>
</g>
<!-- numbers -->
<g id="node9" class="node">
<title>numbers</title>
<path fill="lightcoral" stroke="black" d="M209.5,-126C209.5,-126 177.75,-126 177.75,-126 171.75,-126 165.75,-120 165.75,-114 165.75,-114 165.75,-102 165.75,-102 165.75,-96 171.75,-90 177.75,-90 177.75,-90 209.5,-90 209.5,-90 215.5,-90 221.5,-96 221.5,-102 221.5,-102 221.5,-114 221.5,-114 221.5,-120 215.5,-126 209.5,-126"/>
<text xml:space="preserve" text-anchor="middle" x="193.62" y="-104.5" font-family="Arial" font-size="10.00">Numbers</text>
</g>
<!-- datatypes&#45;&gt;numbers -->
<g id="edge8" class="edge">
<title>datatypes&#45;&gt;numbers</title>
<path fill="none" stroke="darkgray" stroke-width="1.5" d="M278.97,-171.64C263.69,-160.42 243.58,-145.66 226.72,-133.29"/>
<polygon fill="darkgray" stroke="darkgray" stroke-width="1.5" points="229.19,-130.76 219.06,-127.67 225.05,-136.41 229.19,-130.76"/>
</g>
<!-- text -->
<g id="node10" class="node">
<title>text</title>
<path fill="lightcoral" stroke="black" d="M281.62,-126C281.62,-126 251.62,-126 251.62,-126 245.62,-126 239.62,-120 239.62,-114 239.62,-114 239.62,-102 239.62,-102 239.62,-96 245.62,-90 251.62,-90 251.62,-90 281.62,-90 281.62,-90 287.62,-90 293.62,-96 293.62,-102 293.62,-102 293.62,-114 293.62,-114 293.62,-120 287.62,-126 281.62,-126"/>
<text xml:space="preserve" text-anchor="middle" x="266.62" y="-110.5" font-family="Arial" font-size="10.00">Strings</text>
<text xml:space="preserve" text-anchor="middle" x="266.62" y="-98.5" font-family="Arial" font-size="10.00">(str)</text>
</g>
<!-- datatypes&#45;&gt;text -->
<g id="edge9" class="edge">
<title>datatypes&#45;&gt;text</title>
<path fill="none" stroke="darkgray" stroke-width="1.5" d="M294.81,-171.64C290.28,-161.58 284.47,-148.66 279.3,-137.18"/>
<polygon fill="darkgray" stroke="darkgray" stroke-width="1.5" points="282.65,-136.08 275.35,-128.4 276.26,-138.95 282.65,-136.08"/>
</g>
<!-- boolean -->
<g id="node11" class="node">
<title>boolean</title>
<path fill="lightcoral" stroke="black" d="M355.88,-126C355.88,-126 323.38,-126 323.38,-126 317.38,-126 311.38,-120 311.38,-114 311.38,-114 311.38,-102 311.38,-102 311.38,-96 317.38,-90 323.38,-90 323.38,-90 355.88,-90 355.88,-90 361.88,-90 367.88,-96 367.88,-102 367.88,-102 367.88,-114 367.88,-114 367.88,-120 361.88,-126 355.88,-126"/>
<text xml:space="preserve" text-anchor="middle" x="339.62" y="-110.5" font-family="Arial" font-size="10.00">Booleans</text>
<text xml:space="preserve" text-anchor="middle" x="339.62" y="-98.5" font-family="Arial" font-size="10.00">(bool)</text>
</g>
<!-- datatypes&#45;&gt;boolean -->
<g id="edge10" class="edge">
<title>datatypes&#45;&gt;boolean</title>
<path fill="none" stroke="darkgray" stroke-width="1.5" d="M310.65,-171.64C315.31,-161.58 321.28,-148.66 326.59,-137.18"/>
<polygon fill="darkgray" stroke="darkgray" stroke-width="1.5" points="329.64,-138.93 330.66,-128.39 323.28,-135.99 329.64,-138.93"/>
</g>
<!-- basic_ops -->
<g id="node14" class="node">
<title>basic_ops</title>
<polygon fill="lightyellow" stroke="black" points="466.88,-136 386.38,-136 386.38,-80 472.88,-80 472.88,-130 466.88,-136"/>
<polyline fill="none" stroke="black" points="466.88,-136 466.88,-130"/>
<polyline fill="none" stroke="black" points="472.88,-130 466.88,-130"/>
<text xml:space="preserve" text-anchor="middle" x="429.62" y="-122.5" font-family="Arial" font-size="10.00">• + Addition</text>
<text xml:space="preserve" text-anchor="middle" x="429.62" y="-110.5" font-family="Arial" font-size="10.00">• &#45; Subtraction</text>
<text xml:space="preserve" text-anchor="middle" x="429.62" y="-98.5" font-family="Arial" font-size="10.00">• * Multiplication</text>
<text xml:space="preserve" text-anchor="middle" x="429.62" y="-86.5" font-family="Arial" font-size="10.00">• / Division</text>
</g>
<!-- arithmetic&#45;&gt;basic_ops -->
<g id="edge13" class="edge">
<title>arithmetic&#45;&gt;basic_ops</title>
<path fill="none" stroke="darkgray" stroke-width="1.5" d="M513.41,-171.64C502.44,-163.44 488.93,-153.34 475.99,-143.67"/>
<polygon fill="darkgray" stroke="darkgray" stroke-width="1.5" points="478.18,-140.94 468.08,-137.75 473.99,-146.54 478.18,-140.94"/>
</g>
<!-- special_ops -->
<g id="node15" class="node">
<title>special_ops</title>
<polygon fill="lightyellow" stroke="black" points="576.5,-130 490.75,-130 490.75,-86 582.5,-86 582.5,-124 576.5,-130"/>
<polyline fill="none" stroke="black" points="576.5,-130 576.5,-124"/>
<polyline fill="none" stroke="black" points="582.5,-124 576.5,-124"/>
<text xml:space="preserve" text-anchor="middle" x="536.62" y="-116.5" font-family="Arial" font-size="10.00">• ** Power</text>
<text xml:space="preserve" text-anchor="middle" x="536.62" y="-104.5" font-family="Arial" font-size="10.00">• // Floor Division</text>
<text xml:space="preserve" text-anchor="middle" x="536.62" y="-92.5" font-family="Arial" font-size="10.00">• % Modulo</text>
</g>
<!-- arithmetic&#45;&gt;special_ops -->
<g id="edge14" class="edge">
<title>arithmetic&#45;&gt;special_ops</title>
<path fill="none" stroke="darkgray" stroke-width="1.5" d="M536.62,-171.64C536.62,-163.11 536.62,-152.53 536.62,-142.51"/>
<polygon fill="darkgray" stroke="darkgray" stroke-width="1.5" points="540.13,-142.58 536.63,-132.58 533.13,-142.58 540.13,-142.58"/>
</g>
<!-- order -->
<g id="node16" class="node">
<title>order</title>
<path fill="lightgreen" stroke="black" d="M647,-126C647,-126 612.25,-126 612.25,-126 606.25,-126 600.25,-120 600.25,-114 600.25,-114 600.25,-102 600.25,-102 600.25,-96 606.25,-90 612.25,-90 612.25,-90 647,-90 647,-90 653,-90 659,-96 659,-102 659,-102 659,-114 659,-114 659,-120 653,-126 647,-126"/>
<text xml:space="preserve" text-anchor="middle" x="629.62" y="-110.5" font-family="Arial" font-size="10.00">PEMDAS</text>
<text xml:space="preserve" text-anchor="middle" x="629.62" y="-98.5" font-family="Arial" font-size="10.00">Order</text>
</g>
<!-- arithmetic&#45;&gt;order -->
<g id="edge15" class="edge">
<title>arithmetic&#45;&gt;order</title>
<path fill="none" stroke="darkgray" stroke-width="1.5" d="M556.8,-171.64C569.6,-160.63 586.36,-146.22 600.58,-133.99"/>
<polygon fill="darkgray" stroke="darkgray" stroke-width="1.5" points="602.47,-136.98 607.76,-127.81 597.9,-131.67 602.47,-136.98"/>
</g>
<!-- functions -->
<g id="node17" class="node">
<title>functions</title>
<polygon fill="lightyellow" stroke="black" points="724.62,-136 676.62,-136 676.62,-80 730.62,-80 730.62,-130 724.62,-136"/>
<polyline fill="none" stroke="black" points="724.62,-136 724.62,-130"/>
<polyline fill="none" stroke="black" points="730.62,-130 724.62,-130"/>
<text xml:space="preserve" text-anchor="middle" x="703.62" y="-122.5" font-family="Arial" font-size="10.00">• int()</text>
<text xml:space="preserve" text-anchor="middle" x="703.62" y="-110.5" font-family="Arial" font-size="10.00">• float()</text>
<text xml:space="preserve" text-anchor="middle" x="703.62" y="-98.5" font-family="Arial" font-size="10.00">• str()</text>
<text xml:space="preserve" text-anchor="middle" x="703.62" y="-86.5" font-family="Arial" font-size="10.00">• bool()</text>
</g>
<!-- conversion&#45;&gt;functions -->
<g id="edge16" class="edge">
<title>conversion&#45;&gt;functions</title>
<path fill="none" stroke="darkgray" stroke-width="1.5" d="M703.62,-171.64C703.62,-164.81 703.62,-156.65 703.62,-148.53"/>
<polygon fill="darkgray" stroke="darkgray" stroke-width="1.5" points="707.13,-148.66 703.63,-138.66 700.13,-148.66 707.13,-148.66"/>
</g>
<!-- implicit -->
<g id="node18" class="node">
<title>implicit</title>
<path fill="lightgreen" stroke="black" d="M802.38,-126C802.38,-126 760.88,-126 760.88,-126 754.88,-126 748.88,-120 748.88,-114 748.88,-114 748.88,-102 748.88,-102 748.88,-96 754.88,-90 760.88,-90 760.88,-90 802.38,-90 802.38,-90 808.38,-90 814.38,-96 814.38,-102 814.38,-102 814.38,-114 814.38,-114 814.38,-120 808.38,-126 802.38,-126"/>
<text xml:space="preserve" text-anchor="middle" x="781.62" y="-110.5" font-family="Arial" font-size="10.00">Automatic</text>
<text xml:space="preserve" text-anchor="middle" x="781.62" y="-98.5" font-family="Arial" font-size="10.00">Conversion</text>
</g>
<!-- conversion&#45;&gt;implicit -->
<g id="edge17" class="edge">
<title>conversion&#45;&gt;implicit</title>
<path fill="none" stroke="darkgray" stroke-width="1.5" d="M720.55,-171.64C730.98,-160.95 744.54,-147.04 756.24,-135.04"/>
<polygon fill="darkgray" stroke="darkgray" stroke-width="1.5" points="758.67,-137.55 763.15,-127.95 753.66,-132.67 758.67,-137.55"/>
</g>
<!-- import -->
<g id="node19" class="node">
<title>import</title>
<path fill="lightgreen" stroke="black" d="M888.5,-126C888.5,-126 844.75,-126 844.75,-126 838.75,-126 832.75,-120 832.75,-114 832.75,-114 832.75,-102 832.75,-102 832.75,-96 838.75,-90 844.75,-90 844.75,-90 888.5,-90 888.5,-90 894.5,-90 900.5,-96 900.5,-102 900.5,-102 900.5,-114 900.5,-114 900.5,-120 894.5,-126 888.5,-126"/>
<text xml:space="preserve" text-anchor="middle" x="866.62" y="-104.5" font-family="Arial" font-size="10.00">import math</text>
</g>
<!-- mathlib&#45;&gt;import -->
<g id="edge18" class="edge">
<title>mathlib&#45;&gt;import</title>
<path fill="none" stroke="darkgray" stroke-width="1.5" d="M866.62,-171.64C866.62,-161.89 866.62,-149.47 866.62,-138.26"/>
<polygon fill="darkgray" stroke="darkgray" stroke-width="1.5" points="870.13,-138.6 866.63,-128.6 863.13,-138.6 870.13,-138.6"/>
</g>
<!-- funcs -->
<g id="node20" class="node">
<title>funcs</title>
<polygon fill="lightyellow" stroke="black" points="966.62,-136 918.62,-136 918.62,-80 972.62,-80 972.62,-130 966.62,-136"/>
<polyline fill="none" stroke="black" points="966.62,-136 966.62,-130"/>
<polyline fill="none" stroke="black" points="972.62,-130 966.62,-130"/>
<text xml:space="preserve" text-anchor="middle" x="945.62" y="-122.5" font-family="Arial" font-size="10.00">• sqrt()</text>
<text xml:space="preserve" text-anchor="middle" x="945.62" y="-110.5" font-family="Arial" font-size="10.00">• ceil()</text>
<text xml:space="preserve" text-anchor="middle" x="945.62" y="-98.5" font-family="Arial" font-size="10.00">• floor()</text>
<text xml:space="preserve" text-anchor="middle" x="945.62" y="-86.5" font-family="Arial" font-size="10.00">• pow()</text>
</g>
<!-- mathlib&#45;&gt;funcs -->
<g id="edge19" class="edge">
<title>mathlib&#45;&gt;funcs</title>
<path fill="none" stroke="darkgray" stroke-width="1.5" d="M883.77,-171.64C891.47,-163.84 900.86,-154.33 909.98,-145.09"/>
<polygon fill="darkgray" stroke="darkgray" stroke-width="1.5" points="912.44,-147.58 916.98,-138.01 907.46,-142.66 912.44,-147.58"/>
</g>
<!-- integers -->
<g id="node12" class="node">
<title>integers</title>
<polygon fill="lightyellow" stroke="black" points="176.12,-44 91.12,-44 91.12,0 182.12,0 182.12,-38 176.12,-44"/>
<polyline fill="none" stroke="black" points="176.12,-44 176.12,-38"/>
<polyline fill="none" stroke="black" points="182.12,-38 176.12,-38"/>
<text xml:space="preserve" text-anchor="middle" x="136.62" y="-30.5" font-family="Arial" font-size="10.00">Integers (int)</text>
<text xml:space="preserve" text-anchor="middle" x="136.62" y="-18.5" font-family="Arial" font-size="10.00">• Whole numbers</text>
<text xml:space="preserve" text-anchor="middle" x="136.62" y="-6.5" font-family="Arial" font-size="10.00">• No decimals</text>
</g>
<!-- numbers&#45;&gt;integers -->
<g id="edge11" class="edge">
<title>numbers&#45;&gt;integers</title>
<path fill="none" stroke="darkgray" stroke-width="1.5" d="M181.81,-89.6C174.9,-79.41 165.97,-66.25 157.88,-54.32"/>
<polygon fill="darkgray" stroke="darkgray" stroke-width="1.5" points="160.83,-52.44 152.32,-46.13 155.04,-56.37 160.83,-52.44"/>
</g>
<!-- floats -->
<g id="node13" class="node">
<title>floats</title>
<polygon fill="lightyellow" stroke="black" points="295,-44 200.25,-44 200.25,0 301,0 301,-38 295,-44"/>
<polyline fill="none" stroke="black" points="295,-44 295,-38"/>
<polyline fill="none" stroke="black" points="301,-38 295,-38"/>
<text xml:space="preserve" text-anchor="middle" x="250.62" y="-30.5" font-family="Arial" font-size="10.00">Floats</text>
<text xml:space="preserve" text-anchor="middle" x="250.62" y="-18.5" font-family="Arial" font-size="10.00">• Decimals</text>
<text xml:space="preserve" text-anchor="middle" x="250.62" y="-6.5" font-family="Arial" font-size="10.00">• Scientific notation</text>
</g>
<!-- numbers&#45;&gt;floats -->
<g id="edge12" class="edge">
<title>numbers&#45;&gt;floats</title>
<path fill="none" stroke="darkgray" stroke-width="1.5" d="M205.44,-89.6C212.35,-79.41 221.28,-66.25 229.37,-54.32"/>
<polygon fill="darkgray" stroke="darkgray" stroke-width="1.5" points="232.21,-56.37 234.93,-46.13 226.42,-52.44 232.21,-56.37"/>
</g>
</g>
</svg>
