<?xml version="1.0" encoding="UTF-8" standalone="no"?>
<!DOCTYPE svg PUBLIC "-//W3C//DTD SVG 1.1//EN"
 "http://www.w3.org/Graphics/SVG/1.1/DTD/svg11.dtd">
<!-- Generated by graphviz version 13.1.0 (20250701.0955)
 -->
<!-- Title: Module11_MindMap Pages: 1 -->
<svg width="1269pt" height="227pt"
 viewBox="0.00 0.00 1269.00 227.00" xmlns="http://www.w3.org/2000/svg" xmlns:xlink="http://www.w3.org/1999/xlink">
<g id="graph0" class="graph" transform="scale(1 1) rotate(0) translate(4 223.25)">
<title>Module11_MindMap</title>
<polygon fill="white" stroke="none" points="-4,4 -4,-223.25 1265.25,-223.25 1265.25,4 -4,4"/>
<!-- central -->
<g id="node1" class="node">
<title>central</title>
<path fill="darkblue" stroke="black" stroke-width="2" d="M699.5,-219.25C699.5,-219.25 599.5,-219.25 599.5,-219.25 593.5,-219.25 587.5,-213.25 587.5,-207.25 587.5,-207.25 587.5,-176 587.5,-176 587.5,-170 593.5,-164 599.5,-164 599.5,-164 699.5,-164 699.5,-164 705.5,-164 711.5,-170 711.5,-176 711.5,-176 711.5,-207.25 711.5,-207.25 711.5,-213.25 705.5,-219.25 699.5,-219.25"/>
<text xml:space="preserve" text-anchor="middle" x="649.5" y="-201.95" font-family="Arial" font-size="14.00" fill="white">Module 11:</text>
<text xml:space="preserve" text-anchor="middle" x="649.5" y="-186.2" font-family="Arial" font-size="14.00" fill="white">Data Visualization</text>
<text xml:space="preserve" text-anchor="middle" x="649.5" y="-170.45" font-family="Arial" font-size="14.00" fill="white">with Matplotlib</text>
</g>
<!-- why -->
<g id="node2" class="node">
<title>why</title>
<path fill="lightblue" stroke="black" d="M187,-128C187,-128 150,-128 150,-128 144,-128 138,-122 138,-116 138,-116 138,-104 138,-104 138,-98 144,-92 150,-92 150,-92 187,-92 187,-92 193,-92 199,-98 199,-104 199,-104 199,-116 199,-116 199,-122 193,-128 187,-128"/>
<text xml:space="preserve" text-anchor="middle" x="168.5" y="-112.5" font-family="Arial" font-size="10.00">Why</text>
<text xml:space="preserve" text-anchor="middle" x="168.5" y="-100.5" font-family="Arial" font-size="10.00">Visualize?</text>
</g>
<!-- central&#45;&gt;why -->
<g id="edge1" class="edge">
<title>central&#45;&gt;why</title>
<path fill="none" stroke="darkgray" stroke-width="1.5" d="M586.62,-180.22C487.21,-163.76 296.32,-132.16 211.24,-118.08"/>
<polygon fill="darkgray" stroke="darkgray" stroke-width="1.5" points="211.92,-114.64 201.48,-116.46 210.77,-121.55 211.92,-114.64"/>
</g>
<!-- charts -->
<g id="node3" class="node">
<title>charts</title>
<path fill="lightblue" stroke="black" d="M425.5,-128C425.5,-128 395.5,-128 395.5,-128 389.5,-128 383.5,-122 383.5,-116 383.5,-116 383.5,-104 383.5,-104 383.5,-98 389.5,-92 395.5,-92 395.5,-92 425.5,-92 425.5,-92 431.5,-92 437.5,-98 437.5,-104 437.5,-104 437.5,-116 437.5,-116 437.5,-122 431.5,-128 425.5,-128"/>
<text xml:space="preserve" text-anchor="middle" x="410.5" y="-112.5" font-family="Arial" font-size="10.00">Chart</text>
<text xml:space="preserve" text-anchor="middle" x="410.5" y="-100.5" font-family="Arial" font-size="10.00">Types</text>
</g>
<!-- central&#45;&gt;charts -->
<g id="edge2" class="edge">
<title>central&#45;&gt;charts</title>
<path fill="none" stroke="darkgray" stroke-width="1.5" d="M586.71,-169.7C543.03,-155.15 486.19,-136.22 449.05,-123.84"/>
<polygon fill="darkgray" stroke="darkgray" stroke-width="1.5" points="450.47,-120.63 439.87,-120.79 448.25,-127.27 450.47,-120.63"/>
</g>
<!-- custom -->
<g id="node4" class="node">
<title>custom</title>
<path fill="lightblue" stroke="black" d="M677,-128C677,-128 622,-128 622,-128 616,-128 610,-122 610,-116 610,-116 610,-104 610,-104 610,-98 616,-92 622,-92 622,-92 677,-92 677,-92 683,-92 689,-98 689,-104 689,-104 689,-116 689,-116 689,-122 683,-128 677,-128"/>
<text xml:space="preserve" text-anchor="middle" x="649.5" y="-112.5" font-family="Arial" font-size="10.00">Customization</text>
<text xml:space="preserve" text-anchor="middle" x="649.5" y="-100.5" font-family="Arial" font-size="10.00">&amp; Styling</text>
</g>
<!-- central&#45;&gt;custom -->
<g id="edge3" class="edge">
<title>central&#45;&gt;custom</title>
<path fill="none" stroke="darkgray" stroke-width="1.5" d="M649.5,-163.22C649.5,-155.93 649.5,-148.03 649.5,-140.63"/>
<polygon fill="darkgray" stroke="darkgray" stroke-width="1.5" points="653,-140.74 649.5,-130.74 646,-140.74 653,-140.74"/>
</g>
<!-- pandas -->
<g id="node5" class="node">
<title>pandas</title>
<path fill="lightblue" stroke="black" d="M882.38,-128C882.38,-128 844.62,-128 844.62,-128 838.62,-128 832.62,-122 832.62,-116 832.62,-116 832.62,-104 832.62,-104 832.62,-98 838.62,-92 844.62,-92 844.62,-92 882.38,-92 882.38,-92 888.38,-92 894.38,-98 894.38,-104 894.38,-104 894.38,-116 894.38,-116 894.38,-122 888.38,-128 882.38,-128"/>
<text xml:space="preserve" text-anchor="middle" x="863.5" y="-112.5" font-family="Arial" font-size="10.00">Pandas</text>
<text xml:space="preserve" text-anchor="middle" x="863.5" y="-100.5" font-family="Arial" font-size="10.00">Integration</text>
</g>
<!-- central&#45;&gt;pandas -->
<g id="edge4" class="edge">
<title>central&#45;&gt;pandas</title>
<path fill="none" stroke="darkgray" stroke-width="1.5" d="M712.26,-167.27C747.26,-154.25 789.91,-138.38 820.99,-126.82"/>
<polygon fill="darkgray" stroke="darkgray" stroke-width="1.5" points="822.02,-130.17 830.17,-123.4 819.58,-123.61 822.02,-130.17"/>
</g>
<!-- best -->
<g id="node6" class="node">
<title>best</title>
<path fill="lightblue" stroke="black" d="M1120.12,-128C1120.12,-128 1086.88,-128 1086.88,-128 1080.88,-128 1074.88,-122 1074.88,-116 1074.88,-116 1074.88,-104 1074.88,-104 1074.88,-98 1080.88,-92 1086.88,-92 1086.88,-92 1120.12,-92 1120.12,-92 1126.12,-92 1132.12,-98 1132.12,-104 1132.12,-104 1132.12,-116 1132.12,-116 1132.12,-122 1126.12,-128 1120.12,-128"/>
<text xml:space="preserve" text-anchor="middle" x="1103.5" y="-112.5" font-family="Arial" font-size="10.00">Best</text>
<text xml:space="preserve" text-anchor="middle" x="1103.5" y="-100.5" font-family="Arial" font-size="10.00">Practices</text>
</g>
<!-- central&#45;&gt;best -->
<g id="edge5" class="edge">
<title>central&#45;&gt;best</title>
<path fill="none" stroke="darkgray" stroke-width="1.5" d="M712.15,-179.64C806.59,-163.07 982.82,-132.17 1062.5,-118.19"/>
<polygon fill="darkgray" stroke="darkgray" stroke-width="1.5" points="1062.96,-121.66 1072.2,-116.49 1061.75,-114.77 1062.96,-121.66"/>
</g>
<!-- why_benefits -->
<g id="node7" class="node">
<title>why_benefits</title>
<polygon fill="lightyellow" stroke="black" points="103,-56 0,-56 0,0 109,0 109,-50 103,-56"/>
<polyline fill="none" stroke="black" points="103,-56 103,-50"/>
<polyline fill="none" stroke="black" points="109,-50 103,-50"/>
<text xml:space="preserve" text-anchor="middle" x="54.5" y="-42.5" font-family="Arial" font-size="10.00">• Pattern Recognition</text>
<text xml:space="preserve" text-anchor="middle" x="54.5" y="-30.5" font-family="Arial" font-size="10.00">• Communication</text>
<text xml:space="preserve" text-anchor="middle" x="54.5" y="-18.5" font-family="Arial" font-size="10.00">• Memory Retention</text>
<text xml:space="preserve" text-anchor="middle" x="54.5" y="-6.5" font-family="Arial" font-size="10.00">• Engagement</text>
</g>
<!-- why&#45;&gt;why_benefits -->
<g id="edge6" class="edge">
<title>why&#45;&gt;why_benefits</title>
<path fill="none" stroke="darkgray" stroke-width="1.5" d="M143.76,-91.64C131.96,-83.36 117.4,-73.14 103.5,-63.38"/>
<polygon fill="darkgray" stroke="darkgray" stroke-width="1.5" points="105.59,-60.58 95.39,-57.7 101.57,-66.3 105.59,-60.58"/>
</g>
<!-- why_insights -->
<g id="node8" class="node">
<title>why_insights</title>
<polygon fill="lightyellow" stroke="black" points="203.5,-56 127.5,-56 127.5,0 209.5,0 209.5,-50 203.5,-56"/>
<polyline fill="none" stroke="black" points="203.5,-56 203.5,-50"/>
<polyline fill="none" stroke="black" points="209.5,-50 203.5,-50"/>
<text xml:space="preserve" text-anchor="middle" x="168.5" y="-42.5" font-family="Arial" font-size="10.00">• Trends</text>
<text xml:space="preserve" text-anchor="middle" x="168.5" y="-30.5" font-family="Arial" font-size="10.00">• Outliers</text>
<text xml:space="preserve" text-anchor="middle" x="168.5" y="-18.5" font-family="Arial" font-size="10.00">• Relationships</text>
<text xml:space="preserve" text-anchor="middle" x="168.5" y="-6.5" font-family="Arial" font-size="10.00">• Distributions</text>
</g>
<!-- why&#45;&gt;why_insights -->
<g id="edge7" class="edge">
<title>why&#45;&gt;why_insights</title>
<path fill="none" stroke="darkgray" stroke-width="1.5" d="M168.5,-91.64C168.5,-84.81 168.5,-76.65 168.5,-68.53"/>
<polygon fill="darkgray" stroke="darkgray" stroke-width="1.5" points="172,-68.66 168.5,-58.66 165,-68.66 172,-68.66"/>
</g>
<!-- basic_charts -->
<g id="node9" class="node">
<title>basic_charts</title>
<polygon fill="lightyellow" stroke="black" points="301.38,-50 227.62,-50 227.62,-6 307.38,-6 307.38,-44 301.38,-50"/>
<polyline fill="none" stroke="black" points="301.38,-50 301.38,-44"/>
<polyline fill="none" stroke="black" points="307.38,-44 301.38,-44"/>
<text xml:space="preserve" text-anchor="middle" x="267.5" y="-36.5" font-family="Arial" font-size="10.00">• Line Charts</text>
<text xml:space="preserve" text-anchor="middle" x="267.5" y="-24.5" font-family="Arial" font-size="10.00">• Bar Charts</text>
<text xml:space="preserve" text-anchor="middle" x="267.5" y="-12.5" font-family="Arial" font-size="10.00">• Scatter Plots</text>
</g>
<!-- charts&#45;&gt;basic_charts -->
<g id="edge8" class="edge">
<title>charts&#45;&gt;basic_charts</title>
<path fill="none" stroke="darkgray" stroke-width="1.5" d="M383.05,-93.72C366.14,-84.3 343.81,-71.84 315.98,-56.26"/>
<polygon fill="darkgray" stroke="darkgray" stroke-width="1.5" points="317.9,-53.33 307.47,-51.49 314.48,-59.43 317.9,-53.33"/>
</g>
<!-- dist_charts -->
<g id="node10" class="node">
<title>dist_charts</title>
<polygon fill="lightyellow" stroke="black" points="392,-50 325,-50 325,-6 398,-6 398,-44 392,-50"/>
<polyline fill="none" stroke="black" points="392,-50 392,-44"/>
<polyline fill="none" stroke="black" points="398,-44 392,-44"/>
<text xml:space="preserve" text-anchor="middle" x="361.5" y="-36.5" font-family="Arial" font-size="10.00">• Histograms</text>
<text xml:space="preserve" text-anchor="middle" x="361.5" y="-24.5" font-family="Arial" font-size="10.00">• Pie Charts</text>
<text xml:space="preserve" text-anchor="middle" x="361.5" y="-12.5" font-family="Arial" font-size="10.00">• Box Plots</text>
</g>
<!-- charts&#45;&gt;dist_charts -->
<g id="edge9" class="edge">
<title>charts&#45;&gt;dist_charts</title>
<path fill="none" stroke="darkgray" stroke-width="1.5" d="M399.87,-91.64C394.29,-82.54 387.29,-71.11 380.8,-60.52"/>
<polygon fill="darkgray" stroke="darkgray" stroke-width="1.5" points="383.95,-58.95 375.74,-52.25 377.98,-62.61 383.95,-58.95"/>
</g>
<!-- multi_charts -->
<g id="node11" class="node">
<title>multi_charts</title>
<polygon fill="lightyellow" stroke="black" points="497.12,-50 415.88,-50 415.88,-6 503.12,-6 503.12,-44 497.12,-50"/>
<polyline fill="none" stroke="black" points="497.12,-50 497.12,-44"/>
<polyline fill="none" stroke="black" points="503.12,-44 497.12,-44"/>
<text xml:space="preserve" text-anchor="middle" x="459.5" y="-36.5" font-family="Arial" font-size="10.00">• Subplots</text>
<text xml:space="preserve" text-anchor="middle" x="459.5" y="-24.5" font-family="Arial" font-size="10.00">• Multiple Series</text>
<text xml:space="preserve" text-anchor="middle" x="459.5" y="-12.5" font-family="Arial" font-size="10.00">• Dashboards</text>
</g>
<!-- charts&#45;&gt;multi_charts -->
<g id="edge10" class="edge">
<title>charts&#45;&gt;multi_charts</title>
<path fill="none" stroke="darkgray" stroke-width="1.5" d="M421.13,-91.64C426.71,-82.54 433.71,-71.11 440.2,-60.52"/>
<polygon fill="darkgray" stroke="darkgray" stroke-width="1.5" points="443.02,-62.61 445.26,-52.25 437.05,-58.95 443.02,-62.61"/>
</g>
<!-- labels_titles -->
<g id="node12" class="node">
<title>labels_titles</title>
<polygon fill="lightyellow" stroke="black" points="589.38,-50 521.62,-50 521.62,-6 595.38,-6 595.38,-44 589.38,-50"/>
<polyline fill="none" stroke="black" points="589.38,-50 589.38,-44"/>
<polyline fill="none" stroke="black" points="595.38,-44 589.38,-44"/>
<text xml:space="preserve" text-anchor="middle" x="558.5" y="-36.5" font-family="Arial" font-size="10.00">• Titles</text>
<text xml:space="preserve" text-anchor="middle" x="558.5" y="-24.5" font-family="Arial" font-size="10.00">• Axis Labels</text>
<text xml:space="preserve" text-anchor="middle" x="558.5" y="-12.5" font-family="Arial" font-size="10.00">• Annotations</text>
</g>
<!-- custom&#45;&gt;labels_titles -->
<g id="edge11" class="edge">
<title>custom&#45;&gt;labels_titles</title>
<path fill="none" stroke="darkgray" stroke-width="1.5" d="M629.75,-91.64C618.65,-81.88 604.49,-69.43 591.73,-58.21"/>
<polygon fill="darkgray" stroke="darkgray" stroke-width="1.5" points="594.27,-55.79 584.45,-51.81 589.65,-61.04 594.27,-55.79"/>
</g>
<!-- styling -->
<g id="node13" class="node">
<title>styling</title>
<polygon fill="lightyellow" stroke="black" points="679.25,-56 613.75,-56 613.75,0 685.25,0 685.25,-50 679.25,-56"/>
<polyline fill="none" stroke="black" points="679.25,-56 679.25,-50"/>
<polyline fill="none" stroke="black" points="685.25,-50 679.25,-50"/>
<text xml:space="preserve" text-anchor="middle" x="649.5" y="-42.5" font-family="Arial" font-size="10.00">• Colors</text>
<text xml:space="preserve" text-anchor="middle" x="649.5" y="-30.5" font-family="Arial" font-size="10.00">• Line Styles</text>
<text xml:space="preserve" text-anchor="middle" x="649.5" y="-18.5" font-family="Arial" font-size="10.00">• Markers</text>
<text xml:space="preserve" text-anchor="middle" x="649.5" y="-6.5" font-family="Arial" font-size="10.00">• Fonts</text>
</g>
<!-- custom&#45;&gt;styling -->
<g id="edge12" class="edge">
<title>custom&#45;&gt;styling</title>
<path fill="none" stroke="darkgray" stroke-width="1.5" d="M649.5,-91.64C649.5,-84.81 649.5,-76.65 649.5,-68.53"/>
<polygon fill="darkgray" stroke="darkgray" stroke-width="1.5" points="653,-68.66 649.5,-58.66 646,-68.66 653,-68.66"/>
</g>
<!-- elements -->
<g id="node14" class="node">
<title>elements</title>
<polygon fill="lightyellow" stroke="black" points="769.62,-50 703.38,-50 703.38,-6 775.62,-6 775.62,-44 769.62,-50"/>
<polyline fill="none" stroke="black" points="769.62,-50 769.62,-44"/>
<polyline fill="none" stroke="black" points="775.62,-44 769.62,-44"/>
<text xml:space="preserve" text-anchor="middle" x="739.5" y="-36.5" font-family="Arial" font-size="10.00">• Legends</text>
<text xml:space="preserve" text-anchor="middle" x="739.5" y="-24.5" font-family="Arial" font-size="10.00">• Grids</text>
<text xml:space="preserve" text-anchor="middle" x="739.5" y="-12.5" font-family="Arial" font-size="10.00">• Figure Size</text>
</g>
<!-- custom&#45;&gt;elements -->
<g id="edge13" class="edge">
<title>custom&#45;&gt;elements</title>
<path fill="none" stroke="darkgray" stroke-width="1.5" d="M669.03,-91.64C680.01,-81.88 694.01,-69.43 706.64,-58.21"/>
<polygon fill="darkgray" stroke="darkgray" stroke-width="1.5" points="708.68,-61.08 713.83,-51.82 704.03,-55.85 708.68,-61.08"/>
</g>
<!-- plot_method -->
<g id="node15" class="node">
<title>plot_method</title>
<path fill="lightgreen" stroke="black" d="M835.5,-46C835.5,-46 805.5,-46 805.5,-46 799.5,-46 793.5,-40 793.5,-34 793.5,-34 793.5,-22 793.5,-22 793.5,-16 799.5,-10 805.5,-10 805.5,-10 835.5,-10 835.5,-10 841.5,-10 847.5,-16 847.5,-22 847.5,-22 847.5,-34 847.5,-34 847.5,-40 841.5,-46 835.5,-46"/>
<text xml:space="preserve" text-anchor="middle" x="820.5" y="-30.5" font-family="Arial" font-size="10.00">.plot()</text>
<text xml:space="preserve" text-anchor="middle" x="820.5" y="-18.5" font-family="Arial" font-size="10.00">Method</text>
</g>
<!-- pandas&#45;&gt;plot_method -->
<g id="edge14" class="edge">
<title>pandas&#45;&gt;plot_method</title>
<path fill="none" stroke="darkgray" stroke-width="1.5" d="M854.17,-91.64C848.7,-81.47 841.67,-68.39 835.45,-56.82"/>
<polygon fill="darkgray" stroke="darkgray" stroke-width="1.5" points="838.7,-55.48 830.89,-48.32 832.54,-58.79 838.7,-55.48"/>
</g>
<!-- plot_types -->
<g id="node16" class="node">
<title>plot_types</title>
<polygon fill="lightyellow" stroke="black" points="941.12,-56 865.88,-56 865.88,0 947.12,0 947.12,-50 941.12,-56"/>
<polyline fill="none" stroke="black" points="941.12,-56 941.12,-50"/>
<polyline fill="none" stroke="black" points="947.12,-50 941.12,-50"/>
<text xml:space="preserve" text-anchor="middle" x="906.5" y="-42.5" font-family="Arial" font-size="10.00">• kind=&#39;line&#39;</text>
<text xml:space="preserve" text-anchor="middle" x="906.5" y="-30.5" font-family="Arial" font-size="10.00">• kind=&#39;bar&#39;</text>
<text xml:space="preserve" text-anchor="middle" x="906.5" y="-18.5" font-family="Arial" font-size="10.00">• kind=&#39;scatter&#39;</text>
<text xml:space="preserve" text-anchor="middle" x="906.5" y="-6.5" font-family="Arial" font-size="10.00">• kind=&#39;hist&#39;</text>
</g>
<!-- pandas&#45;&gt;plot_types -->
<g id="edge15" class="edge">
<title>pandas&#45;&gt;plot_types</title>
<path fill="none" stroke="darkgray" stroke-width="1.5" d="M872.83,-91.64C876.72,-84.4 881.4,-75.69 886.02,-67.1"/>
<polygon fill="darkgray" stroke="darkgray" stroke-width="1.5" points="889.05,-68.86 890.7,-58.39 882.88,-65.54 889.05,-68.86"/>
</g>
<!-- convenience -->
<g id="node17" class="node">
<title>convenience</title>
<path fill="lightgreen" stroke="black" d="M1017.88,-46C1017.88,-46 977.12,-46 977.12,-46 971.12,-46 965.12,-40 965.12,-34 965.12,-34 965.12,-22 965.12,-22 965.12,-16 971.12,-10 977.12,-10 977.12,-10 1017.88,-10 1017.88,-10 1023.88,-10 1029.88,-16 1029.88,-22 1029.88,-22 1029.88,-34 1029.88,-34 1029.88,-40 1023.88,-46 1017.88,-46"/>
<text xml:space="preserve" text-anchor="middle" x="997.5" y="-30.5" font-family="Arial" font-size="10.00">Direct from</text>
<text xml:space="preserve" text-anchor="middle" x="997.5" y="-18.5" font-family="Arial" font-size="10.00">DataFrame</text>
</g>
<!-- pandas&#45;&gt;convenience -->
<g id="edge16" class="edge">
<title>pandas&#45;&gt;convenience</title>
<path fill="none" stroke="darkgray" stroke-width="1.5" d="M894.79,-91.83C912.97,-81.69 936.22,-68.44 956.5,-56 958.2,-54.96 959.93,-53.88 961.67,-52.79"/>
<polygon fill="darkgray" stroke="darkgray" stroke-width="1.5" points="963.2,-55.97 969.72,-47.62 959.42,-50.07 963.2,-55.97"/>
</g>
<!-- chart_selection -->
<g id="node18" class="node">
<title>chart_selection</title>
<polygon fill="lightyellow" stroke="black" points="1153.5,-50 1047.5,-50 1047.5,-6 1159.5,-6 1159.5,-44 1153.5,-50"/>
<polyline fill="none" stroke="black" points="1153.5,-50 1153.5,-44"/>
<polyline fill="none" stroke="black" points="1159.5,-44 1153.5,-44"/>
<text xml:space="preserve" text-anchor="middle" x="1103.5" y="-36.5" font-family="Arial" font-size="10.00">• Match Chart to Data</text>
<text xml:space="preserve" text-anchor="middle" x="1103.5" y="-24.5" font-family="Arial" font-size="10.00">• Consider Audience</text>
<text xml:space="preserve" text-anchor="middle" x="1103.5" y="-12.5" font-family="Arial" font-size="10.00">• Clear Purpose</text>
</g>
<!-- best&#45;&gt;chart_selection -->
<g id="edge17" class="edge">
<title>best&#45;&gt;chart_selection</title>
<path fill="none" stroke="darkgray" stroke-width="1.5" d="M1103.5,-91.64C1103.5,-83.11 1103.5,-72.53 1103.5,-62.51"/>
<polygon fill="darkgray" stroke="darkgray" stroke-width="1.5" points="1107,-62.58 1103.5,-52.58 1100,-62.58 1107,-62.58"/>
</g>
<!-- design_principles -->
<g id="node19" class="node">
<title>design_principles</title>
<polygon fill="lightyellow" stroke="black" points="1255.25,-56 1177.75,-56 1177.75,0 1261.25,0 1261.25,-50 1255.25,-56"/>
<polyline fill="none" stroke="black" points="1255.25,-56 1255.25,-50"/>
<polyline fill="none" stroke="black" points="1261.25,-50 1255.25,-50"/>
<text xml:space="preserve" text-anchor="middle" x="1219.5" y="-42.5" font-family="Arial" font-size="10.00">• Simplicity</text>
<text xml:space="preserve" text-anchor="middle" x="1219.5" y="-30.5" font-family="Arial" font-size="10.00">• Data Honesty</text>
<text xml:space="preserve" text-anchor="middle" x="1219.5" y="-18.5" font-family="Arial" font-size="10.00">• Accessibility</text>
<text xml:space="preserve" text-anchor="middle" x="1219.5" y="-6.5" font-family="Arial" font-size="10.00">• Color Choice</text>
</g>
<!-- best&#45;&gt;design_principles -->
<g id="edge18" class="edge">
<title>best&#45;&gt;design_principles</title>
<path fill="none" stroke="darkgray" stroke-width="1.5" d="M1128.67,-91.64C1140.8,-83.28 1155.78,-72.94 1170.06,-63.1"/>
<polygon fill="darkgray" stroke="darkgray" stroke-width="1.5" points="1171.67,-66.24 1177.91,-57.68 1167.69,-60.48 1171.67,-66.24"/>
</g>
</g>
</svg>
