<?xml version="1.0" encoding="UTF-8" standalone="no"?>
<!DOCTYPE svg PUBLIC "-//W3C//DTD SVG 1.1//EN"
 "http://www.w3.org/Graphics/SVG/1.1/DTD/svg11.dtd">
<!-- Generated by graphviz version 13.1.0 (20250701.0955)
 -->
<!-- Title: Module4_MindMap Pages: 1 -->
<svg width="1119pt" height="304pt"
 viewBox="0.00 0.00 1119.00 304.00" xmlns="http://www.w3.org/2000/svg" xmlns:xlink="http://www.w3.org/1999/xlink">
<g id="graph0" class="graph" transform="scale(1 1) rotate(0) translate(4 299.5)">
<title>Module4_MindMap</title>
<polygon fill="white" stroke="none" points="-4,4 -4,-299.5 1114.5,-299.5 1114.5,4 -4,4"/>
<!-- central -->
<g id="node1" class="node">
<title>central</title>
<path fill="darkblue" stroke="black" stroke-width="2" d="M734.5,-295.5C734.5,-295.5 657.75,-295.5 657.75,-295.5 651.75,-295.5 645.75,-289.5 645.75,-283.5 645.75,-283.5 645.75,-268 645.75,-268 645.75,-262 651.75,-256 657.75,-256 657.75,-256 734.5,-256 734.5,-256 740.5,-256 746.5,-262 746.5,-268 746.5,-268 746.5,-283.5 746.5,-283.5 746.5,-289.5 740.5,-295.5 734.5,-295.5"/>
<text xml:space="preserve" text-anchor="middle" x="696.12" y="-278.2" font-family="Arial" font-size="14.00" fill="white">Module 4:</text>
<text xml:space="preserve" text-anchor="middle" x="696.12" y="-262.45" font-family="Arial" font-size="14.00" fill="white">Lists &amp; Tuples</text>
</g>
<!-- lists -->
<g id="node2" class="node">
<title>lists</title>
<path fill="lightblue" stroke="black" d="M246.38,-220C246.38,-220 213.88,-220 213.88,-220 207.88,-220 201.88,-214 201.88,-208 201.88,-208 201.88,-196 201.88,-196 201.88,-190 207.88,-184 213.88,-184 213.88,-184 246.38,-184 246.38,-184 252.38,-184 258.38,-190 258.38,-196 258.38,-196 258.38,-208 258.38,-208 258.38,-214 252.38,-220 246.38,-220"/>
<text xml:space="preserve" text-anchor="middle" x="230.12" y="-204.5" font-family="Arial" font-size="10.00">Lists</text>
<text xml:space="preserve" text-anchor="middle" x="230.12" y="-192.5" font-family="Arial" font-size="10.00">(Mutable)</text>
</g>
<!-- central&#45;&gt;lists -->
<g id="edge1" class="edge">
<title>central&#45;&gt;lists</title>
<path fill="none" stroke="darkgray" stroke-width="1.5" d="M644.92,-266.87C551.61,-252.5 355.69,-222.33 270.79,-209.26"/>
<polygon fill="darkgray" stroke="darkgray" stroke-width="1.5" points="271.52,-205.83 261.1,-207.77 270.46,-212.75 271.52,-205.83"/>
</g>
<!-- list_methods -->
<g id="node3" class="node">
<title>list_methods</title>
<path fill="lightblue" stroke="black" d="M526.12,-220C526.12,-220 496.12,-220 496.12,-220 490.12,-220 484.12,-214 484.12,-208 484.12,-208 484.12,-196 484.12,-196 484.12,-190 490.12,-184 496.12,-184 496.12,-184 526.12,-184 526.12,-184 532.12,-184 538.12,-190 538.12,-196 538.12,-196 538.12,-208 538.12,-208 538.12,-214 532.12,-220 526.12,-220"/>
<text xml:space="preserve" text-anchor="middle" x="511.12" y="-204.5" font-family="Arial" font-size="10.00">List</text>
<text xml:space="preserve" text-anchor="middle" x="511.12" y="-192.5" font-family="Arial" font-size="10.00">Methods</text>
</g>
<!-- central&#45;&gt;list_methods -->
<g id="edge2" class="edge">
<title>central&#45;&gt;list_methods</title>
<path fill="none" stroke="darkgray" stroke-width="1.5" d="M645.57,-255.14C615.34,-243.42 577.51,-228.75 549.69,-217.96"/>
<polygon fill="darkgray" stroke="darkgray" stroke-width="1.5" points="551.14,-214.77 540.55,-214.41 548.61,-221.29 551.14,-214.77"/>
</g>
<!-- tuples -->
<g id="node4" class="node">
<title>tuples</title>
<path fill="lightblue" stroke="black" d="M718,-220C718,-220 674.25,-220 674.25,-220 668.25,-220 662.25,-214 662.25,-208 662.25,-208 662.25,-196 662.25,-196 662.25,-190 668.25,-184 674.25,-184 674.25,-184 718,-184 718,-184 724,-184 730,-190 730,-196 730,-196 730,-208 730,-208 730,-214 724,-220 718,-220"/>
<text xml:space="preserve" text-anchor="middle" x="696.12" y="-204.5" font-family="Arial" font-size="10.00">Tuples</text>
<text xml:space="preserve" text-anchor="middle" x="696.12" y="-192.5" font-family="Arial" font-size="10.00">(Immutable)</text>
</g>
<!-- central&#45;&gt;tuples -->
<g id="edge3" class="edge">
<title>central&#45;&gt;tuples</title>
<path fill="none" stroke="darkgray" stroke-width="1.5" d="M696.12,-255.14C696.12,-248.13 696.12,-240.06 696.12,-232.39"/>
<polygon fill="darkgray" stroke="darkgray" stroke-width="1.5" points="699.63,-232.41 696.13,-222.41 692.63,-232.41 699.63,-232.41"/>
</g>
<!-- operations -->
<g id="node5" class="node">
<title>operations</title>
<path fill="lightblue" stroke="black" d="M865.75,-220C865.75,-220 826.5,-220 826.5,-220 820.5,-220 814.5,-214 814.5,-208 814.5,-208 814.5,-196 814.5,-196 814.5,-190 820.5,-184 826.5,-184 826.5,-184 865.75,-184 865.75,-184 871.75,-184 877.75,-190 877.75,-196 877.75,-196 877.75,-208 877.75,-208 877.75,-214 871.75,-220 865.75,-220"/>
<text xml:space="preserve" text-anchor="middle" x="846.12" y="-204.5" font-family="Arial" font-size="10.00">Common</text>
<text xml:space="preserve" text-anchor="middle" x="846.12" y="-192.5" font-family="Arial" font-size="10.00">Operations</text>
</g>
<!-- central&#45;&gt;operations -->
<g id="edge4" class="edge">
<title>central&#45;&gt;operations</title>
<path fill="none" stroke="darkgray" stroke-width="1.5" d="M737.11,-255.14C757.61,-245.34 782.4,-233.48 803.16,-223.55"/>
<polygon fill="darkgray" stroke="darkgray" stroke-width="1.5" points="804.66,-226.71 812.17,-219.24 801.64,-220.4 804.66,-226.71"/>
</g>
<!-- applications -->
<g id="node6" class="node">
<title>applications</title>
<path fill="lightblue" stroke="black" d="M1015.75,-220C1015.75,-220 970.5,-220 970.5,-220 964.5,-220 958.5,-214 958.5,-208 958.5,-208 958.5,-196 958.5,-196 958.5,-190 964.5,-184 970.5,-184 970.5,-184 1015.75,-184 1015.75,-184 1021.75,-184 1027.75,-190 1027.75,-196 1027.75,-196 1027.75,-208 1027.75,-208 1027.75,-214 1021.75,-220 1015.75,-220"/>
<text xml:space="preserve" text-anchor="middle" x="993.12" y="-204.5" font-family="Arial" font-size="10.00">Business</text>
<text xml:space="preserve" text-anchor="middle" x="993.12" y="-192.5" font-family="Arial" font-size="10.00">Applications</text>
</g>
<!-- central&#45;&gt;applications -->
<g id="edge5" class="edge">
<title>central&#45;&gt;applications</title>
<path fill="none" stroke="darkgray" stroke-width="1.5" d="M747.18,-262.42C803.15,-248.89 892.19,-227.38 946.39,-214.29"/>
<polygon fill="darkgray" stroke="darkgray" stroke-width="1.5" points="946.95,-217.76 955.85,-212 945.31,-210.95 946.95,-217.76"/>
</g>
<!-- creating -->
<g id="node7" class="node">
<title>creating</title>
<path fill="lightcoral" stroke="black" d="M94.5,-138C94.5,-138 41.75,-138 41.75,-138 35.75,-138 29.75,-132 29.75,-126 29.75,-126 29.75,-114 29.75,-114 29.75,-108 35.75,-102 41.75,-102 41.75,-102 94.5,-102 94.5,-102 100.5,-102 106.5,-108 106.5,-114 106.5,-114 106.5,-126 106.5,-126 106.5,-132 100.5,-138 94.5,-138"/>
<text xml:space="preserve" text-anchor="middle" x="68.12" y="-116.5" font-family="Arial" font-size="10.00">Creating Lists</text>
</g>
<!-- lists&#45;&gt;creating -->
<g id="edge6" class="edge">
<title>lists&#45;&gt;creating</title>
<path fill="none" stroke="darkgray" stroke-width="1.5" d="M201.82,-187.42C179.78,-176.79 148.44,-161.6 121.12,-148 118.42,-146.65 115.63,-145.26 112.83,-143.85"/>
<polygon fill="darkgray" stroke="darkgray" stroke-width="1.5" points="114.54,-140.79 104.03,-139.4 111.38,-147.04 114.54,-140.79"/>
</g>
<!-- indexing -->
<g id="node8" class="node">
<title>indexing</title>
<path fill="lightcoral" stroke="black" d="M212.5,-138C212.5,-138 141.75,-138 141.75,-138 135.75,-138 129.75,-132 129.75,-126 129.75,-126 129.75,-114 129.75,-114 129.75,-108 135.75,-102 141.75,-102 141.75,-102 212.5,-102 212.5,-102 218.5,-102 224.5,-108 224.5,-114 224.5,-114 224.5,-126 224.5,-126 224.5,-132 218.5,-138 212.5,-138"/>
<text xml:space="preserve" text-anchor="middle" x="177.12" y="-116.5" font-family="Arial" font-size="10.00">Indexing &amp; Slicing</text>
</g>
<!-- lists&#45;&gt;indexing -->
<g id="edge7" class="edge">
<title>lists&#45;&gt;indexing</title>
<path fill="none" stroke="darkgray" stroke-width="1.5" d="M218.62,-183.64C211.82,-173.37 203.04,-160.12 195.32,-148.46"/>
<polygon fill="darkgray" stroke="darkgray" stroke-width="1.5" points="198.3,-146.62 189.86,-140.22 192.46,-150.49 198.3,-146.62"/>
</g>
<!-- mutability -->
<g id="node9" class="node">
<title>mutability</title>
<path fill="lightcoral" stroke="black" d="M312.12,-138C312.12,-138 254.12,-138 254.12,-138 248.12,-138 242.12,-132 242.12,-126 242.12,-126 242.12,-114 242.12,-114 242.12,-108 248.12,-102 254.12,-102 254.12,-102 312.12,-102 312.12,-102 318.12,-102 324.12,-108 324.12,-114 324.12,-114 324.12,-126 324.12,-126 324.12,-132 318.12,-138 312.12,-138"/>
<text xml:space="preserve" text-anchor="middle" x="283.12" y="-116.5" font-family="Arial" font-size="10.00">Modifying Lists</text>
</g>
<!-- lists&#45;&gt;mutability -->
<g id="edge8" class="edge">
<title>lists&#45;&gt;mutability</title>
<path fill="none" stroke="darkgray" stroke-width="1.5" d="M241.63,-183.64C248.43,-173.37 257.21,-160.12 264.93,-148.46"/>
<polygon fill="darkgray" stroke="darkgray" stroke-width="1.5" points="267.79,-150.49 270.39,-140.22 261.95,-146.62 267.79,-150.49"/>
</g>
<!-- add_methods -->
<g id="node12" class="node">
<title>add_methods</title>
<polygon fill="lightyellow" stroke="black" points="399.75,-142 342.5,-142 342.5,-98 405.75,-98 405.75,-136 399.75,-142"/>
<polyline fill="none" stroke="black" points="399.75,-142 399.75,-136"/>
<polyline fill="none" stroke="black" points="405.75,-136 399.75,-136"/>
<text xml:space="preserve" text-anchor="middle" x="374.12" y="-128.5" font-family="Arial" font-size="10.00">• .append()</text>
<text xml:space="preserve" text-anchor="middle" x="374.12" y="-116.5" font-family="Arial" font-size="10.00">• .insert()</text>
<text xml:space="preserve" text-anchor="middle" x="374.12" y="-104.5" font-family="Arial" font-size="10.00">• .extend()</text>
</g>
<!-- list_methods&#45;&gt;add_methods -->
<g id="edge11" class="edge">
<title>list_methods&#45;&gt;add_methods</title>
<path fill="none" stroke="darkgray" stroke-width="1.5" d="M483.91,-186.7C466.63,-177.47 443.67,-164.92 416.43,-148.63"/>
<polygon fill="darkgray" stroke="darkgray" stroke-width="1.5" points="418.52,-145.8 408.15,-143.64 414.9,-151.8 418.52,-145.8"/>
</g>
<!-- remove_methods -->
<g id="node13" class="node">
<title>remove_methods</title>
<polygon fill="lightyellow" stroke="black" points="500.12,-142 424.12,-142 424.12,-98 506.12,-98 506.12,-136 500.12,-142"/>
<polyline fill="none" stroke="black" points="500.12,-142 500.12,-136"/>
<polyline fill="none" stroke="black" points="506.12,-136 500.12,-136"/>
<text xml:space="preserve" text-anchor="middle" x="465.12" y="-128.5" font-family="Arial" font-size="10.00">• .remove()</text>
<text xml:space="preserve" text-anchor="middle" x="465.12" y="-116.5" font-family="Arial" font-size="10.00">• .pop()</text>
<text xml:space="preserve" text-anchor="middle" x="465.12" y="-104.5" font-family="Arial" font-size="10.00">• del statement</text>
</g>
<!-- list_methods&#45;&gt;remove_methods -->
<g id="edge12" class="edge">
<title>list_methods&#45;&gt;remove_methods</title>
<path fill="none" stroke="darkgray" stroke-width="1.5" d="M501.14,-183.64C495.97,-174.64 489.48,-163.35 483.44,-152.85"/>
<polygon fill="darkgray" stroke="darkgray" stroke-width="1.5" points="486.53,-151.21 478.51,-144.28 480.46,-154.7 486.53,-151.21"/>
</g>
<!-- order_methods -->
<g id="node14" class="node">
<title>order_methods</title>
<polygon fill="lightyellow" stroke="black" points="582.12,-142 524.12,-142 524.12,-98 588.12,-98 588.12,-136 582.12,-142"/>
<polyline fill="none" stroke="black" points="582.12,-142 582.12,-136"/>
<polyline fill="none" stroke="black" points="588.12,-136 582.12,-136"/>
<text xml:space="preserve" text-anchor="middle" x="556.12" y="-128.5" font-family="Arial" font-size="10.00">• .sort()</text>
<text xml:space="preserve" text-anchor="middle" x="556.12" y="-116.5" font-family="Arial" font-size="10.00">• .reverse()</text>
<text xml:space="preserve" text-anchor="middle" x="556.12" y="-104.5" font-family="Arial" font-size="10.00">• sorted()</text>
</g>
<!-- list_methods&#45;&gt;order_methods -->
<g id="edge13" class="edge">
<title>list_methods&#45;&gt;order_methods</title>
<path fill="none" stroke="darkgray" stroke-width="1.5" d="M520.89,-183.64C525.95,-174.64 532.3,-163.35 538.21,-152.85"/>
<polygon fill="darkgray" stroke="darkgray" stroke-width="1.5" points="541.17,-154.72 543.02,-144.29 535.07,-151.29 541.17,-154.72"/>
</g>
<!-- tuple_create -->
<g id="node15" class="node">
<title>tuple_create</title>
<path fill="lightgreen" stroke="black" d="M678.25,-138C678.25,-138 618,-138 618,-138 612,-138 606,-132 606,-126 606,-126 606,-114 606,-114 606,-108 612,-102 618,-102 618,-102 678.25,-102 678.25,-102 684.25,-102 690.25,-108 690.25,-114 690.25,-114 690.25,-126 690.25,-126 690.25,-132 684.25,-138 678.25,-138"/>
<text xml:space="preserve" text-anchor="middle" x="648.12" y="-116.5" font-family="Arial" font-size="10.00">Creating Tuples</text>
</g>
<!-- tuples&#45;&gt;tuple_create -->
<g id="edge14" class="edge">
<title>tuples&#45;&gt;tuple_create</title>
<path fill="none" stroke="darkgray" stroke-width="1.5" d="M685.71,-183.64C679.61,-173.47 671.76,-160.39 664.82,-148.82"/>
<polygon fill="darkgray" stroke="darkgray" stroke-width="1.5" points="667.83,-147.05 659.69,-140.27 661.83,-150.65 667.83,-147.05"/>
</g>
<!-- tuple_use -->
<g id="node16" class="node">
<title>tuple_use</title>
<path fill="lightgreen" stroke="black" d="M770,-138C770,-138 720.25,-138 720.25,-138 714.25,-138 708.25,-132 708.25,-126 708.25,-126 708.25,-114 708.25,-114 708.25,-108 714.25,-102 720.25,-102 720.25,-102 770,-102 770,-102 776,-102 782,-108 782,-114 782,-114 782,-126 782,-126 782,-132 776,-138 770,-138"/>
<text xml:space="preserve" text-anchor="middle" x="745.12" y="-116.5" font-family="Arial" font-size="10.00">When to Use</text>
</g>
<!-- tuples&#45;&gt;tuple_use -->
<g id="edge15" class="edge">
<title>tuples&#45;&gt;tuple_use</title>
<path fill="none" stroke="darkgray" stroke-width="1.5" d="M706.76,-183.64C713.05,-173.37 721.16,-160.12 728.31,-148.46"/>
<polygon fill="darkgray" stroke="darkgray" stroke-width="1.5" points="731.09,-150.62 733.33,-140.26 725.12,-146.96 731.09,-150.62"/>
</g>
<!-- common_ops -->
<g id="node19" class="node">
<title>common_ops</title>
<polygon fill="lightyellow" stroke="black" points="886.38,-148 799.88,-148 799.88,-92 892.38,-92 892.38,-142 886.38,-148"/>
<polyline fill="none" stroke="black" points="886.38,-148 886.38,-142"/>
<polyline fill="none" stroke="black" points="892.38,-142 886.38,-142"/>
<text xml:space="preserve" text-anchor="middle" x="846.12" y="-134.5" font-family="Arial" font-size="10.00">• len()</text>
<text xml:space="preserve" text-anchor="middle" x="846.12" y="-122.5" font-family="Arial" font-size="10.00">• in operator</text>
<text xml:space="preserve" text-anchor="middle" x="846.12" y="-110.5" font-family="Arial" font-size="10.00">• + concatenation</text>
<text xml:space="preserve" text-anchor="middle" x="846.12" y="-98.5" font-family="Arial" font-size="10.00">• * repetition</text>
</g>
<!-- operations&#45;&gt;common_ops -->
<g id="edge18" class="edge">
<title>operations&#45;&gt;common_ops</title>
<path fill="none" stroke="darkgray" stroke-width="1.5" d="M846.12,-183.64C846.12,-176.81 846.12,-168.65 846.12,-160.53"/>
<polygon fill="darkgray" stroke="darkgray" stroke-width="1.5" points="849.63,-160.66 846.13,-150.66 842.63,-160.66 849.63,-160.66"/>
</g>
<!-- iteration -->
<g id="node20" class="node">
<title>iteration</title>
<polygon fill="lightyellow" stroke="black" points="979.38,-148 910.88,-148 910.88,-92 985.38,-92 985.38,-142 979.38,-148"/>
<polyline fill="none" stroke="black" points="979.38,-148 979.38,-142"/>
<polyline fill="none" stroke="black" points="985.38,-142 979.38,-142"/>
<text xml:space="preserve" text-anchor="middle" x="948.12" y="-134.5" font-family="Arial" font-size="10.00">• for loops</text>
<text xml:space="preserve" text-anchor="middle" x="948.12" y="-122.5" font-family="Arial" font-size="10.00">• enumerate()</text>
<text xml:space="preserve" text-anchor="middle" x="948.12" y="-110.5" font-family="Arial" font-size="10.00">• zip()</text>
<text xml:space="preserve" text-anchor="middle" x="948.12" y="-98.5" font-family="Arial" font-size="10.00">• unpacking</text>
</g>
<!-- operations&#45;&gt;iteration -->
<g id="edge19" class="edge">
<title>operations&#45;&gt;iteration</title>
<path fill="none" stroke="darkgray" stroke-width="1.5" d="M868.26,-183.64C878.61,-175.52 891.34,-165.54 903.56,-155.95"/>
<polygon fill="darkgray" stroke="darkgray" stroke-width="1.5" points="905.71,-158.72 911.41,-149.79 901.39,-153.21 905.71,-158.72"/>
</g>
<!-- use_cases -->
<g id="node21" class="node">
<title>use_cases</title>
<polygon fill="lightyellow" stroke="black" points="1104.5,-148 1003.75,-148 1003.75,-92 1110.5,-92 1110.5,-142 1104.5,-148"/>
<polyline fill="none" stroke="black" points="1104.5,-148 1104.5,-142"/>
<polyline fill="none" stroke="black" points="1110.5,-142 1104.5,-142"/>
<text xml:space="preserve" text-anchor="middle" x="1057.12" y="-134.5" font-family="Arial" font-size="10.00">• Sales data tracking</text>
<text xml:space="preserve" text-anchor="middle" x="1057.12" y="-122.5" font-family="Arial" font-size="10.00">• Customer records</text>
<text xml:space="preserve" text-anchor="middle" x="1057.12" y="-110.5" font-family="Arial" font-size="10.00">• Inventory lists</text>
<text xml:space="preserve" text-anchor="middle" x="1057.12" y="-98.5" font-family="Arial" font-size="10.00">• Time series data</text>
</g>
<!-- applications&#45;&gt;use_cases -->
<g id="edge20" class="edge">
<title>applications&#45;&gt;use_cases</title>
<path fill="none" stroke="darkgray" stroke-width="1.5" d="M1007.01,-183.64C1013.06,-176.08 1020.39,-166.91 1027.56,-157.95"/>
<polygon fill="darkgray" stroke="darkgray" stroke-width="1.5" points="1030.28,-160.16 1033.79,-150.16 1024.81,-155.79 1030.28,-160.16"/>
</g>
<!-- create_details -->
<g id="node10" class="node">
<title>create_details</title>
<polygon fill="lightyellow" stroke="black" points="108.25,-56 0,-56 0,0 114.25,0 114.25,-50 108.25,-56"/>
<polyline fill="none" stroke="black" points="108.25,-56 108.25,-50"/>
<polyline fill="none" stroke="black" points="114.25,-50 108.25,-50"/>
<text xml:space="preserve" text-anchor="middle" x="57.12" y="-42.5" font-family="Arial" font-size="10.00">• Empty: []</text>
<text xml:space="preserve" text-anchor="middle" x="57.12" y="-30.5" font-family="Arial" font-size="10.00">• With values: [1, 2, 3]</text>
<text xml:space="preserve" text-anchor="middle" x="57.12" y="-18.5" font-family="Arial" font-size="10.00">• Mixed types allowed</text>
<text xml:space="preserve" text-anchor="middle" x="57.12" y="-6.5" font-family="Arial" font-size="10.00">• list() function</text>
</g>
<!-- creating&#45;&gt;create_details -->
<g id="edge9" class="edge">
<title>creating&#45;&gt;create_details</title>
<path fill="none" stroke="darkgray" stroke-width="1.5" d="M66,-101.65C64.84,-92.09 63.34,-79.83 61.9,-68.1"/>
<polygon fill="darkgray" stroke="darkgray" stroke-width="1.5" points="65.41,-67.97 60.73,-58.47 58.47,-68.82 65.41,-67.97"/>
</g>
<!-- index_details -->
<g id="node11" class="node">
<title>index_details</title>
<polygon fill="lightyellow" stroke="black" points="227.88,-56 132.38,-56 132.38,0 233.88,0 233.88,-50 227.88,-56"/>
<polyline fill="none" stroke="black" points="227.88,-56 227.88,-50"/>
<polyline fill="none" stroke="black" points="233.88,-50 227.88,-50"/>
<text xml:space="preserve" text-anchor="middle" x="183.12" y="-42.5" font-family="Arial" font-size="10.00">• Zero&#45;based: list[0]</text>
<text xml:space="preserve" text-anchor="middle" x="183.12" y="-30.5" font-family="Arial" font-size="10.00">• Negative: list[&#45;1]</text>
<text xml:space="preserve" text-anchor="middle" x="183.12" y="-18.5" font-family="Arial" font-size="10.00">• Slicing: list[1:3]</text>
<text xml:space="preserve" text-anchor="middle" x="183.12" y="-6.5" font-family="Arial" font-size="10.00">• Step: list[::2]</text>
</g>
<!-- indexing&#45;&gt;index_details -->
<g id="edge10" class="edge">
<title>indexing&#45;&gt;index_details</title>
<path fill="none" stroke="darkgray" stroke-width="1.5" d="M178.28,-101.65C178.92,-92.09 179.74,-79.83 180.52,-68.1"/>
<polygon fill="darkgray" stroke="darkgray" stroke-width="1.5" points="183.99,-68.69 181.16,-58.48 177,-68.23 183.99,-68.69"/>
</g>
<!-- tuple_details -->
<g id="node17" class="node">
<title>tuple_details</title>
<polygon fill="lightyellow" stroke="black" points="680.75,-56 569.5,-56 569.5,0 686.75,0 686.75,-50 680.75,-56"/>
<polyline fill="none" stroke="black" points="680.75,-56 680.75,-50"/>
<polyline fill="none" stroke="black" points="686.75,-50 680.75,-50"/>
<text xml:space="preserve" text-anchor="middle" x="628.12" y="-42.5" font-family="Arial" font-size="10.00">• Parentheses: (1, 2, 3)</text>
<text xml:space="preserve" text-anchor="middle" x="628.12" y="-30.5" font-family="Arial" font-size="10.00">• Without: 1, 2, 3</text>
<text xml:space="preserve" text-anchor="middle" x="628.12" y="-18.5" font-family="Arial" font-size="10.00">• Single item: (1,)</text>
<text xml:space="preserve" text-anchor="middle" x="628.12" y="-6.5" font-family="Arial" font-size="10.00">• tuple() function</text>
</g>
<!-- tuple_create&#45;&gt;tuple_details -->
<g id="edge16" class="edge">
<title>tuple_create&#45;&gt;tuple_details</title>
<path fill="none" stroke="darkgray" stroke-width="1.5" d="M644.27,-101.65C642.15,-92.09 639.42,-79.83 636.81,-68.1"/>
<polygon fill="darkgray" stroke="darkgray" stroke-width="1.5" points="640.25,-67.44 634.67,-58.43 633.42,-68.95 640.25,-67.44"/>
</g>
<!-- tuple_when -->
<g id="node18" class="node">
<title>tuple_when</title>
<polygon fill="lightyellow" stroke="black" points="819.25,-56 705,-56 705,0 825.25,0 825.25,-50 819.25,-56"/>
<polyline fill="none" stroke="black" points="819.25,-56 819.25,-50"/>
<polyline fill="none" stroke="black" points="825.25,-50 819.25,-50"/>
<text xml:space="preserve" text-anchor="middle" x="765.12" y="-42.5" font-family="Arial" font-size="10.00">• Fixed data</text>
<text xml:space="preserve" text-anchor="middle" x="765.12" y="-30.5" font-family="Arial" font-size="10.00">• Dictionary keys</text>
<text xml:space="preserve" text-anchor="middle" x="765.12" y="-18.5" font-family="Arial" font-size="10.00">• Return multiple values</text>
<text xml:space="preserve" text-anchor="middle" x="765.12" y="-6.5" font-family="Arial" font-size="10.00">• Performance</text>
</g>
<!-- tuple_use&#45;&gt;tuple_when -->
<g id="edge17" class="edge">
<title>tuple_use&#45;&gt;tuple_when</title>
<path fill="none" stroke="darkgray" stroke-width="1.5" d="M748.98,-101.65C751.1,-92.09 753.83,-79.83 756.44,-68.1"/>
<polygon fill="darkgray" stroke="darkgray" stroke-width="1.5" points="759.83,-68.95 758.58,-58.43 753,-67.44 759.83,-68.95"/>
</g>
</g>
</svg>
