<?xml version="1.0" encoding="UTF-8" standalone="no"?>
<!DOCTYPE svg PUBLIC "-//W3C//DTD SVG 1.1//EN"
 "http://www.w3.org/Graphics/SVG/1.1/DTD/svg11.dtd">
<!-- Generated by graphviz version 13.1.0 (20250701.0955)
 -->
<!-- Title: Module5_MindMap Pages: 1 -->
<svg width="1128pt" height="319pt"
 viewBox="0.00 0.00 1128.00 319.00" xmlns="http://www.w3.org/2000/svg" xmlns:xlink="http://www.w3.org/1999/xlink">
<g id="graph0" class="graph" transform="scale(1 1) rotate(0) translate(4 315.25)">
<title>Module5_MindMap</title>
<polygon fill="white" stroke="none" points="-4,4 -4,-315.25 1123.5,-315.25 1123.5,4 -4,4"/>
<!-- central -->
<g id="node1" class="node">
<title>central</title>
<path fill="darkblue" stroke="black" stroke-width="2" d="M700.75,-311.25C700.75,-311.25 625.5,-311.25 625.5,-311.25 619.5,-311.25 613.5,-305.25 613.5,-299.25 613.5,-299.25 613.5,-268 613.5,-268 613.5,-262 619.5,-256 625.5,-256 625.5,-256 700.75,-256 700.75,-256 706.75,-256 712.75,-262 712.75,-268 712.75,-268 712.75,-299.25 712.75,-299.25 712.75,-305.25 706.75,-311.25 700.75,-311.25"/>
<text xml:space="preserve" text-anchor="middle" x="663.12" y="-293.95" font-family="Arial" font-size="14.00" fill="white">Module 5:</text>
<text xml:space="preserve" text-anchor="middle" x="663.12" y="-278.2" font-family="Arial" font-size="14.00" fill="white">Dictionaries &amp;</text>
<text xml:space="preserve" text-anchor="middle" x="663.12" y="-262.45" font-family="Arial" font-size="14.00" fill="white">Aggregation</text>
</g>
<!-- dict_basics -->
<g id="node2" class="node">
<title>dict_basics</title>
<path fill="lightblue" stroke="black" d="M172.25,-220C172.25,-220 136,-220 136,-220 130,-220 124,-214 124,-208 124,-208 124,-196 124,-196 124,-190 130,-184 136,-184 136,-184 172.25,-184 172.25,-184 178.25,-184 184.25,-190 184.25,-196 184.25,-196 184.25,-208 184.25,-208 184.25,-214 178.25,-220 172.25,-220"/>
<text xml:space="preserve" text-anchor="middle" x="154.12" y="-204.5" font-family="Arial" font-size="10.00">Dictionary</text>
<text xml:space="preserve" text-anchor="middle" x="154.12" y="-192.5" font-family="Arial" font-size="10.00">Basics</text>
</g>
<!-- central&#45;&gt;dict_basics -->
<g id="edge1" class="edge">
<title>central&#45;&gt;dict_basics</title>
<path fill="none" stroke="darkgray" stroke-width="1.5" d="M612.93,-274.77C512.82,-259.11 289.95,-224.25 196.57,-209.64"/>
<polygon fill="darkgray" stroke="darkgray" stroke-width="1.5" points="197.21,-206.2 186.79,-208.11 196.12,-213.11 197.21,-206.2"/>
</g>
<!-- dict_ops -->
<g id="node3" class="node">
<title>dict_ops</title>
<path fill="lightblue" stroke="black" d="M475.75,-220C475.75,-220 436.5,-220 436.5,-220 430.5,-220 424.5,-214 424.5,-208 424.5,-208 424.5,-196 424.5,-196 424.5,-190 430.5,-184 436.5,-184 436.5,-184 475.75,-184 475.75,-184 481.75,-184 487.75,-190 487.75,-196 487.75,-196 487.75,-208 487.75,-208 487.75,-214 481.75,-220 475.75,-220"/>
<text xml:space="preserve" text-anchor="middle" x="456.12" y="-204.5" font-family="Arial" font-size="10.00">Dictionary</text>
<text xml:space="preserve" text-anchor="middle" x="456.12" y="-192.5" font-family="Arial" font-size="10.00">Operations</text>
</g>
<!-- central&#45;&gt;dict_ops -->
<g id="edge2" class="edge">
<title>central&#45;&gt;dict_ops</title>
<path fill="none" stroke="darkgray" stroke-width="1.5" d="M612.75,-263.25C577.96,-249.87 532.18,-232.26 499.11,-219.53"/>
<polygon fill="darkgray" stroke="darkgray" stroke-width="1.5" points="500.69,-216.39 490.1,-216.07 498.17,-222.92 500.69,-216.39"/>
</g>
<!-- dict_views -->
<g id="node4" class="node">
<title>dict_views</title>
<path fill="lightblue" stroke="black" d="M681.25,-220C681.25,-220 645,-220 645,-220 639,-220 633,-214 633,-208 633,-208 633,-196 633,-196 633,-190 639,-184 645,-184 645,-184 681.25,-184 681.25,-184 687.25,-184 693.25,-190 693.25,-196 693.25,-196 693.25,-208 693.25,-208 693.25,-214 687.25,-220 681.25,-220"/>
<text xml:space="preserve" text-anchor="middle" x="663.12" y="-204.5" font-family="Arial" font-size="10.00">Dictionary</text>
<text xml:space="preserve" text-anchor="middle" x="663.12" y="-192.5" font-family="Arial" font-size="10.00">Views</text>
</g>
<!-- central&#45;&gt;dict_views -->
<g id="edge3" class="edge">
<title>central&#45;&gt;dict_views</title>
<path fill="none" stroke="darkgray" stroke-width="1.5" d="M663.12,-255.22C663.12,-247.93 663.12,-240.03 663.12,-232.63"/>
<polygon fill="darkgray" stroke="darkgray" stroke-width="1.5" points="666.63,-232.74 663.13,-222.74 659.63,-232.74 666.63,-232.74"/>
</g>
<!-- aggregation -->
<g id="node5" class="node">
<title>aggregation</title>
<path fill="lightblue" stroke="black" d="M858,-220C858,-220 814.25,-220 814.25,-220 808.25,-220 802.25,-214 802.25,-208 802.25,-208 802.25,-196 802.25,-196 802.25,-190 808.25,-184 814.25,-184 814.25,-184 858,-184 858,-184 864,-184 870,-190 870,-196 870,-196 870,-208 870,-208 870,-214 864,-220 858,-220"/>
<text xml:space="preserve" text-anchor="middle" x="836.12" y="-204.5" font-family="Arial" font-size="10.00">Aggregation</text>
<text xml:space="preserve" text-anchor="middle" x="836.12" y="-192.5" font-family="Arial" font-size="10.00">Functions</text>
</g>
<!-- central&#45;&gt;aggregation -->
<g id="edge4" class="edge">
<title>central&#45;&gt;aggregation</title>
<path fill="none" stroke="darkgray" stroke-width="1.5" d="M713.63,-259.38C738.17,-248.09 767.41,-234.63 791.17,-223.69"/>
<polygon fill="darkgray" stroke="darkgray" stroke-width="1.5" points="792.32,-227.02 799.94,-219.65 789.39,-220.66 792.32,-227.02"/>
</g>
<!-- applications -->
<g id="node6" class="node">
<title>applications</title>
<path fill="lightblue" stroke="black" d="M1018.75,-220C1018.75,-220 973.5,-220 973.5,-220 967.5,-220 961.5,-214 961.5,-208 961.5,-208 961.5,-196 961.5,-196 961.5,-190 967.5,-184 973.5,-184 973.5,-184 1018.75,-184 1018.75,-184 1024.75,-184 1030.75,-190 1030.75,-196 1030.75,-196 1030.75,-208 1030.75,-208 1030.75,-214 1024.75,-220 1018.75,-220"/>
<text xml:space="preserve" text-anchor="middle" x="996.12" y="-204.5" font-family="Arial" font-size="10.00">Business</text>
<text xml:space="preserve" text-anchor="middle" x="996.12" y="-192.5" font-family="Arial" font-size="10.00">Applications</text>
</g>
<!-- central&#45;&gt;applications -->
<g id="edge5" class="edge">
<title>central&#45;&gt;applications</title>
<path fill="none" stroke="darkgray" stroke-width="1.5" d="M713.7,-270.53C777.84,-255.2 887.53,-228.97 949.65,-214.11"/>
<polygon fill="darkgray" stroke="darkgray" stroke-width="1.5" points="950.29,-217.56 959.2,-211.83 948.66,-210.75 950.29,-217.56"/>
</g>
<!-- key_value -->
<g id="node7" class="node">
<title>key_value</title>
<path fill="lightcoral" stroke="black" d="M48.25,-138C48.25,-138 12,-138 12,-138 6,-138 0,-132 0,-126 0,-126 0,-114 0,-114 0,-108 6,-102 12,-102 12,-102 48.25,-102 48.25,-102 54.25,-102 60.25,-108 60.25,-114 60.25,-114 60.25,-126 60.25,-126 60.25,-132 54.25,-138 48.25,-138"/>
<text xml:space="preserve" text-anchor="middle" x="30.12" y="-122.5" font-family="Arial" font-size="10.00">Key&#45;Value</text>
<text xml:space="preserve" text-anchor="middle" x="30.12" y="-110.5" font-family="Arial" font-size="10.00">Pairs</text>
</g>
<!-- dict_basics&#45;&gt;key_value -->
<g id="edge6" class="edge">
<title>dict_basics&#45;&gt;key_value</title>
<path fill="none" stroke="darkgray" stroke-width="1.5" d="M125.58,-183.67C108.98,-173.48 87.73,-160.23 69.12,-148 67.66,-147.04 66.17,-146.05 64.67,-145.05"/>
<polygon fill="darkgray" stroke="darkgray" stroke-width="1.5" points="66.88,-142.31 56.64,-139.59 62.95,-148.11 66.88,-142.31"/>
</g>
<!-- creating -->
<g id="node8" class="node">
<title>creating</title>
<path fill="lightcoral" stroke="black" d="M134,-138C134,-138 90.25,-138 90.25,-138 84.25,-138 78.25,-132 78.25,-126 78.25,-126 78.25,-114 78.25,-114 78.25,-108 84.25,-102 90.25,-102 90.25,-102 134,-102 134,-102 140,-102 146,-108 146,-114 146,-114 146,-126 146,-126 146,-132 140,-138 134,-138"/>
<text xml:space="preserve" text-anchor="middle" x="112.12" y="-122.5" font-family="Arial" font-size="10.00">Creating</text>
<text xml:space="preserve" text-anchor="middle" x="112.12" y="-110.5" font-family="Arial" font-size="10.00">Dictionaries</text>
</g>
<!-- dict_basics&#45;&gt;creating -->
<g id="edge7" class="edge">
<title>dict_basics&#45;&gt;creating</title>
<path fill="none" stroke="darkgray" stroke-width="1.5" d="M145.01,-183.64C139.73,-173.58 132.95,-160.66 126.92,-149.18"/>
<polygon fill="darkgray" stroke="darkgray" stroke-width="1.5" points="130.02,-147.56 122.28,-140.34 123.83,-150.82 130.02,-147.56"/>
</g>
<!-- accessing -->
<g id="node9" class="node">
<title>accessing</title>
<path fill="lightcoral" stroke="black" d="M214,-138C214,-138 176.25,-138 176.25,-138 170.25,-138 164.25,-132 164.25,-126 164.25,-126 164.25,-114 164.25,-114 164.25,-108 170.25,-102 176.25,-102 176.25,-102 214,-102 214,-102 220,-102 226,-108 226,-114 226,-114 226,-126 226,-126 226,-132 220,-138 214,-138"/>
<text xml:space="preserve" text-anchor="middle" x="195.12" y="-122.5" font-family="Arial" font-size="10.00">Accessing</text>
<text xml:space="preserve" text-anchor="middle" x="195.12" y="-110.5" font-family="Arial" font-size="10.00">Values</text>
</g>
<!-- dict_basics&#45;&gt;accessing -->
<g id="edge8" class="edge">
<title>dict_basics&#45;&gt;accessing</title>
<path fill="none" stroke="darkgray" stroke-width="1.5" d="M163.02,-183.64C168.18,-173.58 174.8,-160.66 180.68,-149.18"/>
<polygon fill="darkgray" stroke="darkgray" stroke-width="1.5" points="183.76,-150.84 185.21,-140.35 177.53,-147.65 183.76,-150.84"/>
</g>
<!-- add_update -->
<g id="node11" class="node">
<title>add_update</title>
<polygon fill="lightyellow" stroke="black" points="334.62,-142 243.62,-142 243.62,-98 340.62,-98 340.62,-136 334.62,-142"/>
<polyline fill="none" stroke="black" points="334.62,-142 334.62,-136"/>
<polyline fill="none" stroke="black" points="340.62,-136 334.62,-136"/>
<text xml:space="preserve" text-anchor="middle" x="292.12" y="-128.5" font-family="Arial" font-size="10.00">• dict[key] = value</text>
<text xml:space="preserve" text-anchor="middle" x="292.12" y="-116.5" font-family="Arial" font-size="10.00">• Updates if exists</text>
<text xml:space="preserve" text-anchor="middle" x="292.12" y="-104.5" font-family="Arial" font-size="10.00">• Adds if new</text>
</g>
<!-- dict_ops&#45;&gt;add_update -->
<g id="edge10" class="edge">
<title>dict_ops&#45;&gt;add_update</title>
<path fill="none" stroke="darkgray" stroke-width="1.5" d="M424.11,-185.39C402.17,-174.68 372.51,-160.21 346.86,-147.7"/>
<polygon fill="darkgray" stroke="darkgray" stroke-width="1.5" points="348.72,-144.71 338.19,-143.47 345.65,-151 348.72,-144.71"/>
</g>
<!-- remove -->
<g id="node12" class="node">
<title>remove</title>
<polygon fill="lightyellow" stroke="black" points="435.88,-142 358.38,-142 358.38,-98 441.88,-98 441.88,-136 435.88,-142"/>
<polyline fill="none" stroke="black" points="435.88,-142 435.88,-136"/>
<polyline fill="none" stroke="black" points="441.88,-136 435.88,-136"/>
<text xml:space="preserve" text-anchor="middle" x="400.12" y="-128.5" font-family="Arial" font-size="10.00">• .pop(key)</text>
<text xml:space="preserve" text-anchor="middle" x="400.12" y="-116.5" font-family="Arial" font-size="10.00">• del dict[key]</text>
<text xml:space="preserve" text-anchor="middle" x="400.12" y="-104.5" font-family="Arial" font-size="10.00">• Returns value</text>
</g>
<!-- dict_ops&#45;&gt;remove -->
<g id="edge11" class="edge">
<title>dict_ops&#45;&gt;remove</title>
<path fill="none" stroke="darkgray" stroke-width="1.5" d="M443.97,-183.64C437.54,-174.45 429.44,-162.87 421.95,-152.18"/>
<polygon fill="darkgray" stroke="darkgray" stroke-width="1.5" points="424.95,-150.36 416.35,-144.17 419.21,-154.37 424.95,-150.36"/>
</g>
<!-- check -->
<g id="node13" class="node">
<title>check</title>
<polygon fill="lightyellow" stroke="black" points="556.62,-142 459.62,-142 459.62,-98 562.62,-98 562.62,-136 556.62,-142"/>
<polyline fill="none" stroke="black" points="556.62,-142 556.62,-136"/>
<polyline fill="none" stroke="black" points="562.62,-136 556.62,-136"/>
<text xml:space="preserve" text-anchor="middle" x="511.12" y="-128.5" font-family="Arial" font-size="10.00">• key in dict</text>
<text xml:space="preserve" text-anchor="middle" x="511.12" y="-116.5" font-family="Arial" font-size="10.00">• key not in dict</text>
<text xml:space="preserve" text-anchor="middle" x="511.12" y="-104.5" font-family="Arial" font-size="10.00">• Prevents KeyError</text>
</g>
<!-- dict_ops&#45;&gt;check -->
<g id="edge12" class="edge">
<title>dict_ops&#45;&gt;check</title>
<path fill="none" stroke="darkgray" stroke-width="1.5" d="M468.06,-183.64C474.38,-174.45 482.34,-162.87 489.69,-152.18"/>
<polygon fill="darkgray" stroke="darkgray" stroke-width="1.5" points="492.4,-154.41 495.19,-144.18 486.64,-150.44 492.4,-154.41"/>
</g>
<!-- views -->
<g id="node14" class="node">
<title>views</title>
<polygon fill="lightyellow" stroke="black" points="635.25,-142 581,-142 581,-98 641.25,-98 641.25,-136 635.25,-142"/>
<polyline fill="none" stroke="black" points="635.25,-142 635.25,-136"/>
<polyline fill="none" stroke="black" points="641.25,-136 635.25,-136"/>
<text xml:space="preserve" text-anchor="middle" x="611.12" y="-128.5" font-family="Arial" font-size="10.00">• .keys()</text>
<text xml:space="preserve" text-anchor="middle" x="611.12" y="-116.5" font-family="Arial" font-size="10.00">• .values()</text>
<text xml:space="preserve" text-anchor="middle" x="611.12" y="-104.5" font-family="Arial" font-size="10.00">• .items()</text>
</g>
<!-- dict_views&#45;&gt;views -->
<g id="edge13" class="edge">
<title>dict_views&#45;&gt;views</title>
<path fill="none" stroke="darkgray" stroke-width="1.5" d="M651.84,-183.64C645.93,-174.54 638.5,-163.11 631.61,-152.52"/>
<polygon fill="darkgray" stroke="darkgray" stroke-width="1.5" points="634.6,-150.69 626.22,-144.22 628.73,-154.51 634.6,-150.69"/>
</g>
<!-- view_usage -->
<g id="node15" class="node">
<title>view_usage</title>
<polygon fill="lightyellow" stroke="black" points="766.5,-142 659.75,-142 659.75,-98 772.5,-98 772.5,-136 766.5,-142"/>
<polyline fill="none" stroke="black" points="766.5,-142 766.5,-136"/>
<polyline fill="none" stroke="black" points="772.5,-136 766.5,-136"/>
<text xml:space="preserve" text-anchor="middle" x="716.12" y="-128.5" font-family="Arial" font-size="10.00">• list(dict.keys())</text>
<text xml:space="preserve" text-anchor="middle" x="716.12" y="-116.5" font-family="Arial" font-size="10.00">• for k,v in dict.items()</text>
<text xml:space="preserve" text-anchor="middle" x="716.12" y="-104.5" font-family="Arial" font-size="10.00">• Dynamic views</text>
</g>
<!-- dict_views&#45;&gt;view_usage -->
<g id="edge14" class="edge">
<title>dict_views&#45;&gt;view_usage</title>
<path fill="none" stroke="darkgray" stroke-width="1.5" d="M674.63,-183.64C680.65,-174.54 688.23,-163.11 695.25,-152.52"/>
<polygon fill="darkgray" stroke="darkgray" stroke-width="1.5" points="698.15,-154.48 700.75,-144.21 692.31,-150.61 698.15,-154.48"/>
</g>
<!-- agg_funcs -->
<g id="node16" class="node">
<title>agg_funcs</title>
<path fill="lightgreen" stroke="black" d="M870,-138C870,-138 802.25,-138 802.25,-138 796.25,-138 790.25,-132 790.25,-126 790.25,-126 790.25,-114 790.25,-114 790.25,-108 796.25,-102 802.25,-102 802.25,-102 870,-102 870,-102 876,-102 882,-108 882,-114 882,-114 882,-126 882,-126 882,-132 876,-138 870,-138"/>
<text xml:space="preserve" text-anchor="middle" x="836.12" y="-116.5" font-family="Arial" font-size="10.00">Built&#45;in Functions</text>
</g>
<!-- aggregation&#45;&gt;agg_funcs -->
<g id="edge15" class="edge">
<title>aggregation&#45;&gt;agg_funcs</title>
<path fill="none" stroke="darkgray" stroke-width="1.5" d="M836.12,-183.64C836.12,-173.89 836.12,-161.47 836.12,-150.26"/>
<polygon fill="darkgray" stroke="darkgray" stroke-width="1.5" points="839.63,-150.6 836.13,-140.6 832.63,-150.6 839.63,-150.6"/>
</g>
<!-- agg_dict -->
<g id="node18" class="node">
<title>agg_dict</title>
<polygon fill="lightyellow" stroke="black" points="994.5,-142 899.75,-142 899.75,-98 1000.5,-98 1000.5,-136 994.5,-142"/>
<polyline fill="none" stroke="black" points="994.5,-142 994.5,-136"/>
<polyline fill="none" stroke="black" points="1000.5,-136 994.5,-136"/>
<text xml:space="preserve" text-anchor="middle" x="950.12" y="-128.5" font-family="Arial" font-size="10.00">• sum(dict.values())</text>
<text xml:space="preserve" text-anchor="middle" x="950.12" y="-116.5" font-family="Arial" font-size="10.00">• max(dict.keys())</text>
<text xml:space="preserve" text-anchor="middle" x="950.12" y="-104.5" font-family="Arial" font-size="10.00">• len(dict)</text>
</g>
<!-- aggregation&#45;&gt;agg_dict -->
<g id="edge16" class="edge">
<title>aggregation&#45;&gt;agg_dict</title>
<path fill="none" stroke="darkgray" stroke-width="1.5" d="M860.86,-183.64C875.18,-173.59 893.54,-160.71 909.89,-149.24"/>
<polygon fill="darkgray" stroke="darkgray" stroke-width="1.5" points="911.72,-152.23 917.89,-143.62 907.7,-146.5 911.72,-152.23"/>
</g>
<!-- use_cases -->
<g id="node19" class="node">
<title>use_cases</title>
<polygon fill="lightyellow" stroke="black" points="1113.5,-148 1018.75,-148 1018.75,-92 1119.5,-92 1119.5,-142 1113.5,-148"/>
<polyline fill="none" stroke="black" points="1113.5,-148 1113.5,-142"/>
<polyline fill="none" stroke="black" points="1119.5,-142 1113.5,-142"/>
<text xml:space="preserve" text-anchor="middle" x="1069.12" y="-134.5" font-family="Arial" font-size="10.00">• Product catalogs</text>
<text xml:space="preserve" text-anchor="middle" x="1069.12" y="-122.5" font-family="Arial" font-size="10.00">• Customer records</text>
<text xml:space="preserve" text-anchor="middle" x="1069.12" y="-110.5" font-family="Arial" font-size="10.00">• Settings config</text>
<text xml:space="preserve" text-anchor="middle" x="1069.12" y="-98.5" font-family="Arial" font-size="10.00">• Sales analytics</text>
</g>
<!-- applications&#45;&gt;use_cases -->
<g id="edge18" class="edge">
<title>applications&#45;&gt;use_cases</title>
<path fill="none" stroke="darkgray" stroke-width="1.5" d="M1011.96,-183.64C1019.01,-175.92 1027.59,-166.52 1035.93,-157.38"/>
<polygon fill="darkgray" stroke="darkgray" stroke-width="1.5" points="1038.44,-159.81 1042.6,-150.07 1033.27,-155.1 1038.44,-159.81"/>
</g>
<!-- create_details -->
<g id="node10" class="node">
<title>create_details</title>
<polygon fill="lightyellow" stroke="black" points="171.88,-56 46.38,-56 46.38,0 177.88,0 177.88,-50 171.88,-56"/>
<polyline fill="none" stroke="black" points="171.88,-56 171.88,-50"/>
<polyline fill="none" stroke="black" points="177.88,-50 171.88,-50"/>
<text xml:space="preserve" text-anchor="middle" x="112.12" y="-42.5" font-family="Arial" font-size="10.00">• Empty: {}</text>
<text xml:space="preserve" text-anchor="middle" x="112.12" y="-30.5" font-family="Arial" font-size="10.00">• With data: {&#39;a&#39;: 1}</text>
<text xml:space="preserve" text-anchor="middle" x="112.12" y="-18.5" font-family="Arial" font-size="10.00">• dict() function</text>
<text xml:space="preserve" text-anchor="middle" x="112.12" y="-6.5" font-family="Arial" font-size="10.00">• Keys must be immutable</text>
</g>
<!-- creating&#45;&gt;create_details -->
<g id="edge9" class="edge">
<title>creating&#45;&gt;create_details</title>
<path fill="none" stroke="darkgray" stroke-width="1.5" d="M112.12,-101.65C112.12,-92.19 112.12,-80.08 112.12,-68.47"/>
<polygon fill="darkgray" stroke="darkgray" stroke-width="1.5" points="115.63,-68.49 112.13,-58.49 108.63,-68.49 115.63,-68.49"/>
</g>
<!-- agg_details -->
<g id="node17" class="node">
<title>agg_details</title>
<polygon fill="lightyellow" stroke="black" points="886.5,-56 779.75,-56 779.75,0 892.5,0 892.5,-50 886.5,-56"/>
<polyline fill="none" stroke="black" points="886.5,-56 886.5,-50"/>
<polyline fill="none" stroke="black" points="892.5,-50 886.5,-50"/>
<text xml:space="preserve" text-anchor="middle" x="836.12" y="-42.5" font-family="Arial" font-size="10.00">• len() &#45; count items</text>
<text xml:space="preserve" text-anchor="middle" x="836.12" y="-30.5" font-family="Arial" font-size="10.00">• sum() &#45; add numbers</text>
<text xml:space="preserve" text-anchor="middle" x="836.12" y="-18.5" font-family="Arial" font-size="10.00">• min() &#45; smallest</text>
<text xml:space="preserve" text-anchor="middle" x="836.12" y="-6.5" font-family="Arial" font-size="10.00">• max() &#45; largest</text>
</g>
<!-- agg_funcs&#45;&gt;agg_details -->
<g id="edge17" class="edge">
<title>agg_funcs&#45;&gt;agg_details</title>
<path fill="none" stroke="darkgray" stroke-width="1.5" d="M836.12,-101.65C836.12,-92.19 836.12,-80.08 836.12,-68.47"/>
<polygon fill="darkgray" stroke="darkgray" stroke-width="1.5" points="839.63,-68.49 836.13,-58.49 832.63,-68.49 839.63,-68.49"/>
</g>
</g>
</svg>
