<?xml version="1.0" encoding="UTF-8" standalone="no"?>
<!DOCTYPE svg PUBLIC "-//W3C//DTD SVG 1.1//EN"
 "http://www.w3.org/Graphics/SVG/1.1/DTD/svg11.dtd">
<!-- Generated by graphviz version 13.1.0 (20250701.0955)
 -->
<!-- Title: Module1_MindMap Pages: 1 -->
<svg width="920pt" height="227pt"
 viewBox="0.00 0.00 920.00 227.00" xmlns="http://www.w3.org/2000/svg" xmlns:xlink="http://www.w3.org/1999/xlink">
<g id="graph0" class="graph" transform="scale(1 1) rotate(0) translate(4 223.25)">
<title>Module1_MindMap</title>
<polygon fill="white" stroke="none" points="-4,4 -4,-223.25 916.25,-223.25 916.25,4 -4,4"/>
<!-- intro -->
<g id="node1" class="node">
<title>intro</title>
<path fill="darkblue" stroke="black" stroke-width="2" d="M545.38,-219.25C545.38,-219.25 410.12,-219.25 410.12,-219.25 404.12,-219.25 398.12,-213.25 398.12,-207.25 398.12,-207.25 398.12,-176 398.12,-176 398.12,-170 404.12,-164 410.12,-164 410.12,-164 545.38,-164 545.38,-164 551.38,-164 557.38,-170 557.38,-176 557.38,-176 557.38,-207.25 557.38,-207.25 557.38,-213.25 551.38,-219.25 545.38,-219.25"/>
<text xml:space="preserve" text-anchor="middle" x="477.75" y="-201.95" font-family="Arial" font-size="14.00" fill="white">Module 1:</text>
<text xml:space="preserve" text-anchor="middle" x="477.75" y="-186.2" font-family="Arial" font-size="14.00" fill="white">Python Introduction</text>
<text xml:space="preserve" text-anchor="middle" x="477.75" y="-170.45" font-family="Arial" font-size="14.00" fill="white">&amp; Business Applications</text>
</g>
<!-- why -->
<g id="node2" class="node">
<title>why</title>
<path fill="lightblue" stroke="black" d="M161.75,-128C161.75,-128 109.75,-128 109.75,-128 103.75,-128 97.75,-122 97.75,-116 97.75,-116 97.75,-104 97.75,-104 97.75,-98 103.75,-92 109.75,-92 109.75,-92 161.75,-92 161.75,-92 167.75,-92 173.75,-98 173.75,-104 173.75,-104 173.75,-116 173.75,-116 173.75,-122 167.75,-128 161.75,-128"/>
<text xml:space="preserve" text-anchor="middle" x="135.75" y="-112.5" font-family="Arial" font-size="10.00">Why Python</text>
<text xml:space="preserve" text-anchor="middle" x="135.75" y="-100.5" font-family="Arial" font-size="10.00">for Business?</text>
</g>
<!-- intro&#45;&gt;why -->
<g id="edge1" class="edge">
<title>intro&#45;&gt;why</title>
<path fill="none" stroke="darkgray" stroke-width="1.5" d="M397.13,-171.86C331.64,-156.61 241.31,-135.58 185.81,-122.66"/>
<polygon fill="darkgray" stroke="darkgray" stroke-width="1.5" points="186.92,-119.32 176.39,-120.46 185.34,-126.14 186.92,-119.32"/>
</g>
<!-- setup -->
<g id="node3" class="node">
<title>setup</title>
<path fill="lightblue" stroke="black" d="M348.12,-128C348.12,-128 301.38,-128 301.38,-128 295.38,-128 289.38,-122 289.38,-116 289.38,-116 289.38,-104 289.38,-104 289.38,-98 295.38,-92 301.38,-92 301.38,-92 348.12,-92 348.12,-92 354.12,-92 360.12,-98 360.12,-104 360.12,-104 360.12,-116 360.12,-116 360.12,-122 354.12,-128 348.12,-128"/>
<text xml:space="preserve" text-anchor="middle" x="324.75" y="-112.5" font-family="Arial" font-size="10.00">Environment</text>
<text xml:space="preserve" text-anchor="middle" x="324.75" y="-100.5" font-family="Arial" font-size="10.00">Setup</text>
</g>
<!-- intro&#45;&gt;setup -->
<g id="edge2" class="edge">
<title>intro&#45;&gt;setup</title>
<path fill="none" stroke="darkgray" stroke-width="1.5" d="M425.1,-163.22C406.77,-153.69 386.42,-143.09 368.86,-133.95"/>
<polygon fill="darkgray" stroke="darkgray" stroke-width="1.5" points="370.83,-131.03 360.34,-129.52 367.6,-137.24 370.83,-131.03"/>
</g>
<!-- basics -->
<g id="node4" class="node">
<title>basics</title>
<path fill="lightblue" stroke="black" d="M492.75,-128C492.75,-128 462.75,-128 462.75,-128 456.75,-128 450.75,-122 450.75,-116 450.75,-116 450.75,-104 450.75,-104 450.75,-98 456.75,-92 462.75,-92 462.75,-92 492.75,-92 492.75,-92 498.75,-92 504.75,-98 504.75,-104 504.75,-104 504.75,-116 504.75,-116 504.75,-122 498.75,-128 492.75,-128"/>
<text xml:space="preserve" text-anchor="middle" x="477.75" y="-112.5" font-family="Arial" font-size="10.00">Python</text>
<text xml:space="preserve" text-anchor="middle" x="477.75" y="-100.5" font-family="Arial" font-size="10.00">Basics</text>
</g>
<!-- intro&#45;&gt;basics -->
<g id="edge3" class="edge">
<title>intro&#45;&gt;basics</title>
<path fill="none" stroke="darkgray" stroke-width="1.5" d="M477.75,-163.22C477.75,-155.93 477.75,-148.03 477.75,-140.63"/>
<polygon fill="darkgray" stroke="darkgray" stroke-width="1.5" points="481.25,-140.74 477.75,-130.74 474.25,-140.74 481.25,-140.74"/>
</g>
<!-- first -->
<g id="node5" class="node">
<title>first</title>
<path fill="lightblue" stroke="black" d="M613.75,-128C613.75,-128 583.75,-128 583.75,-128 577.75,-128 571.75,-122 571.75,-116 571.75,-116 571.75,-104 571.75,-104 571.75,-98 577.75,-92 583.75,-92 583.75,-92 613.75,-92 613.75,-92 619.75,-92 625.75,-98 625.75,-104 625.75,-104 625.75,-116 625.75,-116 625.75,-122 619.75,-128 613.75,-128"/>
<text xml:space="preserve" text-anchor="middle" x="598.75" y="-112.5" font-family="Arial" font-size="10.00">First</text>
<text xml:space="preserve" text-anchor="middle" x="598.75" y="-100.5" font-family="Arial" font-size="10.00">Program</text>
</g>
<!-- intro&#45;&gt;first -->
<g id="edge4" class="edge">
<title>intro&#45;&gt;first</title>
<path fill="none" stroke="darkgray" stroke-width="1.5" d="M519.39,-163.22C533.34,-154.05 548.77,-143.89 562.29,-134.99"/>
<polygon fill="darkgray" stroke="darkgray" stroke-width="1.5" points="563.87,-138.14 570.3,-129.72 560.02,-132.3 563.87,-138.14"/>
</g>
<!-- debug -->
<g id="node6" class="node">
<title>debug</title>
<path fill="lightblue" stroke="black" d="M804.5,-128C804.5,-128 763,-128 763,-128 757,-128 751,-122 751,-116 751,-116 751,-104 751,-104 751,-98 757,-92 763,-92 763,-92 804.5,-92 804.5,-92 810.5,-92 816.5,-98 816.5,-104 816.5,-104 816.5,-116 816.5,-116 816.5,-122 810.5,-128 804.5,-128"/>
<text xml:space="preserve" text-anchor="middle" x="783.75" y="-112.5" font-family="Arial" font-size="10.00">Debugging</text>
<text xml:space="preserve" text-anchor="middle" x="783.75" y="-100.5" font-family="Arial" font-size="10.00">Techniques</text>
</g>
<!-- intro&#45;&gt;debug -->
<g id="edge5" class="edge">
<title>intro&#45;&gt;debug</title>
<path fill="none" stroke="darkgray" stroke-width="1.5" d="M558.15,-169.7C615.98,-154.66 691.82,-134.92 739.17,-122.6"/>
<polygon fill="darkgray" stroke="darkgray" stroke-width="1.5" points="739.86,-126.04 748.66,-120.13 738.1,-119.26 739.86,-126.04"/>
</g>
<!-- benefits -->
<g id="node7" class="node">
<title>benefits</title>
<polygon fill="lightyellow" stroke="black" points="77.5,-56 0,-56 0,0 83.5,0 83.5,-50 77.5,-56"/>
<polyline fill="none" stroke="black" points="77.5,-56 77.5,-50"/>
<polyline fill="none" stroke="black" points="83.5,-50 77.5,-50"/>
<text xml:space="preserve" text-anchor="middle" x="41.75" y="-42.5" font-family="Arial" font-size="10.00">• Automation</text>
<text xml:space="preserve" text-anchor="middle" x="41.75" y="-30.5" font-family="Arial" font-size="10.00">• Data Analysis</text>
<text xml:space="preserve" text-anchor="middle" x="41.75" y="-18.5" font-family="Arial" font-size="10.00">• Versatility</text>
<text xml:space="preserve" text-anchor="middle" x="41.75" y="-6.5" font-family="Arial" font-size="10.00">• Integration</text>
</g>
<!-- why&#45;&gt;benefits -->
<g id="edge6" class="edge">
<title>why&#45;&gt;benefits</title>
<path fill="none" stroke="darkgray" stroke-width="1.5" d="M115.35,-91.64C105.9,-83.6 94.32,-73.74 83.15,-64.24"/>
<polygon fill="darkgray" stroke="darkgray" stroke-width="1.5" points="85.55,-61.68 75.66,-57.86 81.01,-67.01 85.55,-61.68"/>
</g>
<!-- tools -->
<g id="node8" class="node">
<title>tools</title>
<polygon fill="lightyellow" stroke="black" points="163.62,-50 101.88,-50 101.88,-6 169.62,-6 169.62,-44 163.62,-50"/>
<polyline fill="none" stroke="black" points="163.62,-50 163.62,-44"/>
<polyline fill="none" stroke="black" points="169.62,-44 163.62,-44"/>
<text xml:space="preserve" text-anchor="middle" x="135.75" y="-36.5" font-family="Arial" font-size="10.00">vs. Excel</text>
<text xml:space="preserve" text-anchor="middle" x="135.75" y="-24.5" font-family="Arial" font-size="10.00">vs. SQL</text>
<text xml:space="preserve" text-anchor="middle" x="135.75" y="-12.5" font-family="Arial" font-size="10.00">vs. BI Tools</text>
</g>
<!-- why&#45;&gt;tools -->
<g id="edge7" class="edge">
<title>why&#45;&gt;tools</title>
<path fill="none" stroke="darkgray" stroke-width="1.5" d="M135.75,-91.64C135.75,-83.11 135.75,-72.53 135.75,-62.51"/>
<polygon fill="darkgray" stroke="darkgray" stroke-width="1.5" points="139.25,-62.58 135.75,-52.58 132.25,-62.58 139.25,-62.58"/>
</g>
<!-- thonny -->
<g id="node9" class="node">
<title>thonny</title>
<path fill="lightgreen" stroke="black" d="M244,-46C244,-46 199.5,-46 199.5,-46 193.5,-46 187.5,-40 187.5,-34 187.5,-34 187.5,-22 187.5,-22 187.5,-16 193.5,-10 199.5,-10 199.5,-10 244,-10 244,-10 250,-10 256,-16 256,-22 256,-22 256,-34 256,-34 256,-40 250,-46 244,-46"/>
<text xml:space="preserve" text-anchor="middle" x="221.75" y="-30.5" font-family="Arial" font-size="10.00">Thonny IDE</text>
<text xml:space="preserve" text-anchor="middle" x="221.75" y="-18.5" font-family="Arial" font-size="10.00">Installation</text>
</g>
<!-- setup&#45;&gt;thonny -->
<g id="edge8" class="edge">
<title>setup&#45;&gt;thonny</title>
<path fill="none" stroke="darkgray" stroke-width="1.5" d="M302.4,-91.64C288.09,-80.53 269.31,-65.94 253.47,-53.64"/>
<polygon fill="darkgray" stroke="darkgray" stroke-width="1.5" points="255.89,-51.09 245.85,-47.72 251.6,-56.62 255.89,-51.09"/>
</g>
<!-- interface -->
<g id="node10" class="node">
<title>interface</title>
<polygon fill="lightyellow" stroke="black" points="369.12,-50 274.38,-50 274.38,-6 375.12,-6 375.12,-44 369.12,-50"/>
<polyline fill="none" stroke="black" points="369.12,-50 369.12,-44"/>
<polyline fill="none" stroke="black" points="375.12,-44 369.12,-44"/>
<text xml:space="preserve" text-anchor="middle" x="324.75" y="-36.5" font-family="Arial" font-size="10.00">• Editor</text>
<text xml:space="preserve" text-anchor="middle" x="324.75" y="-24.5" font-family="Arial" font-size="10.00">• Shell</text>
<text xml:space="preserve" text-anchor="middle" x="324.75" y="-12.5" font-family="Arial" font-size="10.00">• Variable Inspector</text>
</g>
<!-- setup&#45;&gt;interface -->
<g id="edge9" class="edge">
<title>setup&#45;&gt;interface</title>
<path fill="none" stroke="darkgray" stroke-width="1.5" d="M324.75,-91.64C324.75,-83.11 324.75,-72.53 324.75,-62.51"/>
<polygon fill="darkgray" stroke="darkgray" stroke-width="1.5" points="328.25,-62.58 324.75,-52.58 321.25,-62.58 328.25,-62.58"/>
</g>
<!-- concepts -->
<g id="node11" class="node">
<title>concepts</title>
<polygon fill="lightyellow" stroke="black" points="470.5,-56 393,-56 393,0 476.5,0 476.5,-50 470.5,-56"/>
<polyline fill="none" stroke="black" points="470.5,-56 470.5,-50"/>
<polyline fill="none" stroke="black" points="476.5,-50 470.5,-50"/>
<text xml:space="preserve" text-anchor="middle" x="434.75" y="-42.5" font-family="Arial" font-size="10.00">• Variables</text>
<text xml:space="preserve" text-anchor="middle" x="434.75" y="-30.5" font-family="Arial" font-size="10.00">• Data Types</text>
<text xml:space="preserve" text-anchor="middle" x="434.75" y="-18.5" font-family="Arial" font-size="10.00">• Comments</text>
<text xml:space="preserve" text-anchor="middle" x="434.75" y="-6.5" font-family="Arial" font-size="10.00">• Print Function</text>
</g>
<!-- basics&#45;&gt;concepts -->
<g id="edge10" class="edge">
<title>basics&#45;&gt;concepts</title>
<path fill="none" stroke="darkgray" stroke-width="1.5" d="M468.42,-91.64C464.53,-84.4 459.85,-75.69 455.23,-67.1"/>
<polygon fill="darkgray" stroke="darkgray" stroke-width="1.5" points="458.37,-65.54 450.55,-58.39 452.2,-68.86 458.37,-65.54"/>
</g>
<!-- types -->
<g id="node12" class="node">
<title>types</title>
<polygon fill="lightyellow" stroke="black" points="542.75,-56 494.75,-56 494.75,0 548.75,0 548.75,-50 542.75,-56"/>
<polyline fill="none" stroke="black" points="542.75,-56 542.75,-50"/>
<polyline fill="none" stroke="black" points="548.75,-50 542.75,-50"/>
<text xml:space="preserve" text-anchor="middle" x="521.75" y="-42.5" font-family="Arial" font-size="10.00">• int</text>
<text xml:space="preserve" text-anchor="middle" x="521.75" y="-30.5" font-family="Arial" font-size="10.00">• float</text>
<text xml:space="preserve" text-anchor="middle" x="521.75" y="-18.5" font-family="Arial" font-size="10.00">• str</text>
<text xml:space="preserve" text-anchor="middle" x="521.75" y="-6.5" font-family="Arial" font-size="10.00">• bool</text>
</g>
<!-- basics&#45;&gt;types -->
<g id="edge11" class="edge">
<title>basics&#45;&gt;types</title>
<path fill="none" stroke="darkgray" stroke-width="1.5" d="M487.3,-91.64C491.28,-84.4 496.07,-75.69 500.8,-67.1"/>
<polygon fill="darkgray" stroke="darkgray" stroke-width="1.5" points="503.84,-68.83 505.59,-58.38 497.7,-65.46 503.84,-68.83"/>
</g>
<!-- revenue -->
<g id="node13" class="node">
<title>revenue</title>
<path fill="lightcoral" stroke="black" d="M619.12,-50C619.12,-50 578.38,-50 578.38,-50 572.38,-50 566.38,-44 566.38,-38 566.38,-38 566.38,-18 566.38,-18 566.38,-12 572.38,-6 578.38,-6 578.38,-6 619.12,-6 619.12,-6 625.12,-6 631.12,-12 631.12,-18 631.12,-18 631.12,-38 631.12,-38 631.12,-44 625.12,-50 619.12,-50"/>
<text xml:space="preserve" text-anchor="middle" x="598.75" y="-36.5" font-family="Arial" font-size="10.00">Revenue</text>
<text xml:space="preserve" text-anchor="middle" x="598.75" y="-24.5" font-family="Arial" font-size="10.00">Calculation</text>
<text xml:space="preserve" text-anchor="middle" x="598.75" y="-12.5" font-family="Arial" font-size="10.00">Example</text>
</g>
<!-- first&#45;&gt;revenue -->
<g id="edge12" class="edge">
<title>first&#45;&gt;revenue</title>
<path fill="none" stroke="darkgray" stroke-width="1.5" d="M598.75,-91.64C598.75,-83.11 598.75,-72.53 598.75,-62.51"/>
<polygon fill="darkgray" stroke="darkgray" stroke-width="1.5" points="602.25,-62.58 598.75,-52.58 595.25,-62.58 602.25,-62.58"/>
</g>
<!-- arithmetic -->
<g id="node14" class="node">
<title>arithmetic</title>
<polygon fill="lightyellow" stroke="black" points="722.62,-56 648.88,-56 648.88,0 728.62,0 728.62,-50 722.62,-56"/>
<polyline fill="none" stroke="black" points="722.62,-56 722.62,-50"/>
<polyline fill="none" stroke="black" points="728.62,-50 722.62,-50"/>
<text xml:space="preserve" text-anchor="middle" x="688.75" y="-42.5" font-family="Arial" font-size="10.00">• Addition</text>
<text xml:space="preserve" text-anchor="middle" x="688.75" y="-30.5" font-family="Arial" font-size="10.00">• Subtraction</text>
<text xml:space="preserve" text-anchor="middle" x="688.75" y="-18.5" font-family="Arial" font-size="10.00">• Multiplication</text>
<text xml:space="preserve" text-anchor="middle" x="688.75" y="-6.5" font-family="Arial" font-size="10.00">• Division</text>
</g>
<!-- first&#45;&gt;arithmetic -->
<g id="edge13" class="edge">
<title>first&#45;&gt;arithmetic</title>
<path fill="none" stroke="darkgray" stroke-width="1.5" d="M618.28,-91.64C627.24,-83.68 638.2,-73.93 648.79,-64.52"/>
<polygon fill="darkgray" stroke="darkgray" stroke-width="1.5" points="651.09,-67.16 656.24,-57.9 646.44,-61.93 651.09,-67.16"/>
</g>
<!-- errors -->
<g id="node15" class="node">
<title>errors</title>
<polygon fill="lightyellow" stroke="black" points="815,-50 746.5,-50 746.5,-6 821,-6 821,-44 815,-50"/>
<polyline fill="none" stroke="black" points="815,-50 815,-44"/>
<polyline fill="none" stroke="black" points="821,-44 815,-44"/>
<text xml:space="preserve" text-anchor="middle" x="783.75" y="-36.5" font-family="Arial" font-size="10.00">• SyntaxError</text>
<text xml:space="preserve" text-anchor="middle" x="783.75" y="-24.5" font-family="Arial" font-size="10.00">• NameError</text>
<text xml:space="preserve" text-anchor="middle" x="783.75" y="-12.5" font-family="Arial" font-size="10.00">• TypeError</text>
</g>
<!-- debug&#45;&gt;errors -->
<g id="edge14" class="edge">
<title>debug&#45;&gt;errors</title>
<path fill="none" stroke="darkgray" stroke-width="1.5" d="M783.75,-91.64C783.75,-83.11 783.75,-72.53 783.75,-62.51"/>
<polygon fill="darkgray" stroke="darkgray" stroke-width="1.5" points="787.25,-62.58 783.75,-52.58 780.25,-62.58 787.25,-62.58"/>
</g>
<!-- debugger -->
<g id="node16" class="node">
<title>debugger</title>
<path fill="lightgreen" stroke="black" d="M900.25,-46C900.25,-46 851.25,-46 851.25,-46 845.25,-46 839.25,-40 839.25,-34 839.25,-34 839.25,-22 839.25,-22 839.25,-16 845.25,-10 851.25,-10 851.25,-10 900.25,-10 900.25,-10 906.25,-10 912.25,-16 912.25,-22 912.25,-22 912.25,-34 912.25,-34 912.25,-40 906.25,-46 900.25,-46"/>
<text xml:space="preserve" text-anchor="middle" x="875.75" y="-30.5" font-family="Arial" font-size="10.00">Step&#45;by&#45;Step</text>
<text xml:space="preserve" text-anchor="middle" x="875.75" y="-18.5" font-family="Arial" font-size="10.00">Execution</text>
</g>
<!-- debug&#45;&gt;debugger -->
<g id="edge15" class="edge">
<title>debug&#45;&gt;debugger</title>
<path fill="none" stroke="darkgray" stroke-width="1.5" d="M803.71,-91.64C816.25,-80.74 832.64,-66.49 846.61,-54.34"/>
<polygon fill="darkgray" stroke="darkgray" stroke-width="1.5" points="848.86,-57.02 854.11,-47.81 844.27,-51.74 848.86,-57.02"/>
</g>
</g>
</svg>
