<?xml version="1.0" encoding="UTF-8" standalone="no"?>
<!DOCTYPE svg PUBLIC "-//W3C//DTD SVG 1.1//EN"
 "http://www.w3.org/Graphics/SVG/1.1/DTD/svg11.dtd">
<!-- Generated by graphviz version 13.1.0 (20250701.0955)
 -->
<!-- Title: Module9_MindMap Pages: 1 -->
<svg width="989pt" height="227pt"
 viewBox="0.00 0.00 989.00 227.00" xmlns="http://www.w3.org/2000/svg" xmlns:xlink="http://www.w3.org/1999/xlink">
<g id="graph0" class="graph" transform="scale(1 1) rotate(0) translate(4 223.25)">
<title>Module9_MindMap</title>
<polygon fill="white" stroke="none" points="-4,4 -4,-223.25 984.62,-223.25 984.62,4 -4,4"/>
<!-- central -->
<g id="node1" class="node">
<title>central</title>
<path fill="darkblue" stroke="black" stroke-width="2" d="M647,-219.25C647,-219.25 535,-219.25 535,-219.25 529,-219.25 523,-213.25 523,-207.25 523,-207.25 523,-176 523,-176 523,-170 529,-164 535,-164 535,-164 647,-164 647,-164 653,-164 659,-170 659,-176 659,-176 659,-207.25 659,-207.25 659,-213.25 653,-219.25 647,-219.25"/>
<text xml:space="preserve" text-anchor="middle" x="591" y="-201.95" font-family="Arial" font-size="14.00" fill="white">Module 9:</text>
<text xml:space="preserve" text-anchor="middle" x="591" y="-186.2" font-family="Arial" font-size="14.00" fill="white">Pandas Introduction</text>
<text xml:space="preserve" text-anchor="middle" x="591" y="-170.45" font-family="Arial" font-size="14.00" fill="white">&amp; DataFrames</text>
</g>
<!-- series -->
<g id="node2" class="node">
<title>series</title>
<path fill="lightblue" stroke="black" d="M195,-128C195,-128 165,-128 165,-128 159,-128 153,-122 153,-116 153,-116 153,-104 153,-104 153,-98 159,-92 165,-92 165,-92 195,-92 195,-92 201,-92 207,-98 207,-104 207,-104 207,-116 207,-116 207,-122 201,-128 195,-128"/>
<text xml:space="preserve" text-anchor="middle" x="180" y="-112.5" font-family="Arial" font-size="10.00">Pandas</text>
<text xml:space="preserve" text-anchor="middle" x="180" y="-100.5" font-family="Arial" font-size="10.00">Series</text>
</g>
<!-- central&#45;&gt;series -->
<g id="edge1" class="edge">
<title>central&#45;&gt;series</title>
<path fill="none" stroke="darkgray" stroke-width="1.5" d="M522.21,-177.3C435.33,-160.47 288.8,-132.08 219.1,-118.57"/>
<polygon fill="darkgray" stroke="darkgray" stroke-width="1.5" points="220.12,-115.21 209.63,-116.74 218.78,-122.08 220.12,-115.21"/>
</g>
<!-- dataframes -->
<g id="node3" class="node">
<title>dataframes</title>
<path fill="lightblue" stroke="black" d="M469,-128C469,-128 423,-128 423,-128 417,-128 411,-122 411,-116 411,-116 411,-104 411,-104 411,-98 417,-92 423,-92 423,-92 469,-92 469,-92 475,-92 481,-98 481,-104 481,-104 481,-116 481,-116 481,-122 475,-128 469,-128"/>
<text xml:space="preserve" text-anchor="middle" x="446" y="-106.5" font-family="Arial" font-size="10.00">DataFrames</text>
</g>
<!-- central&#45;&gt;dataframes -->
<g id="edge2" class="edge">
<title>central&#45;&gt;dataframes</title>
<path fill="none" stroke="darkgray" stroke-width="1.5" d="M541.1,-163.22C523.9,-153.78 504.81,-143.29 488.27,-134.21"/>
<polygon fill="darkgray" stroke="darkgray" stroke-width="1.5" points="490.26,-131.31 479.81,-129.57 486.89,-137.45 490.26,-131.31"/>
</g>
<!-- selection -->
<g id="node4" class="node">
<title>selection</title>
<path fill="lightblue" stroke="black" d="M607.25,-128C607.25,-128 574.75,-128 574.75,-128 568.75,-128 562.75,-122 562.75,-116 562.75,-116 562.75,-104 562.75,-104 562.75,-98 568.75,-92 574.75,-92 574.75,-92 607.25,-92 607.25,-92 613.25,-92 619.25,-98 619.25,-104 619.25,-104 619.25,-116 619.25,-116 619.25,-122 613.25,-128 607.25,-128"/>
<text xml:space="preserve" text-anchor="middle" x="591" y="-112.5" font-family="Arial" font-size="10.00">Data</text>
<text xml:space="preserve" text-anchor="middle" x="591" y="-100.5" font-family="Arial" font-size="10.00">Selection</text>
</g>
<!-- central&#45;&gt;selection -->
<g id="edge3" class="edge">
<title>central&#45;&gt;selection</title>
<path fill="none" stroke="darkgray" stroke-width="1.5" d="M591,-163.22C591,-155.93 591,-148.03 591,-140.63"/>
<polygon fill="darkgray" stroke="darkgray" stroke-width="1.5" points="594.5,-140.74 591,-130.74 587.5,-140.74 594.5,-140.74"/>
</g>
<!-- statistics -->
<g id="node5" class="node">
<title>statistics</title>
<path fill="lightblue" stroke="black" d="M713.75,-128C713.75,-128 672.25,-128 672.25,-128 666.25,-128 660.25,-122 660.25,-116 660.25,-116 660.25,-104 660.25,-104 660.25,-98 666.25,-92 672.25,-92 672.25,-92 713.75,-92 713.75,-92 719.75,-92 725.75,-98 725.75,-104 725.75,-104 725.75,-116 725.75,-116 725.75,-122 719.75,-128 713.75,-128"/>
<text xml:space="preserve" text-anchor="middle" x="693" y="-112.5" font-family="Arial" font-size="10.00">Descriptive</text>
<text xml:space="preserve" text-anchor="middle" x="693" y="-100.5" font-family="Arial" font-size="10.00">Statistics</text>
</g>
<!-- central&#45;&gt;statistics -->
<g id="edge4" class="edge">
<title>central&#45;&gt;statistics</title>
<path fill="none" stroke="darkgray" stroke-width="1.5" d="M626.1,-163.22C637.51,-154.32 650.1,-144.49 661.25,-135.78"/>
<polygon fill="darkgray" stroke="darkgray" stroke-width="1.5" points="663.1,-138.78 668.83,-129.87 658.79,-133.27 663.1,-138.78"/>
</g>
<!-- missing -->
<g id="node6" class="node">
<title>missing</title>
<path fill="lightblue" stroke="black" d="M855,-128C855,-128 825,-128 825,-128 819,-128 813,-122 813,-116 813,-116 813,-104 813,-104 813,-98 819,-92 825,-92 825,-92 855,-92 855,-92 861,-92 867,-98 867,-104 867,-104 867,-116 867,-116 867,-122 861,-128 855,-128"/>
<text xml:space="preserve" text-anchor="middle" x="840" y="-112.5" font-family="Arial" font-size="10.00">Missing</text>
<text xml:space="preserve" text-anchor="middle" x="840" y="-100.5" font-family="Arial" font-size="10.00">Data</text>
</g>
<!-- central&#45;&gt;missing -->
<g id="edge5" class="edge">
<title>central&#45;&gt;missing</title>
<path fill="none" stroke="darkgray" stroke-width="1.5" d="M659.7,-168.66C705.29,-154.08 763.47,-135.47 801.22,-123.4"/>
<polygon fill="darkgray" stroke="darkgray" stroke-width="1.5" points="802.09,-126.8 810.55,-120.42 799.96,-120.13 802.09,-126.8"/>
</g>
<!-- series_concepts -->
<g id="node7" class="node">
<title>series_concepts</title>
<polygon fill="lightyellow" stroke="black" points="106,-50 0,-50 0,-6 112,-6 112,-44 106,-50"/>
<polyline fill="none" stroke="black" points="106,-50 106,-44"/>
<polyline fill="none" stroke="black" points="112,-44 106,-44"/>
<text xml:space="preserve" text-anchor="middle" x="56" y="-36.5" font-family="Arial" font-size="10.00">• Creating Series</text>
<text xml:space="preserve" text-anchor="middle" x="56" y="-24.5" font-family="Arial" font-size="10.00">• Series Index</text>
<text xml:space="preserve" text-anchor="middle" x="56" y="-12.5" font-family="Arial" font-size="10.00">• Accessing Elements</text>
</g>
<!-- series&#45;&gt;series_concepts -->
<g id="edge6" class="edge">
<title>series&#45;&gt;series_concepts</title>
<path fill="none" stroke="darkgray" stroke-width="1.5" d="M153.09,-91.64C137.37,-81.5 117.17,-68.46 99.26,-56.91"/>
<polygon fill="darkgray" stroke="darkgray" stroke-width="1.5" points="101.24,-54.02 90.94,-51.54 97.45,-59.91 101.24,-54.02"/>
</g>
<!-- series_features -->
<g id="node8" class="node">
<title>series_features</title>
<polygon fill="lightyellow" stroke="black" points="224.38,-46 129.62,-46 129.62,-10 230.38,-10 230.38,-40 224.38,-46"/>
<polyline fill="none" stroke="black" points="224.38,-46 224.38,-40"/>
<polyline fill="none" stroke="black" points="230.38,-40 224.38,-40"/>
<text xml:space="preserve" text-anchor="middle" x="180" y="-30.5" font-family="Arial" font-size="10.00">• Series Attributes</text>
<text xml:space="preserve" text-anchor="middle" x="180" y="-18.5" font-family="Arial" font-size="10.00">• Series Operations</text>
</g>
<!-- series&#45;&gt;series_features -->
<g id="edge7" class="edge">
<title>series&#45;&gt;series_features</title>
<path fill="none" stroke="darkgray" stroke-width="1.5" d="M180,-91.64C180,-81.89 180,-69.47 180,-58.26"/>
<polygon fill="darkgray" stroke="darkgray" stroke-width="1.5" points="183.5,-58.6 180,-48.6 176.5,-58.6 183.5,-58.6"/>
</g>
<!-- df_creation -->
<g id="node9" class="node">
<title>df_creation</title>
<polygon fill="lightyellow" stroke="black" points="359.25,-46 248.75,-46 248.75,-10 365.25,-10 365.25,-40 359.25,-46"/>
<polyline fill="none" stroke="black" points="359.25,-46 359.25,-40"/>
<polyline fill="none" stroke="black" points="365.25,-40 359.25,-40"/>
<text xml:space="preserve" text-anchor="middle" x="307" y="-30.5" font-family="Arial" font-size="10.00">• Creating DataFrames</text>
<text xml:space="preserve" text-anchor="middle" x="307" y="-18.5" font-family="Arial" font-size="10.00">• Reading CSV Files</text>
</g>
<!-- dataframes&#45;&gt;df_creation -->
<g id="edge8" class="edge">
<title>dataframes&#45;&gt;df_creation</title>
<path fill="none" stroke="darkgray" stroke-width="1.5" d="M415.84,-91.64C395.89,-80.16 369.5,-64.97 347.7,-52.43"/>
<polygon fill="darkgray" stroke="darkgray" stroke-width="1.5" points="349.48,-49.41 339.07,-47.46 345.99,-55.48 349.48,-49.41"/>
</g>
<!-- df_inspection -->
<g id="node10" class="node">
<title>df_inspection</title>
<polygon fill="lightyellow" stroke="black" points="502.38,-46 383.62,-46 383.62,-10 508.38,-10 508.38,-40 502.38,-46"/>
<polyline fill="none" stroke="black" points="502.38,-46 502.38,-40"/>
<polyline fill="none" stroke="black" points="508.38,-40 502.38,-40"/>
<text xml:space="preserve" text-anchor="middle" x="446" y="-30.5" font-family="Arial" font-size="10.00">• Inspecting DataFrames</text>
<text xml:space="preserve" text-anchor="middle" x="446" y="-18.5" font-family="Arial" font-size="10.00">• Rows &amp; Columns</text>
</g>
<!-- dataframes&#45;&gt;df_inspection -->
<g id="edge9" class="edge">
<title>dataframes&#45;&gt;df_inspection</title>
<path fill="none" stroke="darkgray" stroke-width="1.5" d="M446,-91.64C446,-81.89 446,-69.47 446,-58.26"/>
<polygon fill="darkgray" stroke="darkgray" stroke-width="1.5" points="449.5,-58.6 446,-48.6 442.5,-58.6 449.5,-58.6"/>
</g>
<!-- selection_methods -->
<g id="node11" class="node">
<title>selection_methods</title>
<polygon fill="lightyellow" stroke="black" points="649.25,-56 526.75,-56 526.75,0 655.25,0 655.25,-50 649.25,-56"/>
<polyline fill="none" stroke="black" points="649.25,-56 649.25,-50"/>
<polyline fill="none" stroke="black" points="655.25,-50 649.25,-50"/>
<text xml:space="preserve" text-anchor="middle" x="591" y="-42.5" font-family="Arial" font-size="10.00">• Column Selection</text>
<text xml:space="preserve" text-anchor="middle" x="591" y="-30.5" font-family="Arial" font-size="10.00">• Row Selection (.loc)</text>
<text xml:space="preserve" text-anchor="middle" x="591" y="-18.5" font-family="Arial" font-size="10.00">• Position Selection (.iloc)</text>
<text xml:space="preserve" text-anchor="middle" x="591" y="-6.5" font-family="Arial" font-size="10.00">• Boolean Indexing</text>
</g>
<!-- selection&#45;&gt;selection_methods -->
<g id="edge10" class="edge">
<title>selection&#45;&gt;selection_methods</title>
<path fill="none" stroke="darkgray" stroke-width="1.5" d="M591,-91.64C591,-84.81 591,-76.65 591,-68.53"/>
<polygon fill="darkgray" stroke="darkgray" stroke-width="1.5" points="594.5,-68.66 591,-58.66 587.5,-68.66 594.5,-68.66"/>
</g>
<!-- stats_methods -->
<g id="node12" class="node">
<title>stats_methods</title>
<polygon fill="lightyellow" stroke="black" points="750.75,-56 673.25,-56 673.25,0 756.75,0 756.75,-50 750.75,-56"/>
<polyline fill="none" stroke="black" points="750.75,-56 750.75,-50"/>
<polyline fill="none" stroke="black" points="756.75,-50 750.75,-50"/>
<text xml:space="preserve" text-anchor="middle" x="715" y="-42.5" font-family="Arial" font-size="10.00">• .describe()</text>
<text xml:space="preserve" text-anchor="middle" x="715" y="-30.5" font-family="Arial" font-size="10.00">• mean(), sum()</text>
<text xml:space="preserve" text-anchor="middle" x="715" y="-18.5" font-family="Arial" font-size="10.00">• min(), max()</text>
<text xml:space="preserve" text-anchor="middle" x="715" y="-6.5" font-family="Arial" font-size="10.00">• count(), std()</text>
</g>
<!-- statistics&#45;&gt;stats_methods -->
<g id="edge11" class="edge">
<title>statistics&#45;&gt;stats_methods</title>
<path fill="none" stroke="darkgray" stroke-width="1.5" d="M697.77,-91.64C699.7,-84.64 702,-76.27 704.29,-67.96"/>
<polygon fill="darkgray" stroke="darkgray" stroke-width="1.5" points="707.59,-69.15 706.87,-58.58 700.84,-67.29 707.59,-69.15"/>
</g>
<!-- missing_concepts -->
<g id="node13" class="node">
<title>missing_concepts</title>
<polygon fill="lightyellow" stroke="black" points="899.38,-50 774.62,-50 774.62,-6 905.38,-6 905.38,-44 899.38,-50"/>
<polyline fill="none" stroke="black" points="899.38,-50 899.38,-44"/>
<polyline fill="none" stroke="black" points="905.38,-44 899.38,-44"/>
<text xml:space="preserve" text-anchor="middle" x="840" y="-36.5" font-family="Arial" font-size="10.00">• NaN Values</text>
<text xml:space="preserve" text-anchor="middle" x="840" y="-24.5" font-family="Arial" font-size="10.00">• .isnull()</text>
<text xml:space="preserve" text-anchor="middle" x="840" y="-12.5" font-family="Arial" font-size="10.00">• Counting Missing Values</text>
</g>
<!-- missing&#45;&gt;missing_concepts -->
<g id="edge12" class="edge">
<title>missing&#45;&gt;missing_concepts</title>
<path fill="none" stroke="darkgray" stroke-width="1.5" d="M840,-91.64C840,-83.11 840,-72.53 840,-62.51"/>
<polygon fill="darkgray" stroke="darkgray" stroke-width="1.5" points="843.5,-62.58 840,-52.58 836.5,-62.58 843.5,-62.58"/>
</g>
<!-- handle_preview -->
<g id="node14" class="node">
<title>handle_preview</title>
<path fill="lightgreen" stroke="black" d="M968.62,-46C968.62,-46 935.38,-46 935.38,-46 929.38,-46 923.38,-40 923.38,-34 923.38,-34 923.38,-22 923.38,-22 923.38,-16 929.38,-10 935.38,-10 935.38,-10 968.62,-10 968.62,-10 974.62,-10 980.62,-16 980.62,-22 980.62,-22 980.62,-34 980.62,-34 980.62,-40 974.62,-46 968.62,-46"/>
<text xml:space="preserve" text-anchor="middle" x="952" y="-30.5" font-family="Arial" font-size="10.00">Handling</text>
<text xml:space="preserve" text-anchor="middle" x="952" y="-18.5" font-family="Arial" font-size="10.00">(Preview)</text>
</g>
<!-- missing&#45;&gt;handle_preview -->
<g id="edge13" class="edge">
<title>missing&#45;&gt;handle_preview</title>
<path fill="none" stroke="darkgray" stroke-width="1.5" d="M864.3,-91.64C880.01,-80.42 900.67,-65.66 917.99,-53.29"/>
<polygon fill="darkgray" stroke="darkgray" stroke-width="1.5" points="919.79,-56.31 925.9,-47.64 915.73,-50.61 919.79,-56.31"/>
</g>
</g>
</svg>
